<svg aria-hidden="true" style="position: absolute; width: 0; height: 0; overflow: hidden;" version="1.1" xmlns="http://www.w3.org/2000/svg" xmlns:xlink="http://www.w3.org/1999/xlink">
<defs>
<symbol id="cloudy-day-1" viewBox="0 0 32 32">
<path fill="none" stroke="#ffa500" style="stroke: var(--color1, #ffa500)" stroke-linejoin="miter" stroke-linecap="round" stroke-miterlimit="4" stroke-width="1" d="M10 17.5v1.5"></path>
<path fill="none" stroke="#ffa500" style="stroke: var(--color1, #ffa500)" stroke-linejoin="miter" stroke-linecap="round" stroke-miterlimit="4" stroke-width="1" d="M6.818 16.182l-1.061 1.061"></path>
<path fill="none" stroke="#ffa500" style="stroke: var(--color1, #ffa500)" stroke-linejoin="miter" stroke-linecap="round" stroke-miterlimit="4" stroke-width="1" d="M5.5 13h-1.5"></path>
<path fill="none" stroke="#ffa500" style="stroke: var(--color1, #ffa500)" stroke-linejoin="miter" stroke-linecap="round" stroke-miterlimit="4" stroke-width="1" d="M6.818 9.818l-1.061-1.061"></path>
<path fill="none" stroke="#ffa500" style="stroke: var(--color1, #ffa500)" stroke-linejoin="miter" stroke-linecap="round" stroke-miterlimit="4" stroke-width="1" d="M10 8.5v-1.5"></path>
<path fill="none" stroke="#ffa500" style="stroke: var(--color1, #ffa500)" stroke-linejoin="miter" stroke-linecap="round" stroke-miterlimit="4" stroke-width="1" d="M13.182 9.818l1.061-1.061"></path>
<path fill="none" stroke="#ffa500" style="stroke: var(--color1, #ffa500)" stroke-linejoin="miter" stroke-linecap="round" stroke-miterlimit="4" stroke-width="1" d="M14.5 13h1.5"></path>
<path fill="none" stroke="#ffa500" style="stroke: var(--color1, #ffa500)" stroke-linejoin="miter" stroke-linecap="round" stroke-miterlimit="4" stroke-width="1" d="M13.182 16.182l1.061 1.061"></path>
<path fill="#ffa500" style="fill: var(--color1, #ffa500); stroke: var(--color1, #ffa500)" stroke="#ffa500" stroke-linejoin="miter" stroke-linecap="butt" stroke-miterlimit="4" stroke-width="1" d="M12.5 13c0 1.381-1.119 2.5-2.5 2.5s-2.5-1.119-2.5-2.5c0-1.381 1.119-2.5 2.5-2.5s2.5 1.119 2.5 2.5z"></path>
<path fill="#c6deff" style="fill: var(--color2, #c6deff); stroke: var(--color3, #fff)" stroke="#fff" stroke-linejoin="round" stroke-linecap="butt" stroke-miterlimit="4" stroke-width="0.6" d="M23.85 17.2c0-2.3-1.85-4.1-4.1-4.1-0.5 0-0.95 0.1-1.4 0.25-0.15-1.7-1.55-3.1-3.3-3.1-1.85 0-3.35 1.5-3.35 3.35 0 0.4 0.1 0.8 0.2 1.15-0.15-0.050-0.35-0.050-0.5-0.050-1.85 0-3.35 1.5-3.35 3.35 0 1.8 1.45 3.3 3.25 3.35h8.6c2.2-0.25 3.95-2 3.95-4.2z"></path>
</symbol>
<symbol id="cloudy-day-2" viewBox="0 0 32 32">
<path fill="none" stroke="#ffa500" style="stroke: var(--color1, #ffa500)" stroke-linejoin="miter" stroke-linecap="round" stroke-miterlimit="4" stroke-width="1" d="M10 17.5v1.5"></path>
<path fill="none" stroke="#ffa500" style="stroke: var(--color1, #ffa500)" stroke-linejoin="miter" stroke-linecap="round" stroke-miterlimit="4" stroke-width="1" d="M6.818 16.182l-1.061 1.061"></path>
<path fill="none" stroke="#ffa500" style="stroke: var(--color1, #ffa500)" stroke-linejoin="miter" stroke-linecap="round" stroke-miterlimit="4" stroke-width="1" d="M5.5 13h-1.5"></path>
<path fill="none" stroke="#ffa500" style="stroke: var(--color1, #ffa500)" stroke-linejoin="miter" stroke-linecap="round" stroke-miterlimit="4" stroke-width="1" d="M6.818 9.818l-1.061-1.061"></path>
<path fill="none" stroke="#ffa500" style="stroke: var(--color1, #ffa500)" stroke-linejoin="miter" stroke-linecap="round" stroke-miterlimit="4" stroke-width="1" d="M10 8.5v-1.5"></path>
<path fill="none" stroke="#ffa500" style="stroke: var(--color1, #ffa500)" stroke-linejoin="miter" stroke-linecap="round" stroke-miterlimit="4" stroke-width="1" d="M13.182 9.818l1.061-1.061"></path>
<path fill="none" stroke="#ffa500" style="stroke: var(--color1, #ffa500)" stroke-linejoin="miter" stroke-linecap="round" stroke-miterlimit="4" stroke-width="1" d="M14.5 13h1.5"></path>
<path fill="none" stroke="#ffa500" style="stroke: var(--color1, #ffa500)" stroke-linejoin="miter" stroke-linecap="round" stroke-miterlimit="4" stroke-width="1" d="M13.182 16.182l1.061 1.061"></path>
<path fill="#ffa500" style="fill: var(--color1, #ffa500); stroke: var(--color1, #ffa500)" stroke="#ffa500" stroke-linejoin="miter" stroke-linecap="butt" stroke-miterlimit="4" stroke-width="1" d="M12.5 13c0 1.381-1.119 2.5-2.5 2.5s-2.5-1.119-2.5-2.5c0-1.381 1.119-2.5 2.5-2.5s2.5 1.119 2.5 2.5z"></path>
<path fill="#91c0f8" style="fill: var(--color4, #91c0f8); stroke: var(--color3, #fff)" stroke="#fff" stroke-linejoin="round" stroke-linecap="butt" stroke-miterlimit="4" stroke-width="0.6" d="M23.85 17.2c0-2.3-1.85-4.1-4.1-4.1-0.5 0-0.95 0.1-1.4 0.25-0.15-1.7-1.55-3.1-3.3-3.1-1.85 0-3.35 1.5-3.35 3.35 0 0.4 0.1 0.8 0.2 1.15-0.15-0.050-0.35-0.050-0.5-0.050-1.85 0-3.35 1.5-3.35 3.35 0 1.8 1.45 3.3 3.25 3.35h8.6c2.2-0.25 3.95-2 3.95-4.2z"></path>
</symbol>
<symbol id="cloudy-day-3" viewBox="0 0 32 32">
<path fill="none" stroke="#ffa500" style="stroke: var(--color1, #ffa500)" stroke-linejoin="miter" stroke-linecap="round" stroke-miterlimit="4" stroke-width="1" d="M10 17.5v1.5"></path>
<path fill="none" stroke="#ffa500" style="stroke: var(--color1, #ffa500)" stroke-linejoin="miter" stroke-linecap="round" stroke-miterlimit="4" stroke-width="1" d="M6.818 16.182l-1.061 1.061"></path>
<path fill="none" stroke="#ffa500" style="stroke: var(--color1, #ffa500)" stroke-linejoin="miter" stroke-linecap="round" stroke-miterlimit="4" stroke-width="1" d="M5.5 13h-1.5"></path>
<path fill="none" stroke="#ffa500" style="stroke: var(--color1, #ffa500)" stroke-linejoin="miter" stroke-linecap="round" stroke-miterlimit="4" stroke-width="1" d="M6.818 9.818l-1.061-1.061"></path>
<path fill="none" stroke="#ffa500" style="stroke: var(--color1, #ffa500)" stroke-linejoin="miter" stroke-linecap="round" stroke-miterlimit="4" stroke-width="1" d="M10 8.5v-1.5"></path>
<path fill="none" stroke="#ffa500" style="stroke: var(--color1, #ffa500)" stroke-linejoin="miter" stroke-linecap="round" stroke-miterlimit="4" stroke-width="1" d="M13.182 9.818l1.061-1.061"></path>
<path fill="none" stroke="#ffa500" style="stroke: var(--color1, #ffa500)" stroke-linejoin="miter" stroke-linecap="round" stroke-miterlimit="4" stroke-width="1" d="M14.5 13h1.5"></path>
<path fill="none" stroke="#ffa500" style="stroke: var(--color1, #ffa500)" stroke-linejoin="miter" stroke-linecap="round" stroke-miterlimit="4" stroke-width="1" d="M13.182 16.182l1.061 1.061"></path>
<path fill="#ffa500" style="fill: var(--color1, #ffa500); stroke: var(--color1, #ffa500)" stroke="#ffa500" stroke-linejoin="miter" stroke-linecap="butt" stroke-miterlimit="4" stroke-width="1" d="M12.5 13c0 1.381-1.119 2.5-2.5 2.5s-2.5-1.119-2.5-2.5c0-1.381 1.119-2.5 2.5-2.5s2.5 1.119 2.5 2.5z"></path>
<path fill="#57a0ee" style="fill: var(--color5, #57a0ee); stroke: var(--color3, #fff)" stroke="#fff" stroke-linejoin="round" stroke-linecap="butt" stroke-miterlimit="4" stroke-width="0.6" d="M23.85 17.2c0-2.3-1.85-4.1-4.1-4.1-0.5 0-0.95 0.1-1.4 0.25-0.15-1.7-1.55-3.1-3.3-3.1-1.85 0-3.35 1.5-3.35 3.35 0 0.4 0.1 0.8 0.2 1.15-0.15-0.050-0.35-0.050-0.5-0.050-1.85 0-3.35 1.5-3.35 3.35 0 1.8 1.45 3.3 3.25 3.35h8.6c2.2-0.25 3.95-2 3.95-4.2z"></path>
</symbol>
<symbol id="cloudy-night-1" viewBox="0 0 32 32">
<path fill="#ffa500" style="fill: var(--color1, #ffa500)" d="M19.32 7.6l0.28 0.48 0.48 0.24-0.48 0.28-0.28 0.48-0.24-0.48-0.48-0.28 0.48-0.24z"></path>
<path fill="#ffa500" style="fill: var(--color1, #ffa500)" d="M27.32 11.6l0.28 0.48 0.48 0.24-0.48 0.28-0.28 0.48-0.24-0.48-0.48-0.28 0.48-0.24z"></path>
<path fill="#ffa500" style="fill: var(--color1, #ffa500); stroke: var(--color1, #ffa500)" stroke="#ffa500" stroke-linejoin="round" stroke-linecap="butt" stroke-miterlimit="4" stroke-width="1" d="M23.8 12.28c0-1.48 0.8-2.76 2-3.48-0.6-0.36-1.28-0.52-2-0.52-2.2 0-4 1.8-4 4s1.8 4 4 4c0.72 0 1.4-0.2 2-0.52-1.2-0.68-2-2-2-3.48z"></path>
<path fill="#c6deff" style="fill: var(--color2, #c6deff); stroke: var(--color3, #fff)" stroke="#fff" stroke-linejoin="round" stroke-linecap="butt" stroke-miterlimit="4" stroke-width="0.6" d="M23.85 17.2c0-2.3-1.85-4.1-4.1-4.1-0.5 0-0.95 0.1-1.4 0.25-0.15-1.7-1.55-3.1-3.3-3.1-1.85 0-3.35 1.5-3.35 3.35 0 0.4 0.1 0.8 0.2 1.15-0.15-0.050-0.35-0.050-0.5-0.050-1.85 0-3.35 1.5-3.35 3.35 0 1.8 1.45 3.3 3.25 3.35h8.6c2.2-0.25 3.95-2 3.95-4.2z"></path>
</symbol>
<symbol id="cloudy-night-2" viewBox="0 0 32 32">
<path fill="#ffa500" style="fill: var(--color1, #ffa500)" d="M19.32 7.6l0.28 0.48 0.48 0.24-0.48 0.28-0.28 0.48-0.24-0.48-0.48-0.28 0.48-0.24z"></path>
<path fill="#ffa500" style="fill: var(--color1, #ffa500)" d="M27.32 11.6l0.28 0.48 0.48 0.24-0.48 0.28-0.28 0.48-0.24-0.48-0.48-0.28 0.48-0.24z"></path>
<path fill="#ffa500" style="fill: var(--color1, #ffa500); stroke: var(--color1, #ffa500)" stroke="#ffa500" stroke-linejoin="round" stroke-linecap="butt" stroke-miterlimit="4" stroke-width="1" d="M23.8 12.28c0-1.48 0.8-2.76 2-3.48-0.6-0.36-1.28-0.52-2-0.52-2.2 0-4 1.8-4 4s1.8 4 4 4c0.72 0 1.4-0.2 2-0.52-1.2-0.68-2-2-2-3.48z"></path>
<path fill="#91c0f8" style="fill: var(--color4, #91c0f8); stroke: var(--color3, #fff)" stroke="#fff" stroke-linejoin="round" stroke-linecap="butt" stroke-miterlimit="4" stroke-width="0.6" d="M23.85 17.2c0-2.3-1.85-4.1-4.1-4.1-0.5 0-0.95 0.1-1.4 0.25-0.15-1.7-1.55-3.1-3.3-3.1-1.85 0-3.35 1.5-3.35 3.35 0 0.4 0.1 0.8 0.2 1.15-0.15-0.050-0.35-0.050-0.5-0.050-1.85 0-3.35 1.5-3.35 3.35 0 1.8 1.45 3.3 3.25 3.35h8.6c2.2-0.25 3.95-2 3.95-4.2z"></path>
</symbol>
<symbol id="cloudy-night-3" viewBox="0 0 32 32">
<path fill="#ffa500" style="fill: var(--color1, #ffa500)" d="M19.32 7.6l0.28 0.48 0.48 0.24-0.48 0.28-0.28 0.48-0.24-0.48-0.48-0.28 0.48-0.24z"></path>
<path fill="#ffa500" style="fill: var(--color1, #ffa500)" d="M27.32 11.6l0.28 0.48 0.48 0.24-0.48 0.28-0.28 0.48-0.24-0.48-0.48-0.28 0.48-0.24z"></path>
<path fill="#ffa500" style="fill: var(--color1, #ffa500); stroke: var(--color1, #ffa500)" stroke="#ffa500" stroke-linejoin="round" stroke-linecap="butt" stroke-miterlimit="4" stroke-width="1" d="M23.8 12.28c0-1.48 0.8-2.76 2-3.48-0.6-0.36-1.28-0.52-2-0.52-2.2 0-4 1.8-4 4s1.8 4 4 4c0.72 0 1.4-0.2 2-0.52-1.2-0.68-2-2-2-3.48z"></path>
<path fill="#57a0ee" style="fill: var(--color5, #57a0ee); stroke: var(--color3, #fff)" stroke="#fff" stroke-linejoin="round" stroke-linecap="butt" stroke-miterlimit="4" stroke-width="0.6" d="M23.85 17.2c0-2.3-1.85-4.1-4.1-4.1-0.5 0-0.95 0.1-1.4 0.25-0.15-1.7-1.55-3.1-3.3-3.1-1.85 0-3.35 1.5-3.35 3.35 0 0.4 0.1 0.8 0.2 1.15-0.15-0.050-0.35-0.050-0.5-0.050-1.85 0-3.35 1.5-3.35 3.35 0 1.8 1.45 3.3 3.25 3.35h8.6c2.2-0.25 3.95-2 3.95-4.2z"></path>
</symbol>
<symbol id="cloudy" viewBox="0 0 32 32">
<path fill="#91c0f8" style="fill: var(--color4, #91c0f8); stroke: var(--color3, #fff)" stroke="#fff" stroke-linejoin="round" stroke-linecap="butt" stroke-miterlimit="4" stroke-width="0.6" d="M19.31 11.62c0-1.38-1.11-2.46-2.46-2.46-0.3 0-0.57 0.060-0.84 0.15-0.090-1.020-0.93-1.86-1.98-1.86-1.11 0-2.010 0.9-2.010 2.010 0 0.24 0.060 0.48 0.12 0.69-0.090-0.030-0.21-0.030-0.3-0.030-1.11 0-2.010 0.9-2.010 2.010 0 1.080 0.87 1.98 1.95 2.010h5.16c1.32-0.15 2.37-1.2 2.37-2.52z"></path>
<path fill="#57a0ee" style="fill: var(--color5, #57a0ee); stroke: var(--color3, #fff)" stroke="#fff" stroke-linejoin="round" stroke-linecap="butt" stroke-miterlimit="4" stroke-width="0.6" d="M23.85 17.2c0-2.3-1.85-4.1-4.1-4.1-0.5 0-0.95 0.1-1.4 0.25-0.15-1.7-1.55-3.1-3.3-3.1-1.85 0-3.35 1.5-3.35 3.35 0 0.4 0.1 0.8 0.2 1.15-0.15-0.050-0.35-0.050-0.5-0.050-1.85 0-3.35 1.5-3.35 3.35 0 1.8 1.45 3.3 3.25 3.35h8.6c2.2-0.25 3.95-2 3.95-4.2z"></path>
</symbol>
<symbol id="day" viewBox="0 0 32 32">
<path fill="none" stroke="#ffa500" style="stroke: var(--color1, #ffa500)" stroke-linejoin="miter" stroke-linecap="round" stroke-miterlimit="4" stroke-width="1" d="M16 20.5v1.5"></path>
<path fill="none" stroke="#ffa500" style="stroke: var(--color1, #ffa500)" stroke-linejoin="miter" stroke-linecap="round" stroke-miterlimit="4" stroke-width="1" d="M12.818 19.182l-1.061 1.061"></path>
<path fill="none" stroke="#ffa500" style="stroke: var(--color1, #ffa500)" stroke-linejoin="miter" stroke-linecap="round" stroke-miterlimit="4" stroke-width="1" d="M11.5 16h-1.5"></path>
<path fill="none" stroke="#ffa500" style="stroke: var(--color1, #ffa500)" stroke-linejoin="miter" stroke-linecap="round" stroke-miterlimit="4" stroke-width="1" d="M12.818 12.818l-1.061-1.061"></path>
<path fill="none" stroke="#ffa500" style="stroke: var(--color1, #ffa500)" stroke-linejoin="miter" stroke-linecap="round" stroke-miterlimit="4" stroke-width="1" d="M16 11.5v-1.5"></path>
<path fill="none" stroke="#ffa500" style="stroke: var(--color1, #ffa500)" stroke-linejoin="miter" stroke-linecap="round" stroke-miterlimit="4" stroke-width="1" d="M19.182 12.818l1.061-1.061"></path>
<path fill="none" stroke="#ffa500" style="stroke: var(--color1, #ffa500)" stroke-linejoin="miter" stroke-linecap="round" stroke-miterlimit="4" stroke-width="1" d="M20.5 16h1.5"></path>
<path fill="none" stroke="#ffa500" style="stroke: var(--color1, #ffa500)" stroke-linejoin="miter" stroke-linecap="round" stroke-miterlimit="4" stroke-width="1" d="M19.182 19.182l1.061 1.061"></path>
<path fill="#ffa500" style="fill: var(--color1, #ffa500); stroke: var(--color1, #ffa500)" stroke="#ffa500" stroke-linejoin="miter" stroke-linecap="butt" stroke-miterlimit="4" stroke-width="1" d="M18.5 16c0 1.381-1.119 2.5-2.5 2.5s-2.5-1.119-2.5-2.5c0-1.381 1.119-2.5 2.5-2.5s2.5 1.119 2.5 2.5z"></path>
</symbol>
<symbol id="night" viewBox="0 0 32 32">
<path fill="#ffa500" style="fill: var(--color1, #ffa500)" d="M11.65 10.75l0.35 0.6 0.6 0.3-0.6 0.35-0.35 0.6-0.3-0.6-0.6-0.35 0.6-0.3z"></path>
<path fill="#ffa500" style="fill: var(--color1, #ffa500)" d="M21.65 15.75l0.35 0.6 0.6 0.3-0.6 0.35-0.35 0.6-0.3-0.6-0.6-0.35 0.6-0.3z"></path>
<path fill="#ffa500" style="fill: var(--color1, #ffa500); stroke: var(--color1, #ffa500)" stroke="#ffa500" stroke-linejoin="round" stroke-linecap="butt" stroke-miterlimit="4" stroke-width="1" d="M17.25 16.6c0-1.85 1-3.45 2.5-4.35-0.75-0.45-1.6-0.65-2.5-0.65-2.75 0-5 2.25-5 5s2.25 5 5 5c0.9 0 1.75-0.25 2.5-0.65-1.5-0.85-2.5-2.5-2.5-4.35z"></path>
</symbol>
<symbol id="rainy-1" viewBox="0 0 32 32">
<path fill="none" stroke="#ffa500" style="stroke: var(--color1, #ffa500)" stroke-linejoin="miter" stroke-linecap="round" stroke-miterlimit="4" stroke-width="1" d="M10 18.4v1.8"></path>
<path fill="none" stroke="#ffa500" style="stroke: var(--color1, #ffa500)" stroke-linejoin="miter" stroke-linecap="round" stroke-miterlimit="4" stroke-width="1" d="M6.182 16.818l-1.273 1.273"></path>
<path fill="none" stroke="#ffa500" style="stroke: var(--color1, #ffa500)" stroke-linejoin="miter" stroke-linecap="round" stroke-miterlimit="4" stroke-width="1" d="M4.6 13h-1.8"></path>
<path fill="none" stroke="#ffa500" style="stroke: var(--color1, #ffa500)" stroke-linejoin="miter" stroke-linecap="round" stroke-miterlimit="4" stroke-width="1" d="M6.182 9.182l-1.273-1.273"></path>
<path fill="none" stroke="#ffa500" style="stroke: var(--color1, #ffa500)" stroke-linejoin="miter" stroke-linecap="round" stroke-miterlimit="4" stroke-width="1" d="M10 7.6v-1.8"></path>
<path fill="none" stroke="#ffa500" style="stroke: var(--color1, #ffa500)" stroke-linejoin="miter" stroke-linecap="round" stroke-miterlimit="4" stroke-width="1" d="M13.818 9.182l1.273-1.273"></path>
<path fill="none" stroke="#ffa500" style="stroke: var(--color1, #ffa500)" stroke-linejoin="miter" stroke-linecap="round" stroke-miterlimit="4" stroke-width="1" d="M15.4 13h1.8"></path>
<path fill="none" stroke="#ffa500" style="stroke: var(--color1, #ffa500)" stroke-linejoin="miter" stroke-linecap="round" stroke-miterlimit="4" stroke-width="1" d="M13.818 16.818l1.273 1.273"></path>
<path fill="#ffa500" style="fill: var(--color1, #ffa500); stroke: var(--color1, #ffa500)" stroke="#ffa500" stroke-linejoin="miter" stroke-linecap="butt" stroke-miterlimit="4" stroke-width="1" d="M13 13c0 1.657-1.343 3-3 3s-3-1.343-3-3c0-1.657 1.343-3 3-3s3 1.343 3 3z"></path>
<path fill="#57a0ee" style="fill: var(--color5, #57a0ee); stroke: var(--color3, #fff)" stroke="#fff" stroke-linejoin="round" stroke-linecap="butt" stroke-miterlimit="4" stroke-width="0.75" d="M22.773 17.545c0-1.955-1.573-3.485-3.485-3.485-0.425 0-0.808 0.085-1.19 0.213-0.128-1.445-1.317-2.635-2.805-2.635-1.572 0-2.848 1.275-2.848 2.848 0 0.34 0.085 0.68 0.17 0.977-0.127-0.043-0.297-0.043-0.425-0.043-1.572 0-2.848 1.275-2.848 2.848 0 1.53 1.232 2.805 2.763 2.848h7.31c1.87-0.212 3.358-1.7 3.358-3.57z"></path>
<path fill="none" stroke="#91c0f8" style="stroke: var(--color4, #91c0f8)" stroke-linejoin="miter" stroke-linecap="round" stroke-miterlimit="4" stroke-width="1" d="M13.959 22.971l-0.695 3.939"></path>
<path fill="none" stroke="#91c0f8" style="stroke: var(--color4, #91c0f8)" stroke-linejoin="miter" stroke-linecap="round" stroke-miterlimit="4" stroke-width="1" d="M17.087 22.508l-0.695 3.939"></path>
</symbol>
<symbol id="rainy-2" viewBox="0 0 32 32">
<path fill="none" stroke="#ffa500" style="stroke: var(--color1, #ffa500)" stroke-linejoin="miter" stroke-linecap="round" stroke-miterlimit="4" stroke-width="1" d="M10 17.5v1.5"></path>
<path fill="none" stroke="#ffa500" style="stroke: var(--color1, #ffa500)" stroke-linejoin="miter" stroke-linecap="round" stroke-miterlimit="4" stroke-width="1" d="M6.818 16.182l-1.061 1.061"></path>
<path fill="none" stroke="#ffa500" style="stroke: var(--color1, #ffa500)" stroke-linejoin="miter" stroke-linecap="round" stroke-miterlimit="4" stroke-width="1" d="M5.5 13h-1.5"></path>
<path fill="none" stroke="#ffa500" style="stroke: var(--color1, #ffa500)" stroke-linejoin="miter" stroke-linecap="round" stroke-miterlimit="4" stroke-width="1" d="M6.818 9.818l-1.061-1.061"></path>
<path fill="none" stroke="#ffa500" style="stroke: var(--color1, #ffa500)" stroke-linejoin="miter" stroke-linecap="round" stroke-miterlimit="4" stroke-width="1" d="M10 8.5v-1.5"></path>
<path fill="none" stroke="#ffa500" style="stroke: var(--color1, #ffa500)" stroke-linejoin="miter" stroke-linecap="round" stroke-miterlimit="4" stroke-width="1" d="M13.182 9.818l1.061-1.061"></path>
<path fill="none" stroke="#ffa500" style="stroke: var(--color1, #ffa500)" stroke-linejoin="miter" stroke-linecap="round" stroke-miterlimit="4" stroke-width="1" d="M14.5 13h1.5"></path>
<path fill="none" stroke="#ffa500" style="stroke: var(--color1, #ffa500)" stroke-linejoin="miter" stroke-linecap="round" stroke-miterlimit="4" stroke-width="1" d="M13.182 16.182l1.061 1.061"></path>
<path fill="#ffa500" style="fill: var(--color1, #ffa500); stroke: var(--color1, #ffa500)" stroke="#ffa500" stroke-linejoin="miter" stroke-linecap="butt" stroke-miterlimit="4" stroke-width="1" d="M12.5 13c0 1.381-1.119 2.5-2.5 2.5s-2.5-1.119-2.5-2.5c0-1.381 1.119-2.5 2.5-2.5s2.5 1.119 2.5 2.5z"></path>
<path fill="#57a0ee" style="fill: var(--color5, #57a0ee); stroke: var(--color3, #fff)" stroke="#fff" stroke-linejoin="round" stroke-linecap="butt" stroke-miterlimit="4" stroke-width="0.6" d="M23.85 17.2c0-2.3-1.85-4.1-4.1-4.1-0.5 0-0.95 0.1-1.4 0.25-0.15-1.7-1.55-3.1-3.3-3.1-1.85 0-3.35 1.5-3.35 3.35 0 0.4 0.1 0.8 0.2 1.15-0.15-0.050-0.35-0.050-0.5-0.050-1.85 0-3.35 1.5-3.35 3.35 0 1.8 1.45 3.3 3.25 3.35h8.6c2.2-0.25 3.95-2 3.95-4.2z"></path>
<path fill="none" stroke="#91c0f8" style="stroke: var(--color4, #91c0f8)" stroke-linejoin="miter" stroke-linecap="round" stroke-miterlimit="4" stroke-width="1" d="M15.459 22.471l-0.695 3.939"></path>
</symbol>
<symbol id="rainy-3" viewBox="0 0 32 32">
<path fill="#000" style="fill: var(--color6, #000); stroke: var(--color1, #ffa500)" stroke="#ffa500" stroke-linejoin="miter" stroke-linecap="round" stroke-miterlimit="4" stroke-width="1" d="M10 17.5v1.5"></path>
<path fill="none" stroke="#ffa500" style="stroke: var(--color1, #ffa500)" stroke-linejoin="miter" stroke-linecap="round" stroke-miterlimit="4" stroke-width="1" d="M6.818 16.182l-1.061 1.061"></path>
<path fill="none" stroke="#ffa500" style="stroke: var(--color1, #ffa500)" stroke-linejoin="miter" stroke-linecap="round" stroke-miterlimit="4" stroke-width="1" d="M5.5 13h-1.5"></path>
<path fill="none" stroke="#ffa500" style="stroke: var(--color1, #ffa500)" stroke-linejoin="miter" stroke-linecap="round" stroke-miterlimit="4" stroke-width="1" d="M6.818 9.818l-1.061-1.061"></path>
<path fill="none" stroke="#ffa500" style="stroke: var(--color1, #ffa500)" stroke-linejoin="miter" stroke-linecap="round" stroke-miterlimit="4" stroke-width="1" d="M10 8.5v-1.5"></path>
<path fill="none" stroke="#ffa500" style="stroke: var(--color1, #ffa500)" stroke-linejoin="miter" stroke-linecap="round" stroke-miterlimit="4" stroke-width="1" d="M13.182 9.818l1.061-1.061"></path>
<path fill="none" stroke="#ffa500" style="stroke: var(--color1, #ffa500)" stroke-linejoin="miter" stroke-linecap="round" stroke-miterlimit="4" stroke-width="1" d="M14.5 13h1.5"></path>
<path fill="none" stroke="#ffa500" style="stroke: var(--color1, #ffa500)" stroke-linejoin="miter" stroke-linecap="round" stroke-miterlimit="4" stroke-width="1" d="M13.182 16.182l1.061 1.061"></path>
<path fill="#ffa500" style="fill: var(--color1, #ffa500); stroke: var(--color1, #ffa500)" stroke="#ffa500" stroke-linejoin="miter" stroke-linecap="butt" stroke-miterlimit="4" stroke-width="1" d="M12.5 13c0 1.381-1.119 2.5-2.5 2.5s-2.5-1.119-2.5-2.5c0-1.381 1.119-2.5 2.5-2.5s2.5 1.119 2.5 2.5z"></path>
<path fill="#57a0ee" style="fill: var(--color5, #57a0ee); stroke: var(--color3, #fff)" stroke="#fff" stroke-linejoin="round" stroke-linecap="butt" stroke-miterlimit="4" stroke-width="0.6" d="M23.85 17.2c0-2.3-1.85-4.1-4.1-4.1-0.5 0-0.95 0.1-1.4 0.25-0.15-1.7-1.55-3.1-3.3-3.1-1.85 0-3.35 1.5-3.35 3.35 0 0.4 0.1 0.8 0.2 1.15-0.15-0.050-0.35-0.050-0.5-0.050-1.85 0-3.35 1.5-3.35 3.35 0 1.8 1.45 3.3 3.25 3.35h8.6c2.2-0.25 3.95-2 3.95-4.2z"></path>
<path fill="none" stroke="#91c0f8" style="stroke: var(--color4, #91c0f8)" stroke-linejoin="miter" stroke-linecap="round" stroke-miterlimit="4" stroke-width="1" d="M13.959 22.971l-0.695 3.939"></path>
<path fill="none" stroke="#91c0f8" style="stroke: var(--color4, #91c0f8)" stroke-linejoin="miter" stroke-linecap="round" stroke-miterlimit="4" stroke-width="1" d="M17.087 22.508l-0.695 3.939"></path>
</symbol>
<symbol id="rainy-4" viewBox="0 0 32 32">
<path fill="#57a0ee" style="fill: var(--color5, #57a0ee); stroke: var(--color3, #fff)" stroke="#fff" stroke-linejoin="round" stroke-linecap="butt" stroke-miterlimit="4" stroke-width="0.6" d="M23.85 17.2c0-2.3-1.85-4.1-4.1-4.1-0.5 0-0.95 0.1-1.4 0.25-0.15-1.7-1.55-3.1-3.3-3.1-1.85 0-3.35 1.5-3.35 3.35 0 0.4 0.1 0.8 0.2 1.15-0.15-0.050-0.35-0.050-0.5-0.050-1.85 0-3.35 1.5-3.35 3.35 0 1.8 1.45 3.3 3.25 3.35h8.6c2.2-0.25 3.95-2 3.95-4.2z"></path>
<path fill="none" stroke="#91c0f8" style="stroke: var(--color4, #91c0f8)" stroke-linejoin="miter" stroke-linecap="round" stroke-miterlimit="4" stroke-width="1" d="M15.459 22.471l-0.695 3.939"></path>
</symbol>
<symbol id="rainy-5" viewBox="0 0 32 32">
<path fill="#57a0ee" style="fill: var(--color5, #57a0ee); stroke: var(--color3, #fff)" stroke="#fff" stroke-linejoin="round" stroke-linecap="butt" stroke-miterlimit="4" stroke-width="0.6" d="M23.85 17.2c0-2.3-1.85-4.1-4.1-4.1-0.5 0-0.95 0.1-1.4 0.25-0.15-1.7-1.55-3.1-3.3-3.1-1.85 0-3.35 1.5-3.35 3.35 0 0.4 0.1 0.8 0.2 1.15-0.15-0.050-0.35-0.050-0.5-0.050-1.85 0-3.35 1.5-3.35 3.35 0 1.8 1.45 3.3 3.25 3.35h8.6c2.2-0.25 3.95-2 3.95-4.2z"></path>
<path fill="none" stroke="#91c0f8" style="stroke: var(--color4, #91c0f8)" stroke-linejoin="miter" stroke-linecap="round" stroke-miterlimit="4" stroke-width="1" d="M13.959 22.971l-0.695 3.939"></path>
<path fill="none" stroke="#91c0f8" style="stroke: var(--color4, #91c0f8)" stroke-linejoin="miter" stroke-linecap="round" stroke-miterlimit="4" stroke-width="1" d="M17.087 22.508l-0.695 3.939"></path>
</symbol>
<symbol id="rainy-6" viewBox="0 0 32 32">
<path fill="#57a0ee" style="fill: var(--color5, #57a0ee); stroke: var(--color3, #fff)" stroke="#fff" stroke-linejoin="round" stroke-linecap="butt" stroke-miterlimit="4" stroke-width="0.6" d="M23.85 17.2c0-2.3-1.85-4.1-4.1-4.1-0.5 0-0.95 0.1-1.4 0.25-0.15-1.7-1.55-3.1-3.3-3.1-1.85 0-3.35 1.5-3.35 3.35 0 0.4 0.1 0.8 0.2 1.15-0.15-0.050-0.35-0.050-0.5-0.050-1.85 0-3.35 1.5-3.35 3.35 0 1.8 1.45 3.3 3.25 3.35h8.6c2.2-0.25 3.95-2 3.95-4.2z"></path>
<path fill="none" stroke="#91c0f8" style="stroke: var(--color4, #91c0f8)" stroke-linejoin="miter" stroke-linecap="round" stroke-miterlimit="4" stroke-width="1" d="M13.444 23.145l-0.695 3.939"></path>
<path fill="none" stroke="#91c0f8" style="stroke: var(--color4, #91c0f8)" stroke-linejoin="miter" stroke-linecap="round" stroke-miterlimit="4" stroke-width="1" d="M15.587 22.508l-0.695 3.939"></path>
<path fill="none" stroke="#91c0f8" style="stroke: var(--color4, #91c0f8)" stroke-linejoin="miter" stroke-linecap="round" stroke-miterlimit="4" stroke-width="1" d="M17.47 23.347l-0.695 3.939"></path>
</symbol>
<symbol id="rainy-7" viewBox="0 0 32 32">
<path fill="#57a0ee" style="fill: var(--color5, #57a0ee); stroke: var(--color3, #fff)" stroke="#fff" stroke-linejoin="round" stroke-linecap="butt" stroke-miterlimit="4" stroke-width="0.6" d="M23.85 17.2c0-2.3-1.85-4.1-4.1-4.1-0.5 0-0.95 0.1-1.4 0.25-0.15-1.7-1.55-3.1-3.3-3.1-1.85 0-3.35 1.5-3.35 3.35 0 0.4 0.1 0.8 0.2 1.15-0.15-0.050-0.35-0.050-0.5-0.050-1.85 0-3.35 1.5-3.35 3.35 0 1.8 1.45 3.3 3.25 3.35h8.6c2.2-0.25 3.95-2 3.95-4.2z"></path>
<path fill="none" stroke="#91c0f8" style="stroke: var(--color4, #91c0f8)" stroke-linejoin="miter" stroke-linecap="round" stroke-miterlimit="4" stroke-width="1.5" d="M12.951 23.058l-0.695 3.939"></path>
<path fill="none" stroke="#91c0f8" style="stroke: var(--color4, #91c0f8)" stroke-linejoin="miter" stroke-linecap="round" stroke-miterlimit="4" stroke-width="1.5" d="M15.587 22.508l-0.695 3.939"></path>
<path fill="none" stroke="#91c0f8" style="stroke: var(--color4, #91c0f8)" stroke-linejoin="miter" stroke-linecap="round" stroke-miterlimit="4" stroke-width="1.5" d="M17.962 23.434l-0.695 3.939"></path>
</symbol>
<symbol id="snowy-1" viewBox="0 0 32 32">
<path fill="none" stroke="#ffa500" style="stroke: var(--color1, #ffa500)" stroke-linejoin="miter" stroke-linecap="round" stroke-miterlimit="4" stroke-width="1" d="M10 18.4v1.8"></path>
<path fill="none" stroke="#ffa500" style="stroke: var(--color1, #ffa500)" stroke-linejoin="miter" stroke-linecap="round" stroke-miterlimit="4" stroke-width="1" d="M6.182 16.818l-1.273 1.273"></path>
<path fill="none" stroke="#ffa500" style="stroke: var(--color1, #ffa500)" stroke-linejoin="miter" stroke-linecap="round" stroke-miterlimit="4" stroke-width="1" d="M4.6 13h-1.8"></path>
<path fill="none" stroke="#ffa500" style="stroke: var(--color1, #ffa500)" stroke-linejoin="miter" stroke-linecap="round" stroke-miterlimit="4" stroke-width="1" d="M6.182 9.182l-1.273-1.273"></path>
<path fill="none" stroke="#ffa500" style="stroke: var(--color1, #ffa500)" stroke-linejoin="miter" stroke-linecap="round" stroke-miterlimit="4" stroke-width="1" d="M10 7.6v-1.8"></path>
<path fill="none" stroke="#ffa500" style="stroke: var(--color1, #ffa500)" stroke-linejoin="miter" stroke-linecap="round" stroke-miterlimit="4" stroke-width="1" d="M13.818 9.182l1.273-1.273"></path>
<path fill="none" stroke="#ffa500" style="stroke: var(--color1, #ffa500)" stroke-linejoin="miter" stroke-linecap="round" stroke-miterlimit="4" stroke-width="1" d="M15.4 13h1.8"></path>
<path fill="none" stroke="#ffa500" style="stroke: var(--color1, #ffa500)" stroke-linejoin="miter" stroke-linecap="round" stroke-miterlimit="4" stroke-width="1" d="M13.818 16.818l1.273 1.273"></path>
<path fill="#ffa500" style="fill: var(--color1, #ffa500); stroke: var(--color1, #ffa500)" stroke="#ffa500" stroke-linejoin="miter" stroke-linecap="butt" stroke-miterlimit="4" stroke-width="1" d="M13 13c0 1.657-1.343 3-3 3s-3-1.343-3-3c0-1.657 1.343-3 3-3s3 1.343 3 3z"></path>
<path fill="#57a0ee" style="fill: var(--color5, #57a0ee); stroke: var(--color3, #fff)" stroke="#fff" stroke-linejoin="round" stroke-linecap="butt" stroke-miterlimit="4" stroke-width="0.75" d="M22.773 17.545c0-1.955-1.573-3.485-3.485-3.485-0.425 0-0.808 0.085-1.19 0.213-0.128-1.445-1.317-2.635-2.805-2.635-1.572 0-2.848 1.275-2.848 2.848 0 0.34 0.085 0.68 0.17 0.977-0.127-0.043-0.297-0.043-0.425-0.043-1.572 0-2.848 1.275-2.848 2.848 0 1.53 1.232 2.805 2.763 2.848h7.31c1.87-0.212 3.358-1.7 3.358-3.57z"></path>
<path fill="none" stroke="#57a0ee" style="stroke: var(--color5, #57a0ee)" stroke-linejoin="miter" stroke-linecap="round" stroke-miterlimit="4" stroke-width="0.6" d="M13.5 21.75v2.5"></path>
<path fill="none" stroke="#57a0ee" style="stroke: var(--color5, #57a0ee)" stroke-linejoin="miter" stroke-linecap="round" stroke-miterlimit="4" stroke-width="0.5" d="M14.384 22.116l-1.768 1.768"></path>
<path fill="none" stroke="#57a0ee" style="stroke: var(--color5, #57a0ee)" stroke-linejoin="miter" stroke-linecap="round" stroke-miterlimit="4" stroke-width="0.5" d="M14.75 23h-2.5"></path>
<path fill="none" stroke="#57a0ee" style="stroke: var(--color5, #57a0ee)" stroke-linejoin="miter" stroke-linecap="round" stroke-miterlimit="4" stroke-width="0.5" d="M14.384 23.884l-1.768-1.768"></path>
<path fill="none" stroke="#57a0ee" style="stroke: var(--color5, #57a0ee)" stroke-linejoin="miter" stroke-linecap="round" stroke-miterlimit="4" stroke-width="0.6" d="M18 21.75v2.5"></path>
<path fill="none" stroke="#57a0ee" style="stroke: var(--color5, #57a0ee)" stroke-linejoin="miter" stroke-linecap="round" stroke-miterlimit="4" stroke-width="0.5" d="M18.884 22.116l-1.768 1.768"></path>
<path fill="none" stroke="#57a0ee" style="stroke: var(--color5, #57a0ee)" stroke-linejoin="miter" stroke-linecap="round" stroke-miterlimit="4" stroke-width="0.5" d="M19.25 23h-2.5"></path>
<path fill="none" stroke="#57a0ee" style="stroke: var(--color5, #57a0ee)" stroke-linejoin="miter" stroke-linecap="round" stroke-miterlimit="4" stroke-width="0.5" d="M18.884 23.884l-1.768-1.768"></path>
</symbol>
<symbol id="snowy-2" viewBox="0 0 32 32">
<path fill="none" stroke="#ffa500" style="stroke: var(--color1, #ffa500)" stroke-linejoin="miter" stroke-linecap="round" stroke-miterlimit="4" stroke-width="1" d="M10 17.5v1.5"></path>
<path fill="none" stroke="#ffa500" style="stroke: var(--color1, #ffa500)" stroke-linejoin="miter" stroke-linecap="round" stroke-miterlimit="4" stroke-width="1" d="M6.818 16.182l-1.061 1.061"></path>
<path fill="none" stroke="#ffa500" style="stroke: var(--color1, #ffa500)" stroke-linejoin="miter" stroke-linecap="round" stroke-miterlimit="4" stroke-width="1" d="M5.5 13h-1.5"></path>
<path fill="none" stroke="#ffa500" style="stroke: var(--color1, #ffa500)" stroke-linejoin="miter" stroke-linecap="round" stroke-miterlimit="4" stroke-width="1" d="M6.818 9.818l-1.061-1.061"></path>
<path fill="none" stroke="#ffa500" style="stroke: var(--color1, #ffa500)" stroke-linejoin="miter" stroke-linecap="round" stroke-miterlimit="4" stroke-width="1" d="M10 8.5v-1.5"></path>
<path fill="none" stroke="#ffa500" style="stroke: var(--color1, #ffa500)" stroke-linejoin="miter" stroke-linecap="round" stroke-miterlimit="4" stroke-width="1" d="M13.182 9.818l1.061-1.061"></path>
<path fill="none" stroke="#ffa500" style="stroke: var(--color1, #ffa500)" stroke-linejoin="miter" stroke-linecap="round" stroke-miterlimit="4" stroke-width="1" d="M14.5 13h1.5"></path>
<path fill="none" stroke="#ffa500" style="stroke: var(--color1, #ffa500)" stroke-linejoin="miter" stroke-linecap="round" stroke-miterlimit="4" stroke-width="1" d="M13.182 16.182l1.061 1.061"></path>
<path fill="#ffa500" style="fill: var(--color1, #ffa500); stroke: var(--color1, #ffa500)" stroke="#ffa500" stroke-linejoin="miter" stroke-linecap="butt" stroke-miterlimit="4" stroke-width="1" d="M12.5 13c0 1.381-1.119 2.5-2.5 2.5s-2.5-1.119-2.5-2.5c0-1.381 1.119-2.5 2.5-2.5s2.5 1.119 2.5 2.5z"></path>
<path fill="#57a0ee" style="fill: var(--color5, #57a0ee); stroke: var(--color3, #fff)" stroke="#fff" stroke-linejoin="round" stroke-linecap="butt" stroke-miterlimit="4" stroke-width="0.6" d="M23.85 17.2c0-2.3-1.85-4.1-4.1-4.1-0.5 0-0.95 0.1-1.4 0.25-0.15-1.7-1.55-3.1-3.3-3.1-1.85 0-3.35 1.5-3.35 3.35 0 0.4 0.1 0.8 0.2 1.15-0.15-0.050-0.35-0.050-0.5-0.050-1.85 0-3.35 1.5-3.35 3.35 0 1.8 1.45 3.3 3.25 3.35h8.6c2.2-0.25 3.95-2 3.95-4.2z"></path>
<path fill="none" stroke="#57a0ee" style="stroke: var(--color5, #57a0ee)" stroke-linejoin="miter" stroke-linecap="round" stroke-miterlimit="4" stroke-width="0.6" d="M16 22.25v2.5"></path>
<path fill="none" stroke="#57a0ee" style="stroke: var(--color5, #57a0ee)" stroke-linejoin="miter" stroke-linecap="round" stroke-miterlimit="4" stroke-width="0.5" d="M16.884 22.616l-1.768 1.768"></path>
<path fill="none" stroke="#57a0ee" style="stroke: var(--color5, #57a0ee)" stroke-linejoin="miter" stroke-linecap="round" stroke-miterlimit="4" stroke-width="0.5" d="M17.25 23.5h-2.5"></path>
<path fill="none" stroke="#57a0ee" style="stroke: var(--color5, #57a0ee)" stroke-linejoin="miter" stroke-linecap="round" stroke-miterlimit="4" stroke-width="0.5" d="M16.884 24.384l-1.768-1.768"></path>
</symbol>
<symbol id="snowy-3" viewBox="0 0 32 32">
<path fill="none" stroke="#ffa500" style="stroke: var(--color1, #ffa500)" stroke-linejoin="miter" stroke-linecap="round" stroke-miterlimit="4" stroke-width="1" d="M10 17.5v1.5"></path>
<path fill="none" stroke="#ffa500" style="stroke: var(--color1, #ffa500)" stroke-linejoin="miter" stroke-linecap="round" stroke-miterlimit="4" stroke-width="1" d="M6.818 16.182l-1.061 1.061"></path>
<path fill="none" stroke="#ffa500" style="stroke: var(--color1, #ffa500)" stroke-linejoin="miter" stroke-linecap="round" stroke-miterlimit="4" stroke-width="1" d="M5.5 13h-1.5"></path>
<path fill="none" stroke="#ffa500" style="stroke: var(--color1, #ffa500)" stroke-linejoin="miter" stroke-linecap="round" stroke-miterlimit="4" stroke-width="1" d="M6.818 9.818l-1.061-1.061"></path>
<path fill="none" stroke="#ffa500" style="stroke: var(--color1, #ffa500)" stroke-linejoin="miter" stroke-linecap="round" stroke-miterlimit="4" stroke-width="1" d="M10 8.5v-1.5"></path>
<path fill="none" stroke="#ffa500" style="stroke: var(--color1, #ffa500)" stroke-linejoin="miter" stroke-linecap="round" stroke-miterlimit="4" stroke-width="1" d="M13.182 9.818l1.061-1.061"></path>
<path fill="none" stroke="#ffa500" style="stroke: var(--color1, #ffa500)" stroke-linejoin="miter" stroke-linecap="round" stroke-miterlimit="4" stroke-width="1" d="M14.5 13h1.5"></path>
<path fill="none" stroke="#ffa500" style="stroke: var(--color1, #ffa500)" stroke-linejoin="miter" stroke-linecap="round" stroke-miterlimit="4" stroke-width="1" d="M13.182 16.182l1.061 1.061"></path>
<path fill="#ffa500" style="fill: var(--color1, #ffa500); stroke: var(--color1, #ffa500)" stroke="#ffa500" stroke-linejoin="miter" stroke-linecap="butt" stroke-miterlimit="4" stroke-width="1" d="M12.5 13c0 1.381-1.119 2.5-2.5 2.5s-2.5-1.119-2.5-2.5c0-1.381 1.119-2.5 2.5-2.5s2.5 1.119 2.5 2.5z"></path>
<path fill="#57a0ee" style="fill: var(--color5, #57a0ee); stroke: var(--color3, #fff)" stroke="#fff" stroke-linejoin="round" stroke-linecap="butt" stroke-miterlimit="4" stroke-width="0.6" d="M23.85 17.2c0-2.3-1.85-4.1-4.1-4.1-0.5 0-0.95 0.1-1.4 0.25-0.15-1.7-1.55-3.1-3.3-3.1-1.85 0-3.35 1.5-3.35 3.35 0 0.4 0.1 0.8 0.2 1.15-0.15-0.050-0.35-0.050-0.5-0.050-1.85 0-3.35 1.5-3.35 3.35 0 1.8 1.45 3.3 3.25 3.35h8.6c2.2-0.25 3.95-2 3.95-4.2z"></path>
<path fill="none" stroke="#57a0ee" style="stroke: var(--color5, #57a0ee)" stroke-linejoin="miter" stroke-linecap="round" stroke-miterlimit="4" stroke-width="0.6" d="M13.5 22.25v2.5"></path>
<path fill="none" stroke="#57a0ee" style="stroke: var(--color5, #57a0ee)" stroke-linejoin="miter" stroke-linecap="round" stroke-miterlimit="4" stroke-width="0.5" d="M14.384 22.616l-1.768 1.768"></path>
<path fill="none" stroke="#57a0ee" style="stroke: var(--color5, #57a0ee)" stroke-linejoin="miter" stroke-linecap="round" stroke-miterlimit="4" stroke-width="0.5" d="M14.75 23.5h-2.5"></path>
<path fill="none" stroke="#57a0ee" style="stroke: var(--color5, #57a0ee)" stroke-linejoin="miter" stroke-linecap="round" stroke-miterlimit="4" stroke-width="0.5" d="M14.384 24.384l-1.768-1.768"></path>
<path fill="none" stroke="#57a0ee" style="stroke: var(--color5, #57a0ee)" stroke-linejoin="miter" stroke-linecap="round" stroke-miterlimit="4" stroke-width="0.6" d="M18 22.25v2.5"></path>
<path fill="none" stroke="#57a0ee" style="stroke: var(--color5, #57a0ee)" stroke-linejoin="miter" stroke-linecap="round" stroke-miterlimit="4" stroke-width="0.5" d="M18.884 22.616l-1.768 1.768"></path>
<path fill="none" stroke="#57a0ee" style="stroke: var(--color5, #57a0ee)" stroke-linejoin="miter" stroke-linecap="round" stroke-miterlimit="4" stroke-width="0.5" d="M19.25 23.5h-2.5"></path>
<path fill="none" stroke="#57a0ee" style="stroke: var(--color5, #57a0ee)" stroke-linejoin="miter" stroke-linecap="round" stroke-miterlimit="4" stroke-width="0.5" d="M18.884 24.384l-1.768-1.768"></path>
</symbol>
<symbol id="snowy" viewBox="0 0 32 32">
<path fill="#57a0ee" style="fill: var(--color5, #57a0ee); stroke: var(--color3, #fff)" stroke="#fff" stroke-linejoin="round" stroke-linecap="butt" stroke-miterlimit="4" stroke-width="0.6" d="M23.85 17.2c0-2.3-1.85-4.1-4.1-4.1-0.5 0-0.95 0.1-1.4 0.25-0.15-1.7-1.55-3.1-3.3-3.1-1.85 0-3.35 1.5-3.35 3.35 0 0.4 0.1 0.8 0.2 1.15-0.15-0.050-0.35-0.050-0.5-0.050-1.85 0-3.35 1.5-3.35 3.35 0 1.8 1.45 3.3 3.25 3.35h8.6c2.2-0.25 3.95-2 3.95-4.2z"></path>
<path fill="none" stroke="#57a0ee" style="stroke: var(--color5, #57a0ee)" stroke-linejoin="miter" stroke-linecap="round" stroke-miterlimit="4" stroke-width="0.6" d="M11.5 22.25v2.5"></path>
<path fill="none" stroke="#57a0ee" style="stroke: var(--color5, #57a0ee)" stroke-linejoin="miter" stroke-linecap="round" stroke-miterlimit="4" stroke-width="0.5" d="M12.384 22.616l-1.768 1.768"></path>
<path fill="none" stroke="#57a0ee" style="stroke: var(--color5, #57a0ee)" stroke-linejoin="miter" stroke-linecap="round" stroke-miterlimit="4" stroke-width="0.5" d="M12.75 23.5h-2.5"></path>
<path fill="none" stroke="#57a0ee" style="stroke: var(--color5, #57a0ee)" stroke-linejoin="miter" stroke-linecap="round" stroke-miterlimit="4" stroke-width="0.5" d="M12.384 24.384l-1.768-1.768"></path>
<path fill="none" stroke="#57a0ee" style="stroke: var(--color5, #57a0ee)" stroke-linejoin="miter" stroke-linecap="round" stroke-miterlimit="4" stroke-width="0.6" d="M15.5 22.25v2.5"></path>
<path fill="none" stroke="#57a0ee" style="stroke: var(--color5, #57a0ee)" stroke-linejoin="miter" stroke-linecap="round" stroke-miterlimit="4" stroke-width="0.5" d="M16.384 22.616l-1.768 1.768"></path>
<path fill="none" stroke="#57a0ee" style="stroke: var(--color5, #57a0ee)" stroke-linejoin="miter" stroke-linecap="round" stroke-miterlimit="4" stroke-width="0.5" d="M16.75 23.5h-2.5"></path>
<path fill="none" stroke="#57a0ee" style="stroke: var(--color5, #57a0ee)" stroke-linejoin="miter" stroke-linecap="round" stroke-miterlimit="4" stroke-width="0.5" d="M16.384 24.384l-1.768-1.768"></path>
<path fill="none" stroke="#57a0ee" style="stroke: var(--color5, #57a0ee)" stroke-linejoin="miter" stroke-linecap="round" stroke-miterlimit="4" stroke-width="0.6" d="M20 22.25v2.5"></path>
<path fill="none" stroke="#57a0ee" style="stroke: var(--color5, #57a0ee)" stroke-linejoin="miter" stroke-linecap="round" stroke-miterlimit="4" stroke-width="0.5" d="M20.884 22.616l-1.768 1.768"></path>
<path fill="none" stroke="#57a0ee" style="stroke: var(--color5, #57a0ee)" stroke-linejoin="miter" stroke-linecap="round" stroke-miterlimit="4" stroke-width="0.5" d="M21.25 23.5h-2.5"></path>
<path fill="none" stroke="#57a0ee" style="stroke: var(--color5, #57a0ee)" stroke-linejoin="miter" stroke-linecap="round" stroke-miterlimit="4" stroke-width="0.5" d="M20.884 24.384l-1.768-1.768"></path>
</symbol>
<symbol id="thunder" viewBox="0 0 32 32">
<path fill="#91c0f8" style="fill: var(--color4, #91c0f8); stroke: var(--color3, #fff)" stroke="#fff" stroke-linejoin="round" stroke-linecap="butt" stroke-miterlimit="4" stroke-width="0.6" d="M19.31 12.62c0-1.38-1.11-2.46-2.46-2.46-0.3 0-0.57 0.060-0.84 0.15-0.090-1.020-0.93-1.86-1.98-1.86-1.11 0-2.010 0.9-2.010 2.010 0 0.24 0.060 0.48 0.12 0.69-0.090-0.030-0.21-0.030-0.3-0.030-1.11 0-2.010 0.9-2.010 2.010 0 1.080 0.87 1.98 1.95 2.010h5.16c1.32-0.15 2.37-1.2 2.37-2.52z"></path>
<path fill="#57a0ee" style="fill: var(--color5, #57a0ee); stroke: var(--color3, #fff)" stroke="#fff" stroke-linejoin="round" stroke-linecap="butt" stroke-miterlimit="4" stroke-width="0.6" d="M23.85 17.2c0-2.3-1.85-4.1-4.1-4.1-0.5 0-0.95 0.1-1.4 0.25-0.15-1.7-1.55-3.1-3.3-3.1-1.85 0-3.35 1.5-3.35 3.35 0 0.4 0.1 0.8 0.2 1.15-0.15-0.050-0.35-0.050-0.5-0.050-1.85 0-3.35 1.5-3.35 3.35 0 1.8 1.45 3.3 3.25 3.35h8.6c2.2-0.25 3.95-2 3.95-4.2z"></path>
<path fill="#ffa500" style="fill: var(--color1, #ffa500); stroke: var(--color3, #fff)" stroke="#fff" stroke-linejoin="miter" stroke-linecap="butt" stroke-miterlimit="4" stroke-width="0.5" d="M14.080 17.26h3.72l-2.46 4.32h2.34l-5.28 6.18 2.040-4.62h-2.28z"></path>
</symbol>
<symbol id="weather" viewBox="0 0 32 32">
<path fill="#91c0f8" style="fill: var(--color4, #91c0f8); stroke: var(--color3, #fff)" stroke="#fff" stroke-linejoin="round" stroke-linecap="butt" stroke-miterlimit="4" stroke-width="0.6" d="M19.31 12.62c0-1.38-1.11-2.46-2.46-2.46-0.3 0-0.57 0.060-0.84 0.15-0.090-1.020-0.93-1.86-1.98-1.86-1.11 0-2.010 0.9-2.010 2.010 0 0.24 0.060 0.48 0.12 0.69-0.090-0.030-0.21-0.030-0.3-0.030-1.11 0-2.010 0.9-2.010 2.010 0 1.080 0.87 1.98 1.95 2.010h5.16c1.32-0.15 2.37-1.2 2.37-2.52z"></path>
<path fill="#ffa500" style="fill: var(--color1, #ffa500); stroke: var(--color3, #fff)" stroke="#fff" stroke-linejoin="miter" stroke-linecap="butt" stroke-miterlimit="4" stroke-width="0.5" d="M14.080 17.26h3.72l-2.46 4.32h2.34l-5.28 6.18 2.040-4.62h-2.28z"></path>
<path fill="none" stroke="#ffa500" style="stroke: var(--color1, #ffa500)" stroke-linejoin="miter" stroke-linecap="round" stroke-miterlimit="4" stroke-width="1" d="M16 20.5v1.5"></path>
<path fill="none" stroke="#ffa500" style="stroke: var(--color1, #ffa500)" stroke-linejoin="miter" stroke-linecap="round" stroke-miterlimit="4" stroke-width="1" d="M12.818 19.182l-1.061 1.061"></path>
<path fill="none" stroke="#ffa500" style="stroke: var(--color1, #ffa500)" stroke-linejoin="miter" stroke-linecap="round" stroke-miterlimit="4" stroke-width="1" d="M11.5 16h-1.5"></path>
<path fill="none" stroke="#ffa500" style="stroke: var(--color1, #ffa500)" stroke-linejoin="miter" stroke-linecap="round" stroke-miterlimit="4" stroke-width="1" d="M12.818 12.818l-1.061-1.061"></path>
<path fill="none" stroke="#ffa500" style="stroke: var(--color1, #ffa500)" stroke-linejoin="miter" stroke-linecap="round" stroke-miterlimit="4" stroke-width="1" d="M16 11.5v-1.5"></path>
<path fill="none" stroke="#ffa500" style="stroke: var(--color1, #ffa500)" stroke-linejoin="miter" stroke-linecap="round" stroke-miterlimit="4" stroke-width="1" d="M19.182 12.818l1.061-1.061"></path>
<path fill="none" stroke="#ffa500" style="stroke: var(--color1, #ffa500)" stroke-linejoin="miter" stroke-linecap="round" stroke-miterlimit="4" stroke-width="1" d="M20.5 16h1.5"></path>
<path fill="none" stroke="#ffa500" style="stroke: var(--color1, #ffa500)" stroke-linejoin="miter" stroke-linecap="round" stroke-miterlimit="4" stroke-width="1" d="M19.182 19.182l1.061 1.061"></path>
<path fill="#ffa500" style="fill: var(--color1, #ffa500); stroke: var(--color1, #ffa500)" stroke="#ffa500" stroke-linejoin="miter" stroke-linecap="butt" stroke-miterlimit="4" stroke-width="1" d="M18.5 16c0 1.381-1.119 2.5-2.5 2.5s-2.5-1.119-2.5-2.5c0-1.381 1.119-2.5 2.5-2.5s2.5 1.119 2.5 2.5z"></path>
<path fill="#ffa500" style="fill: var(--color1, #ffa500)" d="M11.65 10.75l0.35 0.6 0.6 0.3-0.6 0.35-0.35 0.6-0.3-0.6-0.6-0.35 0.6-0.3z"></path>
<path fill="#ffa500" style="fill: var(--color1, #ffa500)" d="M21.65 15.75l0.35 0.6 0.6 0.3-0.6 0.35-0.35 0.6-0.3-0.6-0.6-0.35 0.6-0.3z"></path>
<path fill="#ffa500" style="fill: var(--color1, #ffa500); stroke: var(--color1, #ffa500)" stroke="#ffa500" stroke-linejoin="round" stroke-linecap="butt" stroke-miterlimit="4" stroke-width="1" d="M17.25 16.6c0-1.85 1-3.45 2.5-4.35-0.75-0.45-1.6-0.65-2.5-0.65-2.75 0-5 2.25-5 5s2.25 5 5 5c0.9 0 1.75-0.25 2.5-0.65-1.5-0.85-2.5-2.5-2.5-4.35z"></path>
<path fill="none" stroke="#91c0f8" style="stroke: var(--color4, #91c0f8)" stroke-linejoin="miter" stroke-linecap="round" stroke-miterlimit="4" stroke-width="1" d="M15.587 22.508l-0.695 3.939"></path>
<path fill="none" stroke="#ffa500" style="stroke: var(--color1, #ffa500)" stroke-linejoin="miter" stroke-linecap="round" stroke-miterlimit="4" stroke-width="1" d="M10 7.6v-1.8"></path>
<path fill="none" stroke="#ffa500" style="stroke: var(--color1, #ffa500)" stroke-linejoin="miter" stroke-linecap="round" stroke-miterlimit="4" stroke-width="1" d="M13.818 9.182l1.273-1.273"></path>
<path fill="none" stroke="#ffa500" style="stroke: var(--color1, #ffa500)" stroke-linejoin="miter" stroke-linecap="round" stroke-miterlimit="4" stroke-width="1" d="M15.4 13h1.8"></path>
<path fill="none" stroke="#ffa500" style="stroke: var(--color1, #ffa500)" stroke-linejoin="miter" stroke-linecap="round" stroke-miterlimit="4" stroke-width="1" d="M13.818 16.818l1.273 1.273"></path>
<path fill="#ffa500" style="fill: var(--color1, #ffa500); stroke: var(--color1, #ffa500)" stroke="#ffa500" stroke-linejoin="miter" stroke-linecap="butt" stroke-miterlimit="4" stroke-width="1" d="M13 13c0 1.657-1.343 3-3 3s-3-1.343-3-3c0-1.657 1.343-3 3-3s3 1.343 3 3z"></path>
<path fill="#57a0ee" style="fill: var(--color5, #57a0ee); stroke: var(--color3, #fff)" stroke="#fff" stroke-linejoin="round" stroke-linecap="butt" stroke-miterlimit="4" stroke-width="0.75" d="M22.773 17.545c0-1.955-1.573-3.485-3.485-3.485-0.425 0-0.808 0.085-1.19 0.213-0.128-1.445-1.317-2.635-2.805-2.635-1.572 0-2.848 1.275-2.848 2.848 0 0.34 0.085 0.68 0.17 0.977-0.127-0.043-0.297-0.043-0.425-0.043-1.572 0-2.848 1.275-2.848 2.848 0 1.53 1.232 2.805 2.763 2.848h7.31c1.87-0.212 3.358-1.7 3.358-3.57z"></path>
<path fill="none" stroke="#57a0ee" style="stroke: var(--color5, #57a0ee)" stroke-linejoin="miter" stroke-linecap="round" stroke-miterlimit="4" stroke-width="0.6" d="M13.5 21.75v2.5"></path>
<path fill="none" stroke="#57a0ee" style="stroke: var(--color5, #57a0ee)" stroke-linejoin="miter" stroke-linecap="round" stroke-miterlimit="4" stroke-width="0.5" d="M14.384 22.116l-1.768 1.768"></path>
<path fill="none" stroke="#57a0ee" style="stroke: var(--color5, #57a0ee)" stroke-linejoin="miter" stroke-linecap="round" stroke-miterlimit="4" stroke-width="0.5" d="M14.75 23h-2.5"></path>
<path fill="none" stroke="#57a0ee" style="stroke: var(--color5, #57a0ee)" stroke-linejoin="miter" stroke-linecap="round" stroke-miterlimit="4" stroke-width="0.5" d="M14.384 23.884l-1.768-1.768"></path>
<path fill="none" stroke="#57a0ee" style="stroke: var(--color5, #57a0ee)" stroke-linejoin="miter" stroke-linecap="round" stroke-miterlimit="4" stroke-width="0.6" d="M18 21.75v2.5"></path>
<path fill="none" stroke="#57a0ee" style="stroke: var(--color5, #57a0ee)" stroke-linejoin="miter" stroke-linecap="round" stroke-miterlimit="4" stroke-width="0.5" d="M18.884 22.116l-1.768 1.768"></path>
<path fill="none" stroke="#57a0ee" style="stroke: var(--color5, #57a0ee)" stroke-linejoin="miter" stroke-linecap="round" stroke-miterlimit="4" stroke-width="0.5" d="M19.25 23h-2.5"></path>
<path fill="none" stroke="#57a0ee" style="stroke: var(--color5, #57a0ee)" stroke-linejoin="miter" stroke-linecap="round" stroke-miterlimit="4" stroke-width="0.5" d="M18.884 23.884l-1.768-1.768"></path>
<path fill="none" stroke="#ffa500" style="stroke: var(--color1, #ffa500)" stroke-linejoin="miter" stroke-linecap="round" stroke-miterlimit="4" stroke-width="1" d="M6.818 16.182l-1.061 1.061"></path>
<path fill="none" stroke="#ffa500" style="stroke: var(--color1, #ffa500)" stroke-linejoin="miter" stroke-linecap="round" stroke-miterlimit="4" stroke-width="1" d="M6.818 9.818l-1.061-1.061"></path>
<path fill="none" stroke="#ffa500" style="stroke: var(--color1, #ffa500)" stroke-linejoin="miter" stroke-linecap="round" stroke-miterlimit="4" stroke-width="1" d="M10 17.5v1.5"></path>
<path fill="none" stroke="#ffa500" style="stroke: var(--color1, #ffa500)" stroke-linejoin="miter" stroke-linecap="round" stroke-miterlimit="4" stroke-width="1" d="M10 8.5v-1.5"></path>
<path fill="none" stroke="#ffa500" style="stroke: var(--color1, #ffa500)" stroke-linejoin="miter" stroke-linecap="round" stroke-miterlimit="4" stroke-width="1" d="M13.182 9.818l1.061-1.061"></path>
<path fill="none" stroke="#ffa500" style="stroke: var(--color1, #ffa500)" stroke-linejoin="miter" stroke-linecap="round" stroke-miterlimit="4" stroke-width="1" d="M14.5 13h1.5"></path>
<path fill="none" stroke="#ffa500" style="stroke: var(--color1, #ffa500)" stroke-linejoin="miter" stroke-linecap="round" stroke-miterlimit="4" stroke-width="1" d="M13.182 16.182l1.061 1.061"></path>
<path fill="#ffa500" style="fill: var(--color1, #ffa500); stroke: var(--color1, #ffa500)" stroke="#ffa500" stroke-linejoin="miter" stroke-linecap="butt" stroke-miterlimit="4" stroke-width="1" d="M12.5 13c0 1.381-1.119 2.5-2.5 2.5s-2.5-1.119-2.5-2.5c0-1.381 1.119-2.5 2.5-2.5s2.5 1.119 2.5 2.5z"></path>
<path fill="none" stroke="#57a0ee" style="stroke: var(--color5, #57a0ee)" stroke-linejoin="miter" stroke-linecap="round" stroke-miterlimit="4" stroke-width="0.5" d="M14.384 22.616l-1.768 1.768"></path>
<path fill="none" stroke="#57a0ee" style="stroke: var(--color5, #57a0ee)" stroke-linejoin="miter" stroke-linecap="round" stroke-miterlimit="4" stroke-width="0.5" d="M18.884 22.616l-1.768 1.768"></path>
<path fill="none" stroke="#57a0ee" style="stroke: var(--color5, #57a0ee)" stroke-linejoin="miter" stroke-linecap="round" stroke-miterlimit="4" stroke-width="0.5" d="M14.384 24.384l-1.768-1.768"></path>
<path fill="none" stroke="#57a0ee" style="stroke: var(--color5, #57a0ee)" stroke-linejoin="miter" stroke-linecap="round" stroke-miterlimit="4" stroke-width="0.6" d="M18 22.25v2.5"></path>
<path fill="none" stroke="#57a0ee" style="stroke: var(--color5, #57a0ee)" stroke-linejoin="miter" stroke-linecap="round" stroke-miterlimit="4" stroke-width="0.5" d="M19.25 23.5h-2.5"></path>
<path fill="#57a0ee" style="fill: var(--color5, #57a0ee); stroke: var(--color3, #fff)" stroke="#fff" stroke-linejoin="round" stroke-linecap="butt" stroke-miterlimit="4" stroke-width="0.6" d="M23.85 17.2c0-2.3-1.85-4.1-4.1-4.1-0.5 0-0.95 0.1-1.4 0.25-0.15-1.7-1.55-3.1-3.3-3.1-1.85 0-3.35 1.5-3.35 3.35 0 0.4 0.1 0.8 0.2 1.15-0.15-0.050-0.35-0.050-0.5-0.050-1.85 0-3.35 1.5-3.35 3.35 0 1.8 1.45 3.3 3.25 3.35h8.6c2.2-0.25 3.95-2 3.95-4.2z"></path>
<path fill="none" stroke="#57a0ee" style="stroke: var(--color5, #57a0ee)" stroke-linejoin="miter" stroke-linecap="round" stroke-miterlimit="4" stroke-width="0.6" d="M11.5 22.25v2.5"></path>
<path fill="none" stroke="#57a0ee" style="stroke: var(--color5, #57a0ee)" stroke-linejoin="miter" stroke-linecap="round" stroke-miterlimit="4" stroke-width="0.5" d="M12.384 22.616l-1.768 1.768"></path>
<path fill="none" stroke="#57a0ee" style="stroke: var(--color5, #57a0ee)" stroke-linejoin="miter" stroke-linecap="round" stroke-miterlimit="4" stroke-width="0.5" d="M12.75 23.5h-2.5"></path>
<path fill="none" stroke="#57a0ee" style="stroke: var(--color5, #57a0ee)" stroke-linejoin="miter" stroke-linecap="round" stroke-miterlimit="4" stroke-width="0.5" d="M12.384 24.384l-1.768-1.768"></path>
<path fill="none" stroke="#57a0ee" style="stroke: var(--color5, #57a0ee)" stroke-linejoin="miter" stroke-linecap="round" stroke-miterlimit="4" stroke-width="0.6" d="M15.5 22.25v2.5"></path>
<path fill="none" stroke="#57a0ee" style="stroke: var(--color5, #57a0ee)" stroke-linejoin="miter" stroke-linecap="round" stroke-miterlimit="4" stroke-width="0.5" d="M16.384 22.616l-1.768 1.768"></path>
<path fill="none" stroke="#57a0ee" style="stroke: var(--color5, #57a0ee)" stroke-linejoin="miter" stroke-linecap="round" stroke-miterlimit="4" stroke-width="0.5" d="M16.75 23.5h-2.5"></path>
<path fill="none" stroke="#57a0ee" style="stroke: var(--color5, #57a0ee)" stroke-linejoin="miter" stroke-linecap="round" stroke-miterlimit="4" stroke-width="0.5" d="M16.384 24.384l-1.768-1.768"></path>
<path fill="none" stroke="#57a0ee" style="stroke: var(--color5, #57a0ee)" stroke-linejoin="miter" stroke-linecap="round" stroke-miterlimit="4" stroke-width="0.6" d="M20 22.25v2.5"></path>
<path fill="none" stroke="#57a0ee" style="stroke: var(--color5, #57a0ee)" stroke-linejoin="miter" stroke-linecap="round" stroke-miterlimit="4" stroke-width="0.5" d="M20.884 22.616l-1.768 1.768"></path>
<path fill="none" stroke="#57a0ee" style="stroke: var(--color5, #57a0ee)" stroke-linejoin="miter" stroke-linecap="round" stroke-miterlimit="4" stroke-width="0.5" d="M21.25 23.5h-2.5"></path>
<path fill="none" stroke="#57a0ee" style="stroke: var(--color5, #57a0ee)" stroke-linejoin="miter" stroke-linecap="round" stroke-miterlimit="4" stroke-width="0.5" d="M20.884 24.384l-1.768-1.768"></path>
</symbol>
<symbol id="logo" viewBox="0 0 66 32">
<path fill="#fbfbfb" style="fill: var(--color1, #fbfbfb)" opacity="0.75" d="M6.601 15.261c-0.361 0-0.683-0.029-0.965-0.088-0.273-0.059-0.488-0.117-0.644-0.176l-0.219-0.088-0.059-0.117c0.020-0.127 0.039-0.307 0.059-0.541 0.029-0.244 0.053-0.497 0.073-0.761 0.029-0.263 0.044-0.478 0.044-0.644l0.644-0.073c0.010 0.576 0.122 0.99 0.336 1.243s0.561 0.38 1.039 0.38c0.322 0 0.595-0.073 0.819-0.219s0.336-0.327 0.336-0.541c0-0.146-0.044-0.283-0.132-0.41s-0.249-0.263-0.483-0.41c-0.224-0.156-0.551-0.336-0.98-0.541-0.566-0.283-0.98-0.576-1.243-0.878-0.254-0.302-0.38-0.639-0.38-1.009 0-0.419 0.122-0.79 0.366-1.112s0.581-0.576 1.009-0.761c0.439-0.185 0.927-0.278 1.463-0.278 0.439 0 0.805 0.044 1.097 0.132l0.454 0.117 0.044 0.102-0.059 0.263c-0.029 0.176-0.069 0.4-0.117 0.673-0.033 0.209-0.069 0.515-0.097 0.823l-0.005 0.069-0.673 0.059 0.015-0.132c0.010-0.088 0.015-0.161 0.015-0.219 0-0.351-0.093-0.605-0.278-0.761-0.176-0.166-0.454-0.249-0.834-0.249-0.302 0-0.556 0.073-0.761 0.219-0.205 0.137-0.307 0.307-0.307 0.512 0 0.215 0.088 0.415 0.263 0.6 0.185 0.176 0.483 0.37 0.892 0.585 0.546 0.263 0.971 0.507 1.273 0.731 0.302 0.215 0.512 0.429 0.629 0.644 0.127 0.215 0.19 0.454 0.19 0.717 0 0.39-0.127 0.751-0.38 1.082-0.254 0.322-0.595 0.581-1.024 0.775-0.429 0.185-0.902 0.278-1.419 0.278zM16.216 14.501c0.263-0.069 0.454-0.171 0.57-0.307 0.117-0.146 0.18-0.341 0.19-0.585l0.044-2.736c0-0.459-0.093-0.805-0.278-1.039-0.186-0.244-0.459-0.366-0.819-0.366-0.195 0-0.4 0.044-0.614 0.132-0.213 0.081-0.396 0.174-0.567 0.285l0.012-0.007c-0.166 0.097-0.297 0.185-0.395 0.263-0.010 0.254-0.025 0.551-0.044 0.892-0.012 0.411-0.028 0.767-0.049 1.123l0.005-0.099c-0.010 0.341-0.020 0.654-0.029 0.936-0.007 0.171-0.013 0.381-0.015 0.591l-0 0.008c0 0.273 0.034 0.468 0.102 0.585 0.078 0.107 0.205 0.161 0.38 0.161 0.078 0 0.171-0.005 0.278-0.015l0.176-0.015 0.044 0.059-0.146 0.761-0.249-0.015c-0.109-0.008-0.307-0.018-0.506-0.027l-0.064-0.002h-1.302c-0.3 0.011-0.518 0.022-0.737 0.034l0.108-0.005-0.249 0.015 0.102-0.746c0.283-0.029 0.478-0.097 0.585-0.205 0.117-0.117 0.176-0.312 0.176-0.585v-3.365c0-0.331-0.054-0.561-0.161-0.688s-0.293-0.19-0.556-0.19h-0.176l-0.044-0.073 0.059-0.6c0.38-0.069 0.746-0.132 1.097-0.19 0.361-0.069 0.654-0.127 0.878-0.176l0.351-0.088 0.117 0.132-0.073 0.307c-0.049 0.195-0.085 0.425-0.102 0.66l-0.001 0.013 0.044 0.044c0.097-0.069 0.239-0.166 0.424-0.293 0.185-0.137 0.38-0.268 0.585-0.395 0.168-0.116 0.36-0.224 0.562-0.313l0.023-0.009c0.185-0.088 0.336-0.132 0.454-0.132 0.497 0 0.917 0.102 1.258 0.307 0.331 0.197 0.58 0.502 0.699 0.867l0.003 0.011c0.078-0.069 0.205-0.166 0.38-0.293 0.176-0.137 0.37-0.268 0.585-0.395 0.224-0.137 0.434-0.254 0.629-0.351 0.205-0.097 0.37-0.146 0.497-0.146 0.644 0 1.151 0.171 1.521 0.512 0.38 0.331 0.57 0.79 0.57 1.375 0 0.137-0.015 0.356-0.044 0.658-0.020 0.293-0.049 0.619-0.088 0.98-0.029 0.361-0.054 0.707-0.073 1.039-0.020 0.322-0.029 0.581-0.029 0.775 0 0.283 0.039 0.483 0.117 0.6s0.205 0.176 0.38 0.176c0.088 0 0.19-0.005 0.307-0.015l0.176-0.015 0.029 0.059-0.146 0.746-0.146-0.015c-0.098 0-0.224-0.005-0.38-0.015-0.146 0-0.303-0.005-0.468-0.015h-0.454c-0.146 0-0.307 0.005-0.483 0.015l-0.483 0.029c-0.156 0.010-0.288 0.015-0.395 0.015l-0.146 0.015 0.088-0.731c0.253-0.039 0.434-0.117 0.541-0.234 0.107-0.127 0.166-0.322 0.176-0.585l0.044-2.736c0-0.459-0.093-0.805-0.278-1.039-0.186-0.244-0.459-0.366-0.819-0.366-0.195 0-0.395 0.039-0.6 0.117-0.195 0.069-0.376 0.156-0.541 0.263-0.166 0.097-0.297 0.185-0.395 0.263l-0.176 3.467c0 0.273 0.034 0.473 0.102 0.6 0.078 0.117 0.205 0.176 0.38 0.176 0.088 0 0.185-0.005 0.293-0.015l0.176-0.015 0.029 0.059-0.132 0.746-0.146-0.015c-0.088 0-0.205-0.005-0.351-0.015-0.146 0-0.303-0.005-0.468-0.015h-0.439c-0.146 0-0.312 0.005-0.497 0.015-0.176 0.020-0.346 0.039-0.512 0.059-0.156 0.020-0.288 0.034-0.395 0.044l-0.161 0.029 0.073-0.731zM30.698 15.261c-0.409 0-0.731-0.097-0.965-0.293s-0.371-0.483-0.41-0.863l-0.087-0.029c-0.215 0.215-0.43 0.41-0.644 0.585-0.205 0.166-0.39 0.297-0.556 0.395s-0.303 0.146-0.41 0.146c-0.37 0-0.702-0.083-0.994-0.249-0.288-0.172-0.521-0.41-0.683-0.693l-0.005-0.009c-0.166-0.293-0.248-0.624-0.248-0.995 0-0.293 0.073-0.546 0.219-0.761 0.146-0.224 0.341-0.37 0.585-0.439l2.794-0.717 0.015-0.512c0-0.448-0.112-0.8-0.336-1.053-0.215-0.263-0.527-0.395-0.936-0.395-0.273 0-0.566 0.069-0.878 0.205-0.303 0.127-0.59 0.297-0.864 0.512l-0.087-0.059-0.219-0.731c0.202-0.12 0.499-0.281 0.8-0.434l0.106-0.049c0.248-0.13 0.556-0.268 0.873-0.389l0.063-0.021c0.303-0.117 0.532-0.176 0.688-0.176 0.487 0 0.892 0.083 1.214 0.249 0.331 0.156 0.58 0.38 0.746 0.673 0.166 0.283 0.249 0.619 0.249 1.009 0 0.127-0.015 0.327-0.044 0.6s-0.063 0.576-0.102 0.907c-0.039 0.331-0.073 0.654-0.102 0.966-0.016 0.214-0.027 0.469-0.029 0.726l-0 0.006c0 0.205 0.049 0.366 0.146 0.483 0.107 0.107 0.249 0.161 0.424 0.161 0.146 0 0.293-0.034 0.439-0.102 0.156-0.078 0.273-0.151 0.352-0.219l0.219 0.278c-0.088 0.146-0.205 0.312-0.351 0.497-0.137 0.176-0.293 0.336-0.469 0.483-0.166 0.146-0.336 0.249-0.512 0.307zM28.006 14.032c0.166 0 0.361-0.053 0.585-0.161 0.224-0.117 0.429-0.258 0.614-0.424l0.058-1.434-1.8 0.512c-0.253 0.078-0.38 0.263-0.38 0.556 0 0.263 0.082 0.488 0.249 0.673 0.175 0.185 0.4 0.278 0.672 0.278zM34.335 14.427c0.293-0.029 0.487-0.117 0.585-0.263 0.097-0.156 0.146-0.443 0.146-0.863v-3.072c0-0.331-0.044-0.561-0.132-0.688-0.088-0.137-0.239-0.205-0.453-0.205-0.069 0-0.137 0.010-0.205 0.029l-0.088 0.015-0.073-0.102 0.059-0.585c0.361-0.069 0.712-0.137 1.053-0.205 0.351-0.069 0.644-0.127 0.878-0.176l0.351-0.088 0.117 0.102-0.044 0.234c-0.020 0.146-0.039 0.331-0.059 0.556-0.020 0.215-0.029 0.434-0.029 0.658l0.059 0.044c0.312-0.448 0.654-0.809 1.024-1.082 0.38-0.283 0.727-0.424 1.039-0.424 0.156 0 0.273 0.010 0.351 0.029l0.132 0.029 0.044 0.088-0.029 0.219c-0.046 0.329-0.077 0.518-0.109 0.707l0.022-0.151c-0.015 0.082-0.046 0.348-0.074 0.615l-0.014 0.161c-0.020 0.273-0.039 0.536-0.059 0.79l-0.731 0.044c0-0.429-0.025-0.712-0.073-0.848s-0.161-0.205-0.336-0.205c-0.186 0-0.385 0.073-0.6 0.219-0.205 0.146-0.4 0.351-0.585 0.614l-0.015 0.263c-0.010 0.176-0.020 0.4-0.029 0.673-0.013 0.334-0.028 0.619-0.049 0.902l0.005-0.083c-0.010 0.283-0.020 0.532-0.029 0.746s-0.015 0.351-0.015 0.41c0 0.293 0.044 0.497 0.132 0.614 0.097 0.107 0.268 0.161 0.512 0.161 0.127 0 0.273-0.005 0.439-0.015l0.249-0.029 0.029 0.073-0.146 0.79-0.176-0.015c-0.107 0-0.249-0.005-0.424-0.015-0.176 0-0.361-0.005-0.556-0.015h-0.512c-0.293 0-0.566 0.005-0.819 0.015-0.344 0.012-0.639 0.028-0.933 0.049l0.084-0.005 0.088-0.717zM43.85 15.261c-0.673 0-1.16-0.137-1.463-0.41-0.293-0.283-0.439-0.741-0.439-1.375v-3.452c0-0.273-0.059-0.463-0.176-0.57-0.107-0.107-0.322-0.166-0.644-0.176l-0.088-0.102 0.073-0.556c0.324-0.162 0.582-0.308 0.834-0.464l-0.044 0.025c0.273-0.177 0.492-0.331 0.706-0.492l-0.033 0.024c0.205-0.156 0.361-0.283 0.468-0.38l0.176-0.146 0.351 0.146-0.044 0.307c-0.027 0.174-0.064 0.475-0.094 0.777l-0.008 0.1 1.96-0.044 0.059 0.044-0.146 0.878-1.931-0.044c-0.029 0.439-0.053 0.946-0.073 1.521-0.019 0.545-0.029 1.185-0.029 1.827 0 0.031 0 0.063 0 0.094v-0.005c0 0.459 0.078 0.79 0.234 0.995 0.166 0.195 0.439 0.293 0.819 0.293 0.224 0 0.434-0.039 0.629-0.117l0.307-0.132 0.161 0.424-0.19 0.161c-0.117 0.097-0.268 0.215-0.453 0.351-0.176 0.127-0.351 0.239-0.527 0.336-0.166 0.107-0.297 0.161-0.395 0.161zM47.772 18.611c-0.049 0-0.122-0.039-0.219-0.117-0.1-0.091-0.191-0.186-0.274-0.288l-0.004-0.005c-0.078-0.094-0.155-0.199-0.226-0.309l-0.008-0.013c-0.068-0.107-0.102-0.19-0.102-0.249l0.088-0.146c0.595-0.020 1.126-0.239 1.595-0.658 0.478-0.419 0.883-0.98 1.214-1.682-0.097-0.293-0.21-0.619-0.336-0.98-0.18-0.58-0.314-0.964-0.457-1.344l0.062 0.188-0.41-1.2c-0.137-0.4-0.268-0.775-0.395-1.126-0.151-0.43-0.27-0.729-0.396-1.025l0.045 0.118c-0.097-0.244-0.224-0.415-0.38-0.512-0.146-0.097-0.331-0.151-0.556-0.161l-0.029-0.059 0.088-0.644h0.263c0.146 0 0.307 0.005 0.483 0.015h0.439c0.234 0 0.463-0.005 0.688-0.015 0.234-0.010 0.444-0.020 0.629-0.029 0.195-0.020 0.351-0.034 0.468-0.044l0.176-0.015 0.029 0.073-0.102 0.629c-0.302 0.010-0.507 0.044-0.614 0.102-0.107 0.049-0.161 0.137-0.161 0.263 0 0.088 0.029 0.249 0.088 0.483 0.059 0.224 0.132 0.492 0.219 0.805 0.088 0.302 0.181 0.619 0.278 0.951 0.097 0.322 0.19 0.624 0.278 0.907 0.088 0.273 0.161 0.497 0.219 0.673l0.088 0.263h0.088c0.166-0.39 0.336-0.805 0.512-1.243s0.336-0.858 0.483-1.258c0.156-0.4 0.283-0.741 0.38-1.024 0.107-0.283 0.161-0.459 0.161-0.527 0-0.127-0.039-0.215-0.117-0.263-0.078-0.059-0.21-0.088-0.395-0.088h-0.585l-0.029-0.059 0.102-0.644 0.234 0.015c0.156 0.010 0.351 0.020 0.585 0.029 0.209 0.009 0.455 0.015 0.702 0.015h0.527c0.185-0.010 0.346-0.015 0.483-0.015h0.278l-0.102 0.702c-0.214 0.039-0.375 0.112-0.483 0.219s-0.21 0.293-0.307 0.556l-1.858 4.476c-0.342 0.819-0.653 1.502-0.936 2.048-0.273 0.556-0.541 0.995-0.805 1.317-0.254 0.331-0.517 0.566-0.79 0.702-0.263 0.137-0.561 0.2-0.892 0.19z"></path>
<path fill="#fbfbfb" style="fill: var(--color1, #fbfbfb)" d="M11.253 23.49l-0.077-0.263c-0.101-0.41-0.169-0.653-0.241-0.893l0.043 0.169c-0.344-1.355-0.566-2.129-0.799-2.898l0.152 0.583c-0.124-0.446-0.256-0.896-0.395-1.349-0.236-0.852-0.371-1.287-0.511-1.72l0.116 0.414c-0.066-0.219-0.172-0.38-0.318-0.483-0.139-0.102-0.333-0.157-0.582-0.165-0.007-0.007-0.011-0.015-0.011-0.022-0.006-0.013-0.013-0.023-0.022-0.033l0 0 0.077-0.56 0.23 0.011c0.161 0.007 0.344 0.015 0.549 0.022h0.505c0.278 0 0.541-0.007 0.79-0.022l0.636-0.055 0.252-0.033 0.044 0.088-0.055 0.527c-0.241 0.015-0.428 0.040-0.56 0.077-0.124 0.029-0.212 0.073-0.263 0.132-0.044 0.051-0.066 0.124-0.066 0.219 0 0.066 0.022 0.201 0.066 0.406s0.099 0.453 0.165 0.746c0.073 0.293 0.154 0.607 0.241 0.944s0.172 0.669 0.252 0.998c0.088 0.322 0.165 0.618 0.23 0.889 0.073 0.263 0.128 0.475 0.165 0.636l0.066 0.23h0.11c0.080-0.219 0.165-0.457 0.252-0.713 0.095-0.263 0.19-0.538 0.285-0.823 0.102-0.285 0.201-0.574 0.296-0.867 0.095-0.3 0.19-0.592 0.285-0.878s0.187-0.556 0.274-0.812c-0.043-0.198-0.066-0.29-0.089-0.382l0.023 0.108c-0.026-0.114-0.053-0.206-0.083-0.295l0.006 0.021c-0.059-0.205-0.161-0.347-0.307-0.428-0.139-0.080-0.34-0.124-0.603-0.132l-0.044-0.055 0.088-0.56 0.143 0.011c0.102 0 0.227 0.004 0.373 0.011 0.146 0 0.296 0.004 0.45 0.011h0.384c0.241 0 0.49-0.007 0.746-0.022l0.658-0.055 0.274-0.033 0.044 0.088-0.055 0.527c-0.241 0.015-0.428 0.037-0.56 0.066-0.124 0.029-0.212 0.073-0.263 0.132-0.044 0.058-0.066 0.139-0.066 0.241 0 0.058 0.018 0.186 0.055 0.384 0.044 0.198 0.102 0.446 0.176 0.746 0.073 0.293 0.15 0.607 0.23 0.944 0.088 0.329 0.172 0.658 0.252 0.987-0.539-2.336-0.396-1.822-0.254-1.308l0.671 2.844 0.066 0.241h0.099c0.073-0.198 0.161-0.442 0.263-0.735l0.329-0.965c0.124-0.351 0.245-0.698 0.362-1.042 0.117-0.351 0.223-0.677 0.318-0.976 0.095-0.307 0.172-0.563 0.23-0.768 0.058-0.212 0.088-0.344 0.088-0.395 0-0.132-0.051-0.223-0.154-0.274s-0.274-0.077-0.516-0.077h-0.483l-0.044-0.055 0.088-0.56 0.241 0.022c0.161 0.007 0.358 0.018 0.592 0.033 0.212 0.007 0.462 0.011 0.713 0.011h0.538c0.183-0.007 0.336-0.015 0.461-0.022l0.186-0.011-0.077 0.614c-0.19 0.007-0.326 0.048-0.406 0.121-0.080 0.066-0.161 0.205-0.241 0.417l-2.139 5.837-1.141 0.23c-0.041-0.202-0.079-0.357-0.122-0.51l0.012 0.049c-0.066-0.256-0.154-0.585-0.263-0.987-0.361-1.437-0.64-2.401-0.939-3.357l0.127 0.471h-0.088l-1.382 4.103-1.152 0.23zM22.104 23.446c-0.483 0-0.903-0.102-1.262-0.307-0.355-0.203-0.639-0.494-0.828-0.844l-0.006-0.011c-0.198-0.373-0.296-0.808-0.296-1.306-0-0.007-0-0.016-0-0.025 0-0.749 0.279-1.433 0.738-1.953l-0.003 0.003c0.234-0.256 0.501-0.457 0.801-0.603s0.622-0.219 0.965-0.219c1.156 0 1.733 0.57 1.733 1.712 0 0.102-0.011 0.208-0.033 0.318-0.015 0.11-0.029 0.198-0.044 0.263l-0.132 0.121h-2.94c0 0.585 0.117 1.046 0.351 1.382s0.563 0.527 0.987 0.57c0.432 0.044 0.936-0.066 1.514-0.329l0.066 0.033 0.154 0.417c-0.154 0.11-0.336 0.227-0.549 0.351-0.179 0.105-0.389 0.205-0.608 0.287l-0.029 0.009c-0.212 0.088-0.406 0.132-0.581 0.132zM20.821 20.1l1.766-0.088c0.095-0.015 0.157-0.037 0.186-0.066 0.037-0.037 0.055-0.106 0.055-0.208 0-0.285-0.070-0.501-0.208-0.647s-0.34-0.219-0.603-0.219c-0.314 0-0.581 0.11-0.801 0.329-0.212 0.212-0.344 0.512-0.395 0.9zM29.588 23.446c-0.307 0-0.549-0.073-0.724-0.219s-0.278-0.362-0.307-0.647l-0.066-0.022c-0.161 0.161-0.322 0.307-0.483 0.439-0.154 0.124-0.293 0.223-0.417 0.296s-0.227 0.11-0.307 0.11c-0.007 0-0.016 0-0.025 0-0.265 0-0.513-0.069-0.729-0.191l0.007 0.004c-0.216-0.129-0.391-0.307-0.512-0.52l-0.004-0.007c-0.117-0.208-0.187-0.457-0.187-0.721 0-0.009 0-0.017 0-0.026l-0 0.001c0-0.219 0.055-0.41 0.165-0.57 0.11-0.168 0.256-0.278 0.439-0.329l2.096-0.538 0.011-0.384c0-0.336-0.084-0.6-0.252-0.79-0.161-0.198-0.395-0.296-0.702-0.296-0.205 0-0.424 0.051-0.658 0.154-0.247 0.106-0.46 0.235-0.653 0.388l0.006-0.004-0.066-0.044-0.165-0.549c0.205-0.117 0.432-0.238 0.68-0.362 0.186-0.097 0.417-0.201 0.655-0.291l0.047-0.016c0.227-0.088 0.399-0.132 0.516-0.132 0.366 0 0.669 0.062 0.911 0.186 0.249 0.117 0.435 0.285 0.56 0.505 0.124 0.212 0.186 0.464 0.186 0.757 0 0.095-0.011 0.245-0.033 0.45s-0.048 0.432-0.077 0.68c-0.029 0.249-0.055 0.49-0.077 0.724-0.015 0.227-0.022 0.41-0.022 0.549 0 0.154 0.037 0.274 0.11 0.362 0.080 0.080 0.186 0.121 0.318 0.121 0.11 0 0.219-0.026 0.329-0.077 0.117-0.058 0.205-0.113 0.263-0.165l0.165 0.208c-0.066 0.11-0.154 0.234-0.263 0.373-0.102 0.132-0.219 0.252-0.351 0.362-0.124 0.11-0.252 0.186-0.384 0.23zM27.569 22.524c0.124 0 0.271-0.040 0.439-0.121 0.175-0.092 0.327-0.198 0.463-0.32l-0.002 0.002 0.044-1.075-1.349 0.384c-0.19 0.058-0.285 0.198-0.285 0.417 0 0.198 0.062 0.366 0.186 0.505 0.132 0.139 0.3 0.208 0.505 0.208zM34.005 23.446c-0.505 0-0.871-0.102-1.097-0.307-0.219-0.212-0.329-0.556-0.329-1.031v-2.589c0-0.205-0.044-0.347-0.132-0.428-0.080-0.080-0.241-0.124-0.483-0.132l-0.066-0.077 0.055-0.417c0.205-0.102 0.402-0.212 0.592-0.329 0.19-0.124 0.358-0.241 0.505-0.351 0.154-0.117 0.271-0.212 0.351-0.285l0.132-0.11 0.263 0.11-0.033 0.23c-0.022 0.154-0.048 0.373-0.077 0.658l1.47-0.033 0.044 0.033-0.11 0.658-1.448-0.033c-0.022 0.329-0.040 0.709-0.055 1.141-0.014 0.409-0.022 0.889-0.022 1.371 0 0.023 0 0.047 0 0.070v-0.004c0 0.344 0.059 0.592 0.176 0.746 0.124 0.146 0.329 0.219 0.614 0.219 0.168 0 0.325-0.029 0.472-0.088l0.23-0.099 0.121 0.318-0.143 0.121c-0.088 0.073-0.201 0.161-0.34 0.263-0.112 0.083-0.241 0.166-0.375 0.242l-0.020 0.010c-0.124 0.080-0.223 0.121-0.296 0.121zM36.814 22.788c0.205-0.022 0.347-0.073 0.428-0.154 0.081-0.088 0.121-0.234 0.121-0.439v-5.606c0-0.212-0.033-0.362-0.098-0.45-0.066-0.095-0.179-0.143-0.341-0.143h-0.23l-0.055-0.044 0.055-0.45c0.19-0.022 0.399-0.051 0.625-0.088 0.060-0.017 0.295-0.059 0.53-0.099l0.161-0.022c0.227-0.044 0.421-0.084 0.581-0.121l0.066 0.176c-0.037 0.051-0.073 0.241-0.11 0.571-0.037 0.322-0.070 0.753-0.099 1.295-0.013 0.226-0.037 0.873-0.058 1.52l-0.009 0.334c0.073-0.066 0.176-0.146 0.307-0.241 0.139-0.102 0.285-0.201 0.439-0.296 0.13-0.085 0.281-0.17 0.438-0.243l0.023-0.009c0.146-0.066 0.264-0.099 0.352-0.099 0.497 0 0.881 0.124 1.152 0.373 0.278 0.241 0.417 0.589 0.417 1.042 0 0.102-0.011 0.267-0.033 0.494-0.014 0.219-0.037 0.464-0.065 0.735-0.022 0.271-0.044 0.53-0.066 0.779-0.015 0.241-0.022 0.435-0.022 0.581 0 0.205 0.026 0.355 0.077 0.45 0.059 0.088 0.154 0.132 0.285 0.132h0.175c0.073-0.007 0.136-0.015 0.187-0.022l0.022 0.044-0.088 0.56c-0.304-0.016-0.679-0.028-1.056-0.033l-0.019-0c-0.088 0-0.197 0.004-0.329 0.011-0.132 0.015-0.271 0.029-0.417 0.044s-0.289 0.033-0.428 0.055l0.055-0.549c0.205-0.051 0.352-0.128 0.439-0.23 0.088-0.11 0.132-0.256 0.132-0.439l0.055-2.052c0-0.344-0.069-0.603-0.208-0.779-0.139-0.183-0.344-0.274-0.614-0.274-0.161 0-0.358 0.051-0.592 0.154-0.239 0.109-0.445 0.237-0.631 0.388l0.005-0.004-0.022 0.757c0 0.263-0.004 0.545-0.011 0.845v0.954c0 0.212 0.029 0.358 0.088 0.439s0.15 0.121 0.274 0.121h0.165c0.052-0.006 0.113-0.010 0.174-0.011h0.001l0.022 0.044-0.098 0.56c-0.146-0.007-0.326-0.015-0.538-0.022-0.161-0.006-0.353-0.010-0.546-0.011h-0.562c-0.219 0.007-0.413 0.018-0.581 0.033l0.077-0.56zM46.207 23.446c-0.483 0-0.903-0.102-1.262-0.307-0.355-0.203-0.639-0.494-0.828-0.844l-0.006-0.011c-0.197-0.373-0.296-0.808-0.296-1.306-0-0.007-0-0.016-0-0.025 0-0.749 0.279-1.433 0.738-1.953l-0.003 0.003c0.234-0.256 0.501-0.457 0.801-0.603s0.622-0.219 0.965-0.219c1.156 0 1.733 0.57 1.733 1.712 0 0.102-0.011 0.208-0.033 0.318-0.015 0.11-0.029 0.198-0.044 0.263l-0.132 0.121h-2.94c0 0.585 0.117 1.046 0.351 1.382s0.563 0.527 0.987 0.57c0.432 0.044 0.936-0.066 1.514-0.329l0.066 0.033 0.154 0.417c-0.154 0.11-0.336 0.227-0.549 0.351-0.179 0.105-0.389 0.205-0.608 0.287l-0.029 0.009c-0.212 0.088-0.406 0.132-0.581 0.132zM44.923 20.1l1.766-0.088c0.095-0.015 0.157-0.037 0.187-0.066 0.037-0.037 0.055-0.106 0.055-0.208 0-0.285-0.069-0.501-0.208-0.647s-0.34-0.219-0.603-0.219c-0.315 0-0.581 0.11-0.801 0.329-0.212 0.212-0.344 0.512-0.395 0.9zM50.125 22.821c0.219-0.022 0.366-0.088 0.439-0.198 0.073-0.117 0.11-0.333 0.11-0.647v-2.304c0-0.249-0.033-0.421-0.099-0.516-0.066-0.102-0.179-0.154-0.34-0.154-0.051 0-0.102 0.007-0.154 0.022l-0.066 0.011-0.055-0.077 0.044-0.439c0.271-0.051 0.534-0.102 0.79-0.154 0.263-0.051 0.483-0.095 0.658-0.132l0.263-0.066 0.088 0.077-0.033 0.176c-0.015 0.11-0.029 0.249-0.044 0.417-0.015 0.161-0.022 0.326-0.022 0.494l0.044 0.033c0.234-0.336 0.49-0.607 0.768-0.812 0.285-0.212 0.545-0.318 0.779-0.318 0.117 0 0.205 0.007 0.263 0.022l0.099 0.022 0.033 0.066-0.022 0.165c-0.015 0.102-0.037 0.241-0.066 0.417-0.011 0.061-0.034 0.261-0.056 0.461l-0.010 0.121c-0.015 0.205-0.029 0.402-0.044 0.592l-0.549 0.033c0-0.322-0.018-0.534-0.055-0.636s-0.121-0.154-0.252-0.154c-0.139 0-0.289 0.055-0.45 0.165-0.154 0.11-0.3 0.263-0.439 0.461l-0.011 0.198c-0.007 0.108-0.015 0.283-0.021 0.459l-0.001 0.045c-0.007 0.198-0.018 0.402-0.033 0.614-0.007 0.212-0.015 0.399-0.022 0.56s-0.011 0.263-0.011 0.307c0 0.219 0.033 0.373 0.099 0.461 0.073 0.080 0.201 0.121 0.384 0.121 0.095 0 0.205-0.004 0.329-0.011l0.187-0.022 0.022 0.055-0.11 0.592-0.132-0.011c-0.080 0-0.187-0.004-0.318-0.011-0.147-0-0.293-0.004-0.438-0.012l0.021 0.001h-0.384c-0.219 0-0.424 0.004-0.614 0.011s-0.344 0.015-0.461 0.022l-0.176 0.011 0.066-0.538z"></path>
</symbol>
<symbol id="elipse" viewBox="0 0 32 32">
<path fill="none" stroke-opacity="1" stroke="#fbfbfb" style="stroke: var(--color1, #fbfbfb)" stroke-linejoin="miter" stroke-linecap="butt" stroke-miterlimit="4" stroke-width="0.3404" d="M31.83 16c0 8.743-7.087 15.83-15.83 15.83s-15.83-7.087-15.83-15.83c0-8.743 7.087-15.83 15.83-15.83s15.83 7.087 15.83 15.83z"></path>
<path fill="none" stroke-opacity=".75" stroke="#fbfbfb" style="stroke: var(--color1, #fbfbfb)" stroke-linejoin="miter" stroke-linecap="butt" stroke-miterlimit="4" stroke-width="0.3404" d="M30.128 16c0 7.803-6.325 14.128-14.128 14.128s-14.128-6.325-14.128-14.128c0-7.803 6.325-14.128 14.128-14.128s14.128 6.325 14.128 14.128z"></path>
<path fill="none" stroke-opacity=".5" stroke="#fbfbfb" style="stroke: var(--color1, #fbfbfb)" stroke-linejoin="miter" stroke-linecap="butt" stroke-miterlimit="4" stroke-width="0.3404" d="M28.426 16c0 6.862-5.563 12.426-12.426 12.426s-12.426-5.563-12.426-12.426c0-6.862 5.563-12.426 12.426-12.426s12.426 5.563 12.426 12.426z"></path>
</symbol>
<symbol id="sun" viewBox="0 0 32 32">
<path fill="#f47c6d" style="fill: var(--color1, #f47c6d)" d="M16 6.351c5.22 0 9.463 4.247 9.463 9.467s-4.243 9.467-9.463 9.467-9.467-4.247-9.467-9.467 4.247-9.467 9.467-9.467z"></path>
<path fill="#2d213f" style="fill: var(--color2, #2d213f)" d="M31 15c0.552 0 1 0.448 1 1s-0.448 1-1 1h-1.815c-0.552 0-1-0.448-1-1s0.448-1 1-1c0 0 1.815 0 1.815 0z"></path>
<path fill="#2d213f" style="fill: var(--color2, #2d213f)" d="M16 4.351c6.321 0 11.467 5.143 11.467 11.467s-5.147 11.467-11.467 11.467c-6.324 0-11.467-5.143-11.467-11.467s5.143-11.467 11.467-11.467zM25.463 15.819c0-5.22-4.243-9.467-9.463-9.467s-9.467 4.247-9.467 9.467 4.247 9.467 9.467 9.467 9.463-4.247 9.463-9.467z"></path>
<path fill="#2d213f" style="fill: var(--color2, #2d213f)" d="M27.313 4.687c0.39 0.39 0.39 1.023 0 1.413l-1.282 1.286c-0.197 0.193-0.452 0.29-0.707 0.29-0.259 0-0.514-0.097-0.71-0.29-0.39-0.394-0.39-1.027 0-1.417l1.286-1.282c0.39-0.39 1.023-0.39 1.413 0z"></path>
<path fill="#2d213f" style="fill: var(--color2, #2d213f)" d="M27.313 25.9c0.39 0.39 0.39 1.023 0 1.413-0.193 0.197-0.452 0.293-0.707 0.293s-0.514-0.097-0.707-0.293l-1.286-1.282c-0.39-0.39-0.39-1.023 0-1.413 0.394-0.394 1.027-0.394 1.417 0l1.282 1.282z"></path>
<path fill="#2d213f" style="fill: var(--color2, #2d213f)" d="M17 29.185v1.815c0 0.552-0.448 1-1 1s-1-0.448-1-1v-1.815c0-0.552 0.448-1 1-1s1 0.448 1 1z"></path>
<path fill="#2d213f" style="fill: var(--color2, #2d213f)" d="M17 1v1.815c0 0.552-0.448 1-1 1s-1-0.448-1-1v-1.815c0-0.552 0.448-1 1-1s1 0.448 1 1z"></path>
<path fill="#2d213f" style="fill: var(--color2, #2d213f)" d="M7.382 5.969c0.394 0.39 0.394 1.023 0 1.417-0.193 0.193-0.452 0.29-0.707 0.29s-0.514-0.097-0.707-0.29l-1.282-1.286c-0.394-0.39-0.394-1.023 0-1.413 0.39-0.39 1.023-0.39 1.413 0l1.282 1.282z"></path>
<path fill="#2d213f" style="fill: var(--color2, #2d213f)" d="M7.382 24.618c0.394 0.39 0.394 1.023 0 1.413l-1.282 1.282c-0.193 0.197-0.452 0.293-0.707 0.293s-0.514-0.097-0.707-0.293c-0.394-0.39-0.394-1.023 0-1.413l1.282-1.282c0.39-0.394 1.023-0.394 1.413 0z"></path>
<path fill="#2d213f" style="fill: var(--color2, #2d213f)" d="M2.815 15c0.552 0 1 0.448 1 1s-0.448 1-1 1h-1.815c-0.552 0-1-0.448-1-1s0.448-1 1-1c0 0 1.815 0 1.815 0z"></path>
<path fill="#ef685e" style="fill: var(--color3, #ef685e)" d="M14.526 6.467c4.886 2.050 9.174 6.69 8.813 15.321 1.327-1.63 2.124-3.708 2.124-5.969 0-5.22-4.243-9.467-9.463-9.467-0.501 0-0.993 0.040-1.474 0.115z"></path>
</symbol>
</defs>
</svg>
