<svg xmlns="http://www.w3.org/2000/svg" width="144" height="70" fill="none">
<circle cx="30" cy="30" r="29.681" stroke="#FBFBFB" stroke-width=".638"/>
<circle cx="30" cy="30" r="26.489" stroke="#FBFBFB" stroke-opacity=".75" stroke-width=".638"/>
<circle cx="30" cy="30" r="23.298" stroke="#FBFBFB" stroke-opacity=".5" stroke-width=".638"/>
<path fill="#FBFBFB" fill-opacity=".75" d="M14.44 33.384c-.79 0-1.493-.064-2.112-.192-.597-.128-1.067-.256-1.408-.384l-.48-.192-.128-.256c.043-.277.085-.672.128-1.184.064-.533.117-1.088.16-1.664.064-.576.096-1.045.096-1.408l1.408-.16c.021 1.259.267 2.165.736 2.72.47.555 1.227.832 2.272.832.704 0 1.301-.16 1.792-.48.49-.32.736-.715.736-1.184 0-.32-.096-.619-.288-.896-.192-.277-.544-.576-1.056-.896-.49-.341-1.205-.736-2.144-1.184-1.237-.619-2.144-1.259-2.72-1.92-.555-.661-.832-1.397-.832-2.208 0-.917.267-1.728.8-2.432s1.27-1.259 2.208-1.664c.96-.405 2.027-.608 3.2-.608.96 0 1.76.096 2.4.288l.992.256.096.224-.128.576c-.064.384-.15.875-.256 1.472a38.56 38.56 0 0 0-.224 1.952l-1.472.128.032-.288c.021-.192.032-.352.032-.48 0-.768-.203-1.323-.608-1.664-.384-.363-.992-.544-1.824-.544-.661 0-1.216.16-1.664.48-.448.299-.672.672-.672 1.12 0 .47.192.907.576 1.312.405.384 1.056.81 1.952 1.28 1.195.576 2.123 1.11 2.784 1.6.661.47 1.12.939 1.376 1.408.277.47.416.992.416 1.568 0 .853-.277 1.643-.832 2.368-.555.704-1.301 1.27-2.24 1.696-.939.405-1.973.608-3.104.608Zm21.033-1.664c.576-.15.992-.373 1.248-.672.256-.32.394-.747.416-1.28l.096-5.984c0-1.003-.203-1.76-.608-2.272-.406-.533-1.003-.8-1.792-.8-.427 0-.875.096-1.344.288a6.47 6.47 0 0 0-1.216.608c-.363.213-.65.405-.864.576-.022.555-.054 1.205-.096 1.952a79.115 79.115 0 0 1-.096 2.24c-.022.747-.043 1.43-.064 2.048a40.829 40.829 0 0 0-.032 1.312c0 .597.074 1.024.224 1.28.17.235.448.352.832.352.17 0 .373-.01.608-.032l.384-.032.096.128-.32 1.664-.544-.032A67.578 67.578 0 0 0 31.153 33h-2.848a90.52 90.52 0 0 0-1.376.064l-.544.032.224-1.632c.618-.064 1.045-.213 1.28-.448.256-.256.384-.683.384-1.28v-7.36c0-.725-.118-1.227-.352-1.504-.235-.277-.64-.416-1.216-.416h-.384l-.096-.16.128-1.312c.832-.15 1.632-.288 2.4-.416.79-.15 1.43-.277 1.92-.384l.768-.192.256.288-.16.672a8.928 8.928 0 0 0-.224 1.472l.096.096c.213-.15.522-.363.928-.64.405-.299.832-.587 1.28-.864a7.76 7.76 0 0 1 1.28-.704c.405-.192.736-.288.992-.288 1.088 0 2.005.224 2.752.672a3.438 3.438 0 0 1 1.536 1.92c.17-.15.448-.363.832-.64.384-.299.81-.587 1.28-.864.49-.299.95-.555 1.376-.768.448-.213.81-.32 1.088-.32 1.408 0 2.517.373 3.328 1.12.832.725 1.248 1.728 1.248 3.008 0 .299-.032.779-.096 1.44-.043.64-.107 1.355-.192 2.144-.064.79-.118 1.547-.16 2.272-.043.704-.064 1.27-.064 1.696 0 .619.085 1.056.256 1.312.17.256.448.384.832.384.192 0 .416-.01.672-.032l.384-.032.064.128-.32 1.632-.32-.032c-.214 0-.49-.01-.832-.032-.32 0-.662-.01-1.024-.032h-.992c-.32 0-.672.01-1.056.032l-1.056.064c-.342.021-.63.032-.864.032l-.32.032.192-1.6c.554-.085.95-.256 1.184-.512.234-.277.362-.704.384-1.28l.096-5.984c0-1.003-.203-1.76-.608-2.272-.406-.533-1.003-.8-1.792-.8-.427 0-.864.085-1.312.256-.427.15-.822.341-1.184.576-.363.213-.65.405-.864.576l-.384 7.584c0 .597.074 1.035.224 1.312.17.256.448.384.832.384.192 0 .405-.01.64-.032l.384-.032.064.128-.288 1.632-.32-.032c-.192 0-.448-.01-.768-.032-.32 0-.662-.01-1.024-.032h-.96c-.32 0-.683.01-1.088.032-.384.043-.758.085-1.12.128-.342.043-.63.075-.864.096l-.352.064.16-1.6Zm31.678 1.664c-.895 0-1.6-.213-2.111-.64-.513-.427-.811-1.056-.897-1.888l-.191-.064c-.47.47-.94.896-1.408 1.28-.448.363-.854.65-1.216.864-.363.213-.662.32-.897.32-.81 0-1.535-.181-2.175-.544a4.154 4.154 0 0 1-1.505-1.536c-.362-.64-.543-1.365-.543-2.176 0-.64.16-1.195.48-1.664.32-.49.746-.81 1.28-.96l6.111-1.568.033-1.12c0-.981-.246-1.75-.736-2.304-.47-.576-1.152-.864-2.048-.864-.598 0-1.238.15-1.92.448-.662.277-1.291.65-1.889 1.12l-.191-.128-.48-1.6a40.758 40.758 0 0 1 1.983-1.056 20.028 20.028 0 0 1 2.048-.896c.662-.256 1.163-.384 1.505-.384 1.066 0 1.951.181 2.656.544.725.341 1.269.832 1.631 1.472.363.619.544 1.355.544 2.208 0 .277-.032.715-.096 1.312-.064.597-.138 1.259-.224 1.984-.085.725-.16 1.43-.224 2.112a25.975 25.975 0 0 0-.064 1.6c0 .448.107.8.32 1.056.235.235.544.352.928.352.32 0 .64-.075.96-.224.342-.17.598-.33.769-.48l.48.608c-.192.32-.448.683-.768 1.088-.3.384-.64.736-1.025 1.056-.362.32-.736.544-1.12.672Zm-5.887-2.688c.362 0 .789-.117 1.28-.352.49-.256.938-.565 1.344-.928l.128-3.136-3.937 1.12c-.554.17-.831.576-.831 1.216 0 .576.18 1.067.544 1.472.383.405.874.608 1.471.608Zm13.844.864c.64-.064 1.066-.256 1.28-.576.213-.341.32-.97.32-1.888v-6.72c0-.725-.096-1.227-.288-1.504-.192-.299-.523-.448-.992-.448-.15 0-.299.021-.448.064l-.192.032-.16-.224.128-1.28c.79-.15 1.557-.299 2.304-.448.768-.15 1.408-.277 1.92-.384l.768-.192.256.224-.096.512c-.043.32-.086.725-.128 1.216-.043.47-.064.95-.064 1.44l.128.096c.682-.981 1.43-1.77 2.24-2.368.832-.619 1.59-.928 2.272-.928.341 0 .597.021.768.064l.288.064.096.192-.064.48a55.09 55.09 0 0 1-.192 1.216 80.734 80.734 0 0 0-.192 1.696c-.043.597-.086 1.173-.128 1.728l-1.6.096c0-.939-.054-1.557-.16-1.856-.107-.299-.352-.448-.736-.448-.406 0-.843.16-1.312.48-.448.32-.875.768-1.28 1.344l-.032.576c-.022.384-.043.875-.064 1.472a56.232 56.232 0 0 1-.096 1.792c-.022.619-.043 1.163-.064 1.632-.022.47-.032.768-.032.896 0 .64.096 1.088.288 1.344.213.235.586.352 1.12.352.277 0 .597-.01.96-.032l.544-.064.064.16-.32 1.728-.384-.032c-.235 0-.544-.01-.928-.032-.384 0-.79-.01-1.216-.032h-1.12c-.64 0-1.238.01-1.792.032a58.673 58.673 0 0 0-1.856.096l.192-1.568Zm20.815 1.824c-1.472 0-2.538-.299-3.2-.896-.64-.619-.96-1.621-.96-3.008v-7.552c0-.597-.128-1.013-.384-1.248-.234-.235-.704-.363-1.408-.384l-.192-.224.16-1.216a22.495 22.495 0 0 0 1.728-.96 28.14 28.14 0 0 0 1.472-1.024c.448-.341.79-.619 1.024-.832l.384-.32.768.32-.096.672a52.181 52.181 0 0 0-.224 1.92l4.288-.096.128.096-.32 1.92-4.224-.096c-.064.96-.117 2.07-.16 3.328a124.553 124.553 0 0 0-.064 4.192c0 1.003.17 1.728.512 2.176.363.427.96.64 1.792.64.49 0 .95-.085 1.376-.256l.672-.288.352.928-.416.352c-.256.213-.586.47-.992.768-.384.277-.768.523-1.152.736-.362.235-.65.352-.864.352Zm8.578 7.328c-.107 0-.267-.085-.48-.256a5.951 5.951 0 0 1-.608-.64 7.266 7.266 0 0 1-.512-.704c-.149-.235-.224-.416-.224-.544l.192-.32c1.301-.043 2.464-.523 3.488-1.44 1.045-.917 1.931-2.144 2.656-3.68-.213-.64-.459-1.355-.736-2.144a59.659 59.659 0 0 0-.864-2.528l-.896-2.624c-.299-.875-.587-1.696-.864-2.464a39.659 39.659 0 0 0-.768-1.984c-.213-.533-.491-.907-.832-1.12-.32-.213-.725-.33-1.216-.352l-.064-.128.192-1.408h.576c.32 0 .672.01 1.056.032h.96c.512 0 1.013-.01 1.504-.032.512-.021.971-.043 1.376-.064.427-.043.768-.075 1.024-.096l.384-.032.064.16-.224 1.376c-.661.021-1.109.096-1.344.224-.235.107-.352.299-.352.576 0 .192.064.544.192 1.056.128.49.288 1.077.48 1.76.192.661.395 1.355.608 2.08.213.704.416 1.365.608 1.984.192.597.352 1.088.48 1.472l.192.576h.192c.363-.853.736-1.76 1.12-2.72.384-.96.736-1.877 1.056-2.752.341-.875.619-1.621.832-2.24.235-.619.352-1.003.352-1.152 0-.277-.085-.47-.256-.576-.171-.128-.459-.192-.864-.192h-1.28l-.064-.128.224-1.408.512.032c.341.021.768.043 1.28.064a36.95 36.95 0 0 0 1.536.032h1.152c.405-.021.757-.032 1.056-.032h.608l-.224 1.536c-.469.085-.821.245-1.056.48-.235.235-.459.64-.672 1.216l-4.064 9.792c-.747 1.792-1.429 3.285-2.048 4.48-.597 1.216-1.184 2.176-1.76 2.88-.555.725-1.131 1.237-1.728 1.536-.576.299-1.227.437-1.952.416Z"/><path fill="#FBFBFB" d="m24.616 51.384-.168-.576a52.34 52.34 0 0 0-.432-1.584A180.09 180.09 0 0 0 22.6 44.16c-.272-.976-.56-1.96-.864-2.952a128.07 128.07 0 0 0-.864-2.856c-.144-.48-.376-.832-.696-1.056-.304-.224-.728-.344-1.272-.36-.016-.016-.024-.032-.024-.048a.28.28 0 0 0-.048-.072L19 35.592l.504.024c.352.016.752.032 1.2.048h1.104c.608 0 1.184-.016 1.728-.048l1.392-.12.552-.072.096.192-.12 1.152c-.528.032-.936.088-1.224.168-.272.064-.464.16-.576.288-.096.112-.144.272-.144.48 0 .144.048.44.144.888.096.448.216.992.36 1.632.16.64.336 1.328.528 2.064s.376 1.464.552 2.184c.192.704.36 1.352.504 1.944.16.576.28 1.04.36 1.392l.144.504h.24c.176-.48.36-1 .552-1.56.208-.576.416-1.176.624-1.8.224-.624.44-1.256.648-1.896.208-.656.416-1.296.624-1.92.208-.624.408-1.216.6-1.776a33.977 33.977 0 0 0-.144-.6 6.564 6.564 0 0 0-.168-.6c-.128-.448-.352-.76-.672-.936-.304-.176-.744-.272-1.32-.288l-.096-.12.192-1.224.312.024c.224 0 .496.008.816.024.32 0 .648.008.984.024h.84c.528 0 1.072-.016 1.632-.048l1.44-.12.6-.072.096.192-.12 1.152c-.528.032-.936.08-1.224.144-.272.064-.464.16-.576.288-.096.128-.144.304-.144.528 0 .128.04.408.12.84.096.432.224.976.384 1.632.16.64.328 1.328.504 2.064.192.72.376 1.44.552 2.16a885.31 885.31 0 0 1 .912 3.36l.144.528h.216c.16-.432.352-.968.576-1.608l.72-2.112c.272-.768.536-1.528.792-2.28.256-.768.488-1.48.696-2.136.208-.672.376-1.232.504-1.68.128-.464.192-.752.192-.864 0-.288-.112-.488-.336-.6-.224-.112-.6-.168-1.128-.168h-1.056l-.096-.12.192-1.224.528.048c.352.016.784.04 1.296.072a51.51 51.51 0 0 0 1.56.024h1.176c.4-.016.736-.032 1.008-.048l.408-.024-.168 1.344c-.416.016-.712.104-.888.264-.176.144-.352.448-.528.912L35.44 50.88l-2.496.504a15.292 15.292 0 0 0-.24-1.008c-.144-.56-.336-1.28-.576-2.16a145.49 145.49 0 0 0-1.776-6.312h-.192l-3.024 8.976-2.52.504Zm23.737-.096c-1.056 0-1.976-.224-2.76-.672a4.668 4.668 0 0 1-1.824-1.872c-.432-.816-.648-1.768-.648-2.856a6.462 6.462 0 0 1 1.608-4.32c.512-.56 1.096-1 1.752-1.32.656-.32 1.36-.48 2.112-.48 2.528 0 3.792 1.248 3.792 3.744 0 .224-.024.456-.072.696-.032.24-.064.432-.096.576l-.288.264h-6.432c0 1.28.256 2.288.768 3.024.512.736 1.232 1.152 2.16 1.248.944.096 2.048-.144 3.312-.72l.144.072.336.912c-.336.24-.736.496-1.2.768a9.15 9.15 0 0 1-1.392.648c-.464.192-.888.288-1.272.288Zm-2.808-7.32 3.864-.192c.208-.032.344-.08.408-.144.08-.08.12-.232.12-.456 0-.624-.152-1.096-.456-1.416-.304-.32-.744-.48-1.32-.48-.688 0-1.272.24-1.752.72-.464.464-.752 1.12-.864 1.968Zm19.178 7.32c-.672 0-1.2-.16-1.584-.48-.384-.32-.608-.792-.672-1.416l-.144-.048c-.352.352-.704.672-1.056.96-.336.272-.64.488-.912.648-.272.16-.496.24-.672.24a3.252 3.252 0 0 1-1.632-.408 3.115 3.115 0 0 1-1.128-1.152A3.252 3.252 0 0 1 56.515 48c0-.48.12-.896.36-1.248.24-.368.56-.608.96-.72l4.584-1.176.024-.84c0-.736-.184-1.312-.552-1.728-.352-.432-.864-.648-1.536-.648-.448 0-.928.112-1.44.336a6.118 6.118 0 0 0-1.416.84l-.144-.096-.36-1.2c.448-.256.944-.52 1.488-.792a15.023 15.023 0 0 1 1.536-.672c.496-.192.872-.288 1.128-.288.8 0 1.464.136 1.992.408.544.256.952.624 1.224 1.104.272.464.408 1.016.408 1.656 0 .208-.024.536-.072.984-.048.448-.104.944-.168 1.488-.064.544-.12 1.072-.168 1.584-.032.496-.048.896-.048 1.2 0 .336.08.6.24.792.176.176.408.264.696.264.24 0 .48-.056.72-.168.256-.128.448-.248.576-.36l.36.456c-.144.24-.336.512-.576.816-.224.288-.48.552-.768.792-.272.24-.552.408-.84.504Zm-4.416-2.016c.272 0 .592-.088.96-.264a4.913 4.913 0 0 0 1.008-.696l.096-2.352-2.952.84c-.416.128-.624.432-.624.912 0 .432.136.8.408 1.104.288.304.656.456 1.104.456Zm14.08 2.016c-1.105 0-1.905-.224-2.4-.672-.48-.464-.72-1.216-.72-2.256v-5.664c0-.448-.097-.76-.289-.936-.176-.176-.528-.272-1.056-.288l-.144-.168.12-.912c.448-.224.88-.464 1.296-.72.416-.272.784-.528 1.104-.768.336-.256.592-.464.768-.624l.288-.24.576.24-.072.504c-.048.336-.104.816-.168 1.44l3.216-.072.096.072-.24 1.44-3.168-.072c-.048.72-.088 1.552-.12 2.496a93.48 93.48 0 0 0-.048 3.144c0 .752.128 1.296.384 1.632.272.32.72.48 1.344.48.368 0 .712-.064 1.032-.192l.504-.216.264.696-.312.264c-.192.16-.44.352-.744.576a8.667 8.667 0 0 1-.864.552c-.272.176-.488.264-.648.264Zm6.144-1.44c.448-.048.76-.16.936-.336.177-.192.264-.512.264-.96V36.288c0-.464-.072-.792-.215-.984-.145-.208-.392-.312-.745-.312h-.504l-.12-.096.12-.984c.416-.048.873-.112 1.368-.192a60.36 60.36 0 0 1 1.512-.264c.496-.096.92-.184 1.272-.264l.145.384c-.08.112-.16.528-.24 1.248-.08.704-.153 1.648-.216 2.832a458.794 458.794 0 0 0-.145 4.056c.16-.144.385-.32.672-.528.304-.224.624-.44.96-.648a8.03 8.03 0 0 1 1.008-.552c.32-.144.577-.216.769-.216 1.088 0 1.927.272 2.52.816.608.528.912 1.288.912 2.28 0 .224-.025.584-.073 1.08-.031.48-.08 1.016-.143 1.608-.048.592-.096 1.16-.144 1.704-.032.528-.049.952-.049 1.272 0 .448.056.776.169.984.128.192.336.288.624.288h.383c.16-.016.297-.032.409-.048l.047.096-.192 1.224A63.526 63.526 0 0 0 89.484 51c-.192 0-.432.008-.72.024-.288.032-.593.064-.912.096-.32.032-.633.072-.937.12l.12-1.2c.449-.112.769-.28.96-.504.192-.24.288-.56.288-.96l.12-4.488c0-.752-.152-1.32-.456-1.704-.303-.4-.752-.6-1.344-.6-.352 0-.783.112-1.295.336a6.282 6.282 0 0 0-1.369.84l-.047 1.656c0 .576-.008 1.192-.024 1.848v2.088c0 .464.064.784.192.96.127.176.328.264.6.264h.36a3.52 3.52 0 0 1 .383-.024l.048.096-.215 1.224c-.32-.016-.713-.032-1.177-.048a35.509 35.509 0 0 0-1.2-.024h-1.224c-.48.016-.904.04-1.272.072l.168-1.224Zm20.547 1.44c-1.056 0-1.976-.224-2.76-.672a4.668 4.668 0 0 1-1.824-1.872c-.432-.816-.648-1.768-.648-2.856a6.462 6.462 0 0 1 1.608-4.32c.512-.56 1.096-1 1.752-1.32.656-.32 1.36-.48 2.112-.48 2.528 0 3.792 1.248 3.792 3.744 0 .224-.024.456-.072.696-.032.24-.064.432-.096.576l-.288.264h-6.432c0 1.28.256 2.288.768 3.024.512.736 1.232 1.152 2.16 1.248.944.096 2.048-.144 3.312-.72l.144.072.336.912c-.336.24-.736.496-1.2.768a9.15 9.15 0 0 1-1.392.648c-.464.192-.888.288-1.272.288Zm-2.808-7.32 3.864-.192c.208-.032.344-.08.408-.144.08-.08.12-.232.12-.456 0-.624-.152-1.096-.456-1.416-.304-.32-.744-.48-1.32-.48-.688 0-1.272.24-1.752.72-.464.464-.752 1.12-.864 1.968Zm11.378 5.952c.48-.048.8-.192.96-.432.16-.256.24-.728.24-1.416v-5.04c0-.544-.072-.92-.216-1.128-.144-.224-.392-.336-.744-.336-.112 0-.224.016-.336.048l-.144.024-.12-.168.096-.96c.592-.112 1.168-.224 1.728-.336.576-.112 1.056-.208 1.44-.288l.576-.144.192.168-.072.384c-.032.24-.064.544-.096.912-.032.352-.048.712-.048 1.08l.096.072c.512-.736 1.072-1.328 1.68-1.776.624-.464 1.192-.696 1.704-.696.256 0 .448.016.576.048l.216.048.072.144-.048.36c-.032.224-.08.528-.144.912a60.57 60.57 0 0 0-.144 1.272c-.032.448-.064.88-.096 1.296l-1.2.072c0-.704-.04-1.168-.12-1.392-.08-.224-.264-.336-.552-.336-.304 0-.632.12-.984.36-.336.24-.656.576-.96 1.008l-.024.432a57.88 57.88 0 0 0-.048 1.104c-.016.432-.04.88-.072 1.344-.016.464-.032.872-.048 1.224s-.024.576-.024.672c0 .48.072.816.216 1.008.16.176.44.264.84.264.208 0 .448-.008.72-.024l.408-.048.048.12-.24 1.296-.288-.024c-.176 0-.408-.008-.696-.024a18.3 18.3 0 0 1-.912-.024h-.84c-.48 0-.928.008-1.344.024-.416.016-.752.032-1.008.048l-.384.024.144-1.176Z"/></svg>