<svg aria-hidden="true" style="position: absolute; width: 0; height: 0; overflow: hidden;" version="1.1" xmlns="http://www.w3.org/2000/svg" xmlns:xlink="http://www.w3.org/1999/xlink">
<defs>
<symbol id="cloudy-day-1" viewBox="0 0 32 32">
<path fill="none" stroke="#ffa500" style="stroke: var(--color1, #ffa500)" stroke-linejoin="miter" stroke-linecap="round" stroke-miterlimit="4" stroke-width="1" d="M10 17.5v1.5"></path>
<path fill="none" stroke="#ffa500" style="stroke: var(--color1, #ffa500)" stroke-linejoin="miter" stroke-linecap="round" stroke-miterlimit="4" stroke-width="1" d="M6.818 16.182l-1.061 1.061"></path>
<path fill="none" stroke="#ffa500" style="stroke: var(--color1, #ffa500)" stroke-linejoin="miter" stroke-linecap="round" stroke-miterlimit="4" stroke-width="1" d="M5.5 13h-1.5"></path>
<path fill="none" stroke="#ffa500" style="stroke: var(--color1, #ffa500)" stroke-linejoin="miter" stroke-linecap="round" stroke-miterlimit="4" stroke-width="1" d="M6.818 9.818l-1.061-1.061"></path>
<path fill="none" stroke="#ffa500" style="stroke: var(--color1, #ffa500)" stroke-linejoin="miter" stroke-linecap="round" stroke-miterlimit="4" stroke-width="1" d="M10 8.5v-1.5"></path>
<path fill="none" stroke="#ffa500" style="stroke: var(--color1, #ffa500)" stroke-linejoin="miter" stroke-linecap="round" stroke-miterlimit="4" stroke-width="1" d="M13.182 9.818l1.061-1.061"></path>
<path fill="none" stroke="#ffa500" style="stroke: var(--color1, #ffa500)" stroke-linejoin="miter" stroke-linecap="round" stroke-miterlimit="4" stroke-width="1" d="M14.5 13h1.5"></path>
<path fill="none" stroke="#ffa500" style="stroke: var(--color1, #ffa500)" stroke-linejoin="miter" stroke-linecap="round" stroke-miterlimit="4" stroke-width="1" d="M13.182 16.182l1.061 1.061"></path>
<path fill="#ffa500" style="fill: var(--color1, #ffa500); stroke: var(--color1, #ffa500)" stroke="#ffa500" stroke-linejoin="miter" stroke-linecap="butt" stroke-miterlimit="4" stroke-width="1" d="M12.5 13c0 1.381-1.119 2.5-2.5 2.5s-2.5-1.119-2.5-2.5c0-1.381 1.119-2.5 2.5-2.5s2.5 1.119 2.5 2.5z"></path>
<path fill="#c6deff" style="fill: var(--color2, #c6deff); stroke: var(--color3, #fff)" stroke="#fff" stroke-linejoin="round" stroke-linecap="butt" stroke-miterlimit="4" stroke-width="0.6" d="M23.85 17.2c0-2.3-1.85-4.1-4.1-4.1-0.5 0-0.95 0.1-1.4 0.25-0.15-1.7-1.55-3.1-3.3-3.1-1.85 0-3.35 1.5-3.35 3.35 0 0.4 0.1 0.8 0.2 1.15-0.15-0.050-0.35-0.050-0.5-0.050-1.85 0-3.35 1.5-3.35 3.35 0 1.8 1.45 3.3 3.25 3.35h8.6c2.2-0.25 3.95-2 3.95-4.2z"></path>
</symbol>
<symbol id="cloudy-day-2" viewBox="0 0 32 32">
<path fill="none" stroke="#ffa500" style="stroke: var(--color1, #ffa500)" stroke-linejoin="miter" stroke-linecap="round" stroke-miterlimit="4" stroke-width="1" d="M10 17.5v1.5"></path>
<path fill="none" stroke="#ffa500" style="stroke: var(--color1, #ffa500)" stroke-linejoin="miter" stroke-linecap="round" stroke-miterlimit="4" stroke-width="1" d="M6.818 16.182l-1.061 1.061"></path>
<path fill="none" stroke="#ffa500" style="stroke: var(--color1, #ffa500)" stroke-linejoin="miter" stroke-linecap="round" stroke-miterlimit="4" stroke-width="1" d="M5.5 13h-1.5"></path>
<path fill="none" stroke="#ffa500" style="stroke: var(--color1, #ffa500)" stroke-linejoin="miter" stroke-linecap="round" stroke-miterlimit="4" stroke-width="1" d="M6.818 9.818l-1.061-1.061"></path>
<path fill="none" stroke="#ffa500" style="stroke: var(--color1, #ffa500)" stroke-linejoin="miter" stroke-linecap="round" stroke-miterlimit="4" stroke-width="1" d="M10 8.5v-1.5"></path>
<path fill="none" stroke="#ffa500" style="stroke: var(--color1, #ffa500)" stroke-linejoin="miter" stroke-linecap="round" stroke-miterlimit="4" stroke-width="1" d="M13.182 9.818l1.061-1.061"></path>
<path fill="none" stroke="#ffa500" style="stroke: var(--color1, #ffa500)" stroke-linejoin="miter" stroke-linecap="round" stroke-miterlimit="4" stroke-width="1" d="M14.5 13h1.5"></path>
<path fill="none" stroke="#ffa500" style="stroke: var(--color1, #ffa500)" stroke-linejoin="miter" stroke-linecap="round" stroke-miterlimit="4" stroke-width="1" d="M13.182 16.182l1.061 1.061"></path>
<path fill="#ffa500" style="fill: var(--color1, #ffa500); stroke: var(--color1, #ffa500)" stroke="#ffa500" stroke-linejoin="miter" stroke-linecap="butt" stroke-miterlimit="4" stroke-width="1" d="M12.5 13c0 1.381-1.119 2.5-2.5 2.5s-2.5-1.119-2.5-2.5c0-1.381 1.119-2.5 2.5-2.5s2.5 1.119 2.5 2.5z"></path>
<path fill="#91c0f8" style="fill: var(--color4, #91c0f8); stroke: var(--color3, #fff)" stroke="#fff" stroke-linejoin="round" stroke-linecap="butt" stroke-miterlimit="4" stroke-width="0.6" d="M23.85 17.2c0-2.3-1.85-4.1-4.1-4.1-0.5 0-0.95 0.1-1.4 0.25-0.15-1.7-1.55-3.1-3.3-3.1-1.85 0-3.35 1.5-3.35 3.35 0 0.4 0.1 0.8 0.2 1.15-0.15-0.050-0.35-0.050-0.5-0.050-1.85 0-3.35 1.5-3.35 3.35 0 1.8 1.45 3.3 3.25 3.35h8.6c2.2-0.25 3.95-2 3.95-4.2z"></path>
</symbol>
<symbol id="cloudy-day-3" viewBox="0 0 32 32">
<path fill="none" stroke="#ffa500" style="stroke: var(--color1, #ffa500)" stroke-linejoin="miter" stroke-linecap="round" stroke-miterlimit="4" stroke-width="1" d="M10 17.5v1.5"></path>
<path fill="none" stroke="#ffa500" style="stroke: var(--color1, #ffa500)" stroke-linejoin="miter" stroke-linecap="round" stroke-miterlimit="4" stroke-width="1" d="M6.818 16.182l-1.061 1.061"></path>
<path fill="none" stroke="#ffa500" style="stroke: var(--color1, #ffa500)" stroke-linejoin="miter" stroke-linecap="round" stroke-miterlimit="4" stroke-width="1" d="M5.5 13h-1.5"></path>
<path fill="none" stroke="#ffa500" style="stroke: var(--color1, #ffa500)" stroke-linejoin="miter" stroke-linecap="round" stroke-miterlimit="4" stroke-width="1" d="M6.818 9.818l-1.061-1.061"></path>
<path fill="none" stroke="#ffa500" style="stroke: var(--color1, #ffa500)" stroke-linejoin="miter" stroke-linecap="round" stroke-miterlimit="4" stroke-width="1" d="M10 8.5v-1.5"></path>
<path fill="none" stroke="#ffa500" style="stroke: var(--color1, #ffa500)" stroke-linejoin="miter" stroke-linecap="round" stroke-miterlimit="4" stroke-width="1" d="M13.182 9.818l1.061-1.061"></path>
<path fill="none" stroke="#ffa500" style="stroke: var(--color1, #ffa500)" stroke-linejoin="miter" stroke-linecap="round" stroke-miterlimit="4" stroke-width="1" d="M14.5 13h1.5"></path>
<path fill="none" stroke="#ffa500" style="stroke: var(--color1, #ffa500)" stroke-linejoin="miter" stroke-linecap="round" stroke-miterlimit="4" stroke-width="1" d="M13.182 16.182l1.061 1.061"></path>
<path fill="#ffa500" style="fill: var(--color1, #ffa500); stroke: var(--color1, #ffa500)" stroke="#ffa500" stroke-linejoin="miter" stroke-linecap="butt" stroke-miterlimit="4" stroke-width="1" d="M12.5 13c0 1.381-1.119 2.5-2.5 2.5s-2.5-1.119-2.5-2.5c0-1.381 1.119-2.5 2.5-2.5s2.5 1.119 2.5 2.5z"></path>
<path fill="#57a0ee" style="fill: var(--color5, #57a0ee); stroke: var(--color3, #fff)" stroke="#fff" stroke-linejoin="round" stroke-linecap="butt" stroke-miterlimit="4" stroke-width="0.6" d="M23.85 17.2c0-2.3-1.85-4.1-4.1-4.1-0.5 0-0.95 0.1-1.4 0.25-0.15-1.7-1.55-3.1-3.3-3.1-1.85 0-3.35 1.5-3.35 3.35 0 0.4 0.1 0.8 0.2 1.15-0.15-0.050-0.35-0.050-0.5-0.050-1.85 0-3.35 1.5-3.35 3.35 0 1.8 1.45 3.3 3.25 3.35h8.6c2.2-0.25 3.95-2 3.95-4.2z"></path>
</symbol>
<symbol id="cloudy-night-1" viewBox="0 0 32 32">
<path fill="#ffa500" style="fill: var(--color1, #ffa500)" d="M19.32 7.6l0.28 0.48 0.48 0.24-0.48 0.28-0.28 0.48-0.24-0.48-0.48-0.28 0.48-0.24z"></path>
<path fill="#ffa500" style="fill: var(--color1, #ffa500)" d="M27.32 11.6l0.28 0.48 0.48 0.24-0.48 0.28-0.28 0.48-0.24-0.48-0.48-0.28 0.48-0.24z"></path>
<path fill="#ffa500" style="fill: var(--color1, #ffa500); stroke: var(--color1, #ffa500)" stroke="#ffa500" stroke-linejoin="round" stroke-linecap="butt" stroke-miterlimit="4" stroke-width="1" d="M23.8 12.28c0-1.48 0.8-2.76 2-3.48-0.6-0.36-1.28-0.52-2-0.52-2.2 0-4 1.8-4 4s1.8 4 4 4c0.72 0 1.4-0.2 2-0.52-1.2-0.68-2-2-2-3.48z"></path>
<path fill="#c6deff" style="fill: var(--color2, #c6deff); stroke: var(--color3, #fff)" stroke="#fff" stroke-linejoin="round" stroke-linecap="butt" stroke-miterlimit="4" stroke-width="0.6" d="M23.85 17.2c0-2.3-1.85-4.1-4.1-4.1-0.5 0-0.95 0.1-1.4 0.25-0.15-1.7-1.55-3.1-3.3-3.1-1.85 0-3.35 1.5-3.35 3.35 0 0.4 0.1 0.8 0.2 1.15-0.15-0.050-0.35-0.050-0.5-0.050-1.85 0-3.35 1.5-3.35 3.35 0 1.8 1.45 3.3 3.25 3.35h8.6c2.2-0.25 3.95-2 3.95-4.2z"></path>
</symbol>
<symbol id="cloudy-night-2" viewBox="0 0 32 32">
<path fill="#ffa500" style="fill: var(--color1, #ffa500)" d="M19.32 7.6l0.28 0.48 0.48 0.24-0.48 0.28-0.28 0.48-0.24-0.48-0.48-0.28 0.48-0.24z"></path>
<path fill="#ffa500" style="fill: var(--color1, #ffa500)" d="M27.32 11.6l0.28 0.48 0.48 0.24-0.48 0.28-0.28 0.48-0.24-0.48-0.48-0.28 0.48-0.24z"></path>
<path fill="#ffa500" style="fill: var(--color1, #ffa500); stroke: var(--color1, #ffa500)" stroke="#ffa500" stroke-linejoin="round" stroke-linecap="butt" stroke-miterlimit="4" stroke-width="1" d="M23.8 12.28c0-1.48 0.8-2.76 2-3.48-0.6-0.36-1.28-0.52-2-0.52-2.2 0-4 1.8-4 4s1.8 4 4 4c0.72 0 1.4-0.2 2-0.52-1.2-0.68-2-2-2-3.48z"></path>
<path fill="#91c0f8" style="fill: var(--color4, #91c0f8); stroke: var(--color3, #fff)" stroke="#fff" stroke-linejoin="round" stroke-linecap="butt" stroke-miterlimit="4" stroke-width="0.6" d="M23.85 17.2c0-2.3-1.85-4.1-4.1-4.1-0.5 0-0.95 0.1-1.4 0.25-0.15-1.7-1.55-3.1-3.3-3.1-1.85 0-3.35 1.5-3.35 3.35 0 0.4 0.1 0.8 0.2 1.15-0.15-0.050-0.35-0.050-0.5-0.050-1.85 0-3.35 1.5-3.35 3.35 0 1.8 1.45 3.3 3.25 3.35h8.6c2.2-0.25 3.95-2 3.95-4.2z"></path>
</symbol>
<symbol id="cloudy-night-3" viewBox="0 0 32 32">
<path fill="#ffa500" style="fill: var(--color1, #ffa500)" d="M19.32 7.6l0.28 0.48 0.48 0.24-0.48 0.28-0.28 0.48-0.24-0.48-0.48-0.28 0.48-0.24z"></path>
<path fill="#ffa500" style="fill: var(--color1, #ffa500)" d="M27.32 11.6l0.28 0.48 0.48 0.24-0.48 0.28-0.28 0.48-0.24-0.48-0.48-0.28 0.48-0.24z"></path>
<path fill="#ffa500" style="fill: var(--color1, #ffa500); stroke: var(--color1, #ffa500)" stroke="#ffa500" stroke-linejoin="round" stroke-linecap="butt" stroke-miterlimit="4" stroke-width="1" d="M23.8 12.28c0-1.48 0.8-2.76 2-3.48-0.6-0.36-1.28-0.52-2-0.52-2.2 0-4 1.8-4 4s1.8 4 4 4c0.72 0 1.4-0.2 2-0.52-1.2-0.68-2-2-2-3.48z"></path>
<path fill="#57a0ee" style="fill: var(--color5, #57a0ee); stroke: var(--color3, #fff)" stroke="#fff" stroke-linejoin="round" stroke-linecap="butt" stroke-miterlimit="4" stroke-width="0.6" d="M23.85 17.2c0-2.3-1.85-4.1-4.1-4.1-0.5 0-0.95 0.1-1.4 0.25-0.15-1.7-1.55-3.1-3.3-3.1-1.85 0-3.35 1.5-3.35 3.35 0 0.4 0.1 0.8 0.2 1.15-0.15-0.050-0.35-0.050-0.5-0.050-1.85 0-3.35 1.5-3.35 3.35 0 1.8 1.45 3.3 3.25 3.35h8.6c2.2-0.25 3.95-2 3.95-4.2z"></path>
</symbol>
<symbol id="cloudy" viewBox="0 0 32 32">
<path fill="#91c0f8" style="fill: var(--color4, #91c0f8); stroke: var(--color3, #fff)" stroke="#fff" stroke-linejoin="round" stroke-linecap="butt" stroke-miterlimit="4" stroke-width="0.6" d="M19.31 11.62c0-1.38-1.11-2.46-2.46-2.46-0.3 0-0.57 0.060-0.84 0.15-0.090-1.020-0.93-1.86-1.98-1.86-1.11 0-2.010 0.9-2.010 2.010 0 0.24 0.060 0.48 0.12 0.69-0.090-0.030-0.21-0.030-0.3-0.030-1.11 0-2.010 0.9-2.010 2.010 0 1.080 0.87 1.98 1.95 2.010h5.16c1.32-0.15 2.37-1.2 2.37-2.52z"></path>
<path fill="#57a0ee" style="fill: var(--color5, #57a0ee); stroke: var(--color3, #fff)" stroke="#fff" stroke-linejoin="round" stroke-linecap="butt" stroke-miterlimit="4" stroke-width="0.6" d="M23.85 17.2c0-2.3-1.85-4.1-4.1-4.1-0.5 0-0.95 0.1-1.4 0.25-0.15-1.7-1.55-3.1-3.3-3.1-1.85 0-3.35 1.5-3.35 3.35 0 0.4 0.1 0.8 0.2 1.15-0.15-0.050-0.35-0.050-0.5-0.050-1.85 0-3.35 1.5-3.35 3.35 0 1.8 1.45 3.3 3.25 3.35h8.6c2.2-0.25 3.95-2 3.95-4.2z"></path>
</symbol>
<symbol id="day" viewBox="0 0 32 32">
<path fill="none" stroke="#ffa500" style="stroke: var(--color1, #ffa500)" stroke-linejoin="miter" stroke-linecap="round" stroke-miterlimit="4" stroke-width="1" d="M16 20.5v1.5"></path>
<path fill="none" stroke="#ffa500" style="stroke: var(--color1, #ffa500)" stroke-linejoin="miter" stroke-linecap="round" stroke-miterlimit="4" stroke-width="1" d="M12.818 19.182l-1.061 1.061"></path>
<path fill="none" stroke="#ffa500" style="stroke: var(--color1, #ffa500)" stroke-linejoin="miter" stroke-linecap="round" stroke-miterlimit="4" stroke-width="1" d="M11.5 16h-1.5"></path>
<path fill="none" stroke="#ffa500" style="stroke: var(--color1, #ffa500)" stroke-linejoin="miter" stroke-linecap="round" stroke-miterlimit="4" stroke-width="1" d="M12.818 12.818l-1.061-1.061"></path>
<path fill="none" stroke="#ffa500" style="stroke: var(--color1, #ffa500)" stroke-linejoin="miter" stroke-linecap="round" stroke-miterlimit="4" stroke-width="1" d="M16 11.5v-1.5"></path>
<path fill="none" stroke="#ffa500" style="stroke: var(--color1, #ffa500)" stroke-linejoin="miter" stroke-linecap="round" stroke-miterlimit="4" stroke-width="1" d="M19.182 12.818l1.061-1.061"></path>
<path fill="none" stroke="#ffa500" style="stroke: var(--color1, #ffa500)" stroke-linejoin="miter" stroke-linecap="round" stroke-miterlimit="4" stroke-width="1" d="M20.5 16h1.5"></path>
<path fill="none" stroke="#ffa500" style="stroke: var(--color1, #ffa500)" stroke-linejoin="miter" stroke-linecap="round" stroke-miterlimit="4" stroke-width="1" d="M19.182 19.182l1.061 1.061"></path>
<path fill="#ffa500" style="fill: var(--color1, #ffa500); stroke: var(--color1, #ffa500)" stroke="#ffa500" stroke-linejoin="miter" stroke-linecap="butt" stroke-miterlimit="4" stroke-width="1" d="M18.5 16c0 1.381-1.119 2.5-2.5 2.5s-2.5-1.119-2.5-2.5c0-1.381 1.119-2.5 2.5-2.5s2.5 1.119 2.5 2.5z"></path>
</symbol>
<symbol id="night" viewBox="0 0 32 32">
<path fill="#ffa500" style="fill: var(--color1, #ffa500)" d="M11.65 10.75l0.35 0.6 0.6 0.3-0.6 0.35-0.35 0.6-0.3-0.6-0.6-0.35 0.6-0.3z"></path>
<path fill="#ffa500" style="fill: var(--color1, #ffa500)" d="M21.65 15.75l0.35 0.6 0.6 0.3-0.6 0.35-0.35 0.6-0.3-0.6-0.6-0.35 0.6-0.3z"></path>
<path fill="#ffa500" style="fill: var(--color1, #ffa500); stroke: var(--color1, #ffa500)" stroke="#ffa500" stroke-linejoin="round" stroke-linecap="butt" stroke-miterlimit="4" stroke-width="1" d="M17.25 16.6c0-1.85 1-3.45 2.5-4.35-0.75-0.45-1.6-0.65-2.5-0.65-2.75 0-5 2.25-5 5s2.25 5 5 5c0.9 0 1.75-0.25 2.5-0.65-1.5-0.85-2.5-2.5-2.5-4.35z"></path>
</symbol>
<symbol id="rainy-1" viewBox="0 0 32 32">
<path fill="none" stroke="#ffa500" style="stroke: var(--color1, #ffa500)" stroke-linejoin="miter" stroke-linecap="round" stroke-miterlimit="4" stroke-width="1" d="M10 18.4v1.8"></path>
<path fill="none" stroke="#ffa500" style="stroke: var(--color1, #ffa500)" stroke-linejoin="miter" stroke-linecap="round" stroke-miterlimit="4" stroke-width="1" d="M6.182 16.818l-1.273 1.273"></path>
<path fill="none" stroke="#ffa500" style="stroke: var(--color1, #ffa500)" stroke-linejoin="miter" stroke-linecap="round" stroke-miterlimit="4" stroke-width="1" d="M4.6 13h-1.8"></path>
<path fill="none" stroke="#ffa500" style="stroke: var(--color1, #ffa500)" stroke-linejoin="miter" stroke-linecap="round" stroke-miterlimit="4" stroke-width="1" d="M6.182 9.182l-1.273-1.273"></path>
<path fill="none" stroke="#ffa500" style="stroke: var(--color1, #ffa500)" stroke-linejoin="miter" stroke-linecap="round" stroke-miterlimit="4" stroke-width="1" d="M10 7.6v-1.8"></path>
<path fill="none" stroke="#ffa500" style="stroke: var(--color1, #ffa500)" stroke-linejoin="miter" stroke-linecap="round" stroke-miterlimit="4" stroke-width="1" d="M13.818 9.182l1.273-1.273"></path>
<path fill="none" stroke="#ffa500" style="stroke: var(--color1, #ffa500)" stroke-linejoin="miter" stroke-linecap="round" stroke-miterlimit="4" stroke-width="1" d="M15.4 13h1.8"></path>
<path fill="none" stroke="#ffa500" style="stroke: var(--color1, #ffa500)" stroke-linejoin="miter" stroke-linecap="round" stroke-miterlimit="4" stroke-width="1" d="M13.818 16.818l1.273 1.273"></path>
<path fill="#ffa500" style="fill: var(--color1, #ffa500); stroke: var(--color1, #ffa500)" stroke="#ffa500" stroke-linejoin="miter" stroke-linecap="butt" stroke-miterlimit="4" stroke-width="1" d="M13 13c0 1.657-1.343 3-3 3s-3-1.343-3-3c0-1.657 1.343-3 3-3s3 1.343 3 3z"></path>
<path fill="#57a0ee" style="fill: var(--color5, #57a0ee); stroke: var(--color3, #fff)" stroke="#fff" stroke-linejoin="round" stroke-linecap="butt" stroke-miterlimit="4" stroke-width="0.75" d="M22.773 17.545c0-1.955-1.573-3.485-3.485-3.485-0.425 0-0.808 0.085-1.19 0.213-0.128-1.445-1.317-2.635-2.805-2.635-1.572 0-2.848 1.275-2.848 2.848 0 0.34 0.085 0.68 0.17 0.977-0.127-0.043-0.297-0.043-0.425-0.043-1.572 0-2.848 1.275-2.848 2.848 0 1.53 1.232 2.805 2.763 2.848h7.31c1.87-0.212 3.358-1.7 3.358-3.57z"></path>
<path fill="none" stroke="#91c0f8" style="stroke: var(--color4, #91c0f8)" stroke-linejoin="miter" stroke-linecap="round" stroke-miterlimit="4" stroke-width="1" d="M13.959 22.971l-0.695 3.939"></path>
<path fill="none" stroke="#91c0f8" style="stroke: var(--color4, #91c0f8)" stroke-linejoin="miter" stroke-linecap="round" stroke-miterlimit="4" stroke-width="1" d="M17.087 22.508l-0.695 3.939"></path>
</symbol>
<symbol id="rainy-2" viewBox="0 0 32 32">
<path fill="none" stroke="#ffa500" style="stroke: var(--color1, #ffa500)" stroke-linejoin="miter" stroke-linecap="round" stroke-miterlimit="4" stroke-width="1" d="M10 17.5v1.5"></path>
<path fill="none" stroke="#ffa500" style="stroke: var(--color1, #ffa500)" stroke-linejoin="miter" stroke-linecap="round" stroke-miterlimit="4" stroke-width="1" d="M6.818 16.182l-1.061 1.061"></path>
<path fill="none" stroke="#ffa500" style="stroke: var(--color1, #ffa500)" stroke-linejoin="miter" stroke-linecap="round" stroke-miterlimit="4" stroke-width="1" d="M5.5 13h-1.5"></path>
<path fill="none" stroke="#ffa500" style="stroke: var(--color1, #ffa500)" stroke-linejoin="miter" stroke-linecap="round" stroke-miterlimit="4" stroke-width="1" d="M6.818 9.818l-1.061-1.061"></path>
<path fill="none" stroke="#ffa500" style="stroke: var(--color1, #ffa500)" stroke-linejoin="miter" stroke-linecap="round" stroke-miterlimit="4" stroke-width="1" d="M10 8.5v-1.5"></path>
<path fill="none" stroke="#ffa500" style="stroke: var(--color1, #ffa500)" stroke-linejoin="miter" stroke-linecap="round" stroke-miterlimit="4" stroke-width="1" d="M13.182 9.818l1.061-1.061"></path>
<path fill="none" stroke="#ffa500" style="stroke: var(--color1, #ffa500)" stroke-linejoin="miter" stroke-linecap="round" stroke-miterlimit="4" stroke-width="1" d="M14.5 13h1.5"></path>
<path fill="none" stroke="#ffa500" style="stroke: var(--color1, #ffa500)" stroke-linejoin="miter" stroke-linecap="round" stroke-miterlimit="4" stroke-width="1" d="M13.182 16.182l1.061 1.061"></path>
<path fill="#ffa500" style="fill: var(--color1, #ffa500); stroke: var(--color1, #ffa500)" stroke="#ffa500" stroke-linejoin="miter" stroke-linecap="butt" stroke-miterlimit="4" stroke-width="1" d="M12.5 13c0 1.381-1.119 2.5-2.5 2.5s-2.5-1.119-2.5-2.5c0-1.381 1.119-2.5 2.5-2.5s2.5 1.119 2.5 2.5z"></path>
<path fill="#57a0ee" style="fill: var(--color5, #57a0ee); stroke: var(--color3, #fff)" stroke="#fff" stroke-linejoin="round" stroke-linecap="butt" stroke-miterlimit="4" stroke-width="0.6" d="M23.85 17.2c0-2.3-1.85-4.1-4.1-4.1-0.5 0-0.95 0.1-1.4 0.25-0.15-1.7-1.55-3.1-3.3-3.1-1.85 0-3.35 1.5-3.35 3.35 0 0.4 0.1 0.8 0.2 1.15-0.15-0.050-0.35-0.050-0.5-0.050-1.85 0-3.35 1.5-3.35 3.35 0 1.8 1.45 3.3 3.25 3.35h8.6c2.2-0.25 3.95-2 3.95-4.2z"></path>
<path fill="none" stroke="#91c0f8" style="stroke: var(--color4, #91c0f8)" stroke-linejoin="miter" stroke-linecap="round" stroke-miterlimit="4" stroke-width="1" d="M15.459 22.471l-0.695 3.939"></path>
</symbol>
<symbol id="rainy-3" viewBox="0 0 32 32">
<path fill="#000" style="fill: var(--color6, #000); stroke: var(--color1, #ffa500)" stroke="#ffa500" stroke-linejoin="miter" stroke-linecap="round" stroke-miterlimit="4" stroke-width="1" d="M10 17.5v1.5"></path>
<path fill="none" stroke="#ffa500" style="stroke: var(--color1, #ffa500)" stroke-linejoin="miter" stroke-linecap="round" stroke-miterlimit="4" stroke-width="1" d="M6.818 16.182l-1.061 1.061"></path>
<path fill="none" stroke="#ffa500" style="stroke: var(--color1, #ffa500)" stroke-linejoin="miter" stroke-linecap="round" stroke-miterlimit="4" stroke-width="1" d="M5.5 13h-1.5"></path>
<path fill="none" stroke="#ffa500" style="stroke: var(--color1, #ffa500)" stroke-linejoin="miter" stroke-linecap="round" stroke-miterlimit="4" stroke-width="1" d="M6.818 9.818l-1.061-1.061"></path>
<path fill="none" stroke="#ffa500" style="stroke: var(--color1, #ffa500)" stroke-linejoin="miter" stroke-linecap="round" stroke-miterlimit="4" stroke-width="1" d="M10 8.5v-1.5"></path>
<path fill="none" stroke="#ffa500" style="stroke: var(--color1, #ffa500)" stroke-linejoin="miter" stroke-linecap="round" stroke-miterlimit="4" stroke-width="1" d="M13.182 9.818l1.061-1.061"></path>
<path fill="none" stroke="#ffa500" style="stroke: var(--color1, #ffa500)" stroke-linejoin="miter" stroke-linecap="round" stroke-miterlimit="4" stroke-width="1" d="M14.5 13h1.5"></path>
<path fill="none" stroke="#ffa500" style="stroke: var(--color1, #ffa500)" stroke-linejoin="miter" stroke-linecap="round" stroke-miterlimit="4" stroke-width="1" d="M13.182 16.182l1.061 1.061"></path>
<path fill="#ffa500" style="fill: var(--color1, #ffa500); stroke: var(--color1, #ffa500)" stroke="#ffa500" stroke-linejoin="miter" stroke-linecap="butt" stroke-miterlimit="4" stroke-width="1" d="M12.5 13c0 1.381-1.119 2.5-2.5 2.5s-2.5-1.119-2.5-2.5c0-1.381 1.119-2.5 2.5-2.5s2.5 1.119 2.5 2.5z"></path>
<path fill="#57a0ee" style="fill: var(--color5, #57a0ee); stroke: var(--color3, #fff)" stroke="#fff" stroke-linejoin="round" stroke-linecap="butt" stroke-miterlimit="4" stroke-width="0.6" d="M23.85 17.2c0-2.3-1.85-4.1-4.1-4.1-0.5 0-0.95 0.1-1.4 0.25-0.15-1.7-1.55-3.1-3.3-3.1-1.85 0-3.35 1.5-3.35 3.35 0 0.4 0.1 0.8 0.2 1.15-0.15-0.050-0.35-0.050-0.5-0.050-1.85 0-3.35 1.5-3.35 3.35 0 1.8 1.45 3.3 3.25 3.35h8.6c2.2-0.25 3.95-2 3.95-4.2z"></path>
<path fill="none" stroke="#91c0f8" style="stroke: var(--color4, #91c0f8)" stroke-linejoin="miter" stroke-linecap="round" stroke-miterlimit="4" stroke-width="1" d="M13.959 22.971l-0.695 3.939"></path>
<path fill="none" stroke="#91c0f8" style="stroke: var(--color4, #91c0f8)" stroke-linejoin="miter" stroke-linecap="round" stroke-miterlimit="4" stroke-width="1" d="M17.087 22.508l-0.695 3.939"></path>
</symbol>
<symbol id="rainy-4" viewBox="0 0 32 32">
<path fill="#57a0ee" style="fill: var(--color5, #57a0ee); stroke: var(--color3, #fff)" stroke="#fff" stroke-linejoin="round" stroke-linecap="butt" stroke-miterlimit="4" stroke-width="0.6" d="M23.85 17.2c0-2.3-1.85-4.1-4.1-4.1-0.5 0-0.95 0.1-1.4 0.25-0.15-1.7-1.55-3.1-3.3-3.1-1.85 0-3.35 1.5-3.35 3.35 0 0.4 0.1 0.8 0.2 1.15-0.15-0.050-0.35-0.050-0.5-0.050-1.85 0-3.35 1.5-3.35 3.35 0 1.8 1.45 3.3 3.25 3.35h8.6c2.2-0.25 3.95-2 3.95-4.2z"></path>
<path fill="none" stroke="#91c0f8" style="stroke: var(--color4, #91c0f8)" stroke-linejoin="miter" stroke-linecap="round" stroke-miterlimit="4" stroke-width="1" d="M15.459 22.471l-0.695 3.939"></path>
</symbol>
<symbol id="rainy-5" viewBox="0 0 32 32">
<path fill="#57a0ee" style="fill: var(--color5, #57a0ee); stroke: var(--color3, #fff)" stroke="#fff" stroke-linejoin="round" stroke-linecap="butt" stroke-miterlimit="4" stroke-width="0.6" d="M23.85 17.2c0-2.3-1.85-4.1-4.1-4.1-0.5 0-0.95 0.1-1.4 0.25-0.15-1.7-1.55-3.1-3.3-3.1-1.85 0-3.35 1.5-3.35 3.35 0 0.4 0.1 0.8 0.2 1.15-0.15-0.050-0.35-0.050-0.5-0.050-1.85 0-3.35 1.5-3.35 3.35 0 1.8 1.45 3.3 3.25 3.35h8.6c2.2-0.25 3.95-2 3.95-4.2z"></path>
<path fill="none" stroke="#91c0f8" style="stroke: var(--color4, #91c0f8)" stroke-linejoin="miter" stroke-linecap="round" stroke-miterlimit="4" stroke-width="1" d="M13.959 22.971l-0.695 3.939"></path>
<path fill="none" stroke="#91c0f8" style="stroke: var(--color4, #91c0f8)" stroke-linejoin="miter" stroke-linecap="round" stroke-miterlimit="4" stroke-width="1" d="M17.087 22.508l-0.695 3.939"></path>
</symbol>
<symbol id="rainy-6" viewBox="0 0 32 32">
<path fill="#57a0ee" style="fill: var(--color5, #57a0ee); stroke: var(--color3, #fff)" stroke="#fff" stroke-linejoin="round" stroke-linecap="butt" stroke-miterlimit="4" stroke-width="0.6" d="M23.85 17.2c0-2.3-1.85-4.1-4.1-4.1-0.5 0-0.95 0.1-1.4 0.25-0.15-1.7-1.55-3.1-3.3-3.1-1.85 0-3.35 1.5-3.35 3.35 0 0.4 0.1 0.8 0.2 1.15-0.15-0.050-0.35-0.050-0.5-0.050-1.85 0-3.35 1.5-3.35 3.35 0 1.8 1.45 3.3 3.25 3.35h8.6c2.2-0.25 3.95-2 3.95-4.2z"></path>
<path fill="none" stroke="#91c0f8" style="stroke: var(--color4, #91c0f8)" stroke-linejoin="miter" stroke-linecap="round" stroke-miterlimit="4" stroke-width="1" d="M13.444 23.145l-0.695 3.939"></path>
<path fill="none" stroke="#91c0f8" style="stroke: var(--color4, #91c0f8)" stroke-linejoin="miter" stroke-linecap="round" stroke-miterlimit="4" stroke-width="1" d="M15.587 22.508l-0.695 3.939"></path>
<path fill="none" stroke="#91c0f8" style="stroke: var(--color4, #91c0f8)" stroke-linejoin="miter" stroke-linecap="round" stroke-miterlimit="4" stroke-width="1" d="M17.47 23.347l-0.695 3.939"></path>
</symbol>
<symbol id="rainy-7" viewBox="0 0 32 32">
<path fill="#57a0ee" style="fill: var(--color5, #57a0ee); stroke: var(--color3, #fff)" stroke="#fff" stroke-linejoin="round" stroke-linecap="butt" stroke-miterlimit="4" stroke-width="0.6" d="M23.85 17.2c0-2.3-1.85-4.1-4.1-4.1-0.5 0-0.95 0.1-1.4 0.25-0.15-1.7-1.55-3.1-3.3-3.1-1.85 0-3.35 1.5-3.35 3.35 0 0.4 0.1 0.8 0.2 1.15-0.15-0.050-0.35-0.050-0.5-0.050-1.85 0-3.35 1.5-3.35 3.35 0 1.8 1.45 3.3 3.25 3.35h8.6c2.2-0.25 3.95-2 3.95-4.2z"></path>
<path fill="none" stroke="#91c0f8" style="stroke: var(--color4, #91c0f8)" stroke-linejoin="miter" stroke-linecap="round" stroke-miterlimit="4" stroke-width="1.5" d="M12.951 23.058l-0.695 3.939"></path>
<path fill="none" stroke="#91c0f8" style="stroke: var(--color4, #91c0f8)" stroke-linejoin="miter" stroke-linecap="round" stroke-miterlimit="4" stroke-width="1.5" d="M15.587 22.508l-0.695 3.939"></path>
<path fill="none" stroke="#91c0f8" style="stroke: var(--color4, #91c0f8)" stroke-linejoin="miter" stroke-linecap="round" stroke-miterlimit="4" stroke-width="1.5" d="M17.962 23.434l-0.695 3.939"></path>
</symbol>
<symbol id="snowy-1" viewBox="0 0 32 32">
<path fill="none" stroke="#ffa500" style="stroke: var(--color1, #ffa500)" stroke-linejoin="miter" stroke-linecap="round" stroke-miterlimit="4" stroke-width="1" d="M10 18.4v1.8"></path>
<path fill="none" stroke="#ffa500" style="stroke: var(--color1, #ffa500)" stroke-linejoin="miter" stroke-linecap="round" stroke-miterlimit="4" stroke-width="1" d="M6.182 16.818l-1.273 1.273"></path>
<path fill="none" stroke="#ffa500" style="stroke: var(--color1, #ffa500)" stroke-linejoin="miter" stroke-linecap="round" stroke-miterlimit="4" stroke-width="1" d="M4.6 13h-1.8"></path>
<path fill="none" stroke="#ffa500" style="stroke: var(--color1, #ffa500)" stroke-linejoin="miter" stroke-linecap="round" stroke-miterlimit="4" stroke-width="1" d="M6.182 9.182l-1.273-1.273"></path>
<path fill="none" stroke="#ffa500" style="stroke: var(--color1, #ffa500)" stroke-linejoin="miter" stroke-linecap="round" stroke-miterlimit="4" stroke-width="1" d="M10 7.6v-1.8"></path>
<path fill="none" stroke="#ffa500" style="stroke: var(--color1, #ffa500)" stroke-linejoin="miter" stroke-linecap="round" stroke-miterlimit="4" stroke-width="1" d="M13.818 9.182l1.273-1.273"></path>
<path fill="none" stroke="#ffa500" style="stroke: var(--color1, #ffa500)" stroke-linejoin="miter" stroke-linecap="round" stroke-miterlimit="4" stroke-width="1" d="M15.4 13h1.8"></path>
<path fill="none" stroke="#ffa500" style="stroke: var(--color1, #ffa500)" stroke-linejoin="miter" stroke-linecap="round" stroke-miterlimit="4" stroke-width="1" d="M13.818 16.818l1.273 1.273"></path>
<path fill="#ffa500" style="fill: var(--color1, #ffa500); stroke: var(--color1, #ffa500)" stroke="#ffa500" stroke-linejoin="miter" stroke-linecap="butt" stroke-miterlimit="4" stroke-width="1" d="M13 13c0 1.657-1.343 3-3 3s-3-1.343-3-3c0-1.657 1.343-3 3-3s3 1.343 3 3z"></path>
<path fill="#57a0ee" style="fill: var(--color5, #57a0ee); stroke: var(--color3, #fff)" stroke="#fff" stroke-linejoin="round" stroke-linecap="butt" stroke-miterlimit="4" stroke-width="0.75" d="M22.773 17.545c0-1.955-1.573-3.485-3.485-3.485-0.425 0-0.808 0.085-1.19 0.213-0.128-1.445-1.317-2.635-2.805-2.635-1.572 0-2.848 1.275-2.848 2.848 0 0.34 0.085 0.68 0.17 0.977-0.127-0.043-0.297-0.043-0.425-0.043-1.572 0-2.848 1.275-2.848 2.848 0 1.53 1.232 2.805 2.763 2.848h7.31c1.87-0.212 3.358-1.7 3.358-3.57z"></path>
<path fill="none" stroke="#57a0ee" style="stroke: var(--color5, #57a0ee)" stroke-linejoin="miter" stroke-linecap="round" stroke-miterlimit="4" stroke-width="0.6" d="M13.5 21.75v2.5"></path>
<path fill="none" stroke="#57a0ee" style="stroke: var(--color5, #57a0ee)" stroke-linejoin="miter" stroke-linecap="round" stroke-miterlimit="4" stroke-width="0.5" d="M14.384 22.116l-1.768 1.768"></path>
<path fill="none" stroke="#57a0ee" style="stroke: var(--color5, #57a0ee)" stroke-linejoin="miter" stroke-linecap="round" stroke-miterlimit="4" stroke-width="0.5" d="M14.75 23h-2.5"></path>
<path fill="none" stroke="#57a0ee" style="stroke: var(--color5, #57a0ee)" stroke-linejoin="miter" stroke-linecap="round" stroke-miterlimit="4" stroke-width="0.5" d="M14.384 23.884l-1.768-1.768"></path>
<path fill="none" stroke="#57a0ee" style="stroke: var(--color5, #57a0ee)" stroke-linejoin="miter" stroke-linecap="round" stroke-miterlimit="4" stroke-width="0.6" d="M18 21.75v2.5"></path>
<path fill="none" stroke="#57a0ee" style="stroke: var(--color5, #57a0ee)" stroke-linejoin="miter" stroke-linecap="round" stroke-miterlimit="4" stroke-width="0.5" d="M18.884 22.116l-1.768 1.768"></path>
<path fill="none" stroke="#57a0ee" style="stroke: var(--color5, #57a0ee)" stroke-linejoin="miter" stroke-linecap="round" stroke-miterlimit="4" stroke-width="0.5" d="M19.25 23h-2.5"></path>
<path fill="none" stroke="#57a0ee" style="stroke: var(--color5, #57a0ee)" stroke-linejoin="miter" stroke-linecap="round" stroke-miterlimit="4" stroke-width="0.5" d="M18.884 23.884l-1.768-1.768"></path>
</symbol>
<symbol id="snowy-2" viewBox="0 0 32 32">
<path fill="none" stroke="#ffa500" style="stroke: var(--color1, #ffa500)" stroke-linejoin="miter" stroke-linecap="round" stroke-miterlimit="4" stroke-width="1" d="M10 17.5v1.5"></path>
<path fill="none" stroke="#ffa500" style="stroke: var(--color1, #ffa500)" stroke-linejoin="miter" stroke-linecap="round" stroke-miterlimit="4" stroke-width="1" d="M6.818 16.182l-1.061 1.061"></path>
<path fill="none" stroke="#ffa500" style="stroke: var(--color1, #ffa500)" stroke-linejoin="miter" stroke-linecap="round" stroke-miterlimit="4" stroke-width="1" d="M5.5 13h-1.5"></path>
<path fill="none" stroke="#ffa500" style="stroke: var(--color1, #ffa500)" stroke-linejoin="miter" stroke-linecap="round" stroke-miterlimit="4" stroke-width="1" d="M6.818 9.818l-1.061-1.061"></path>
<path fill="none" stroke="#ffa500" style="stroke: var(--color1, #ffa500)" stroke-linejoin="miter" stroke-linecap="round" stroke-miterlimit="4" stroke-width="1" d="M10 8.5v-1.5"></path>
<path fill="none" stroke="#ffa500" style="stroke: var(--color1, #ffa500)" stroke-linejoin="miter" stroke-linecap="round" stroke-miterlimit="4" stroke-width="1" d="M13.182 9.818l1.061-1.061"></path>
<path fill="none" stroke="#ffa500" style="stroke: var(--color1, #ffa500)" stroke-linejoin="miter" stroke-linecap="round" stroke-miterlimit="4" stroke-width="1" d="M14.5 13h1.5"></path>
<path fill="none" stroke="#ffa500" style="stroke: var(--color1, #ffa500)" stroke-linejoin="miter" stroke-linecap="round" stroke-miterlimit="4" stroke-width="1" d="M13.182 16.182l1.061 1.061"></path>
<path fill="#ffa500" style="fill: var(--color1, #ffa500); stroke: var(--color1, #ffa500)" stroke="#ffa500" stroke-linejoin="miter" stroke-linecap="butt" stroke-miterlimit="4" stroke-width="1" d="M12.5 13c0 1.381-1.119 2.5-2.5 2.5s-2.5-1.119-2.5-2.5c0-1.381 1.119-2.5 2.5-2.5s2.5 1.119 2.5 2.5z"></path>
<path fill="#57a0ee" style="fill: var(--color5, #57a0ee); stroke: var(--color3, #fff)" stroke="#fff" stroke-linejoin="round" stroke-linecap="butt" stroke-miterlimit="4" stroke-width="0.6" d="M23.85 17.2c0-2.3-1.85-4.1-4.1-4.1-0.5 0-0.95 0.1-1.4 0.25-0.15-1.7-1.55-3.1-3.3-3.1-1.85 0-3.35 1.5-3.35 3.35 0 0.4 0.1 0.8 0.2 1.15-0.15-0.050-0.35-0.050-0.5-0.050-1.85 0-3.35 1.5-3.35 3.35 0 1.8 1.45 3.3 3.25 3.35h8.6c2.2-0.25 3.95-2 3.95-4.2z"></path>
<path fill="none" stroke="#57a0ee" style="stroke: var(--color5, #57a0ee)" stroke-linejoin="miter" stroke-linecap="round" stroke-miterlimit="4" stroke-width="0.6" d="M16 22.25v2.5"></path>
<path fill="none" stroke="#57a0ee" style="stroke: var(--color5, #57a0ee)" stroke-linejoin="miter" stroke-linecap="round" stroke-miterlimit="4" stroke-width="0.5" d="M16.884 22.616l-1.768 1.768"></path>
<path fill="none" stroke="#57a0ee" style="stroke: var(--color5, #57a0ee)" stroke-linejoin="miter" stroke-linecap="round" stroke-miterlimit="4" stroke-width="0.5" d="M17.25 23.5h-2.5"></path>
<path fill="none" stroke="#57a0ee" style="stroke: var(--color5, #57a0ee)" stroke-linejoin="miter" stroke-linecap="round" stroke-miterlimit="4" stroke-width="0.5" d="M16.884 24.384l-1.768-1.768"></path>
</symbol>
<symbol id="snowy-3" viewBox="0 0 32 32">
<path fill="none" stroke="#ffa500" style="stroke: var(--color1, #ffa500)" stroke-linejoin="miter" stroke-linecap="round" stroke-miterlimit="4" stroke-width="1" d="M10 17.5v1.5"></path>
<path fill="none" stroke="#ffa500" style="stroke: var(--color1, #ffa500)" stroke-linejoin="miter" stroke-linecap="round" stroke-miterlimit="4" stroke-width="1" d="M6.818 16.182l-1.061 1.061"></path>
<path fill="none" stroke="#ffa500" style="stroke: var(--color1, #ffa500)" stroke-linejoin="miter" stroke-linecap="round" stroke-miterlimit="4" stroke-width="1" d="M5.5 13h-1.5"></path>
<path fill="none" stroke="#ffa500" style="stroke: var(--color1, #ffa500)" stroke-linejoin="miter" stroke-linecap="round" stroke-miterlimit="4" stroke-width="1" d="M6.818 9.818l-1.061-1.061"></path>
<path fill="none" stroke="#ffa500" style="stroke: var(--color1, #ffa500)" stroke-linejoin="miter" stroke-linecap="round" stroke-miterlimit="4" stroke-width="1" d="M10 8.5v-1.5"></path>
<path fill="none" stroke="#ffa500" style="stroke: var(--color1, #ffa500)" stroke-linejoin="miter" stroke-linecap="round" stroke-miterlimit="4" stroke-width="1" d="M13.182 9.818l1.061-1.061"></path>
<path fill="none" stroke="#ffa500" style="stroke: var(--color1, #ffa500)" stroke-linejoin="miter" stroke-linecap="round" stroke-miterlimit="4" stroke-width="1" d="M14.5 13h1.5"></path>
<path fill="none" stroke="#ffa500" style="stroke: var(--color1, #ffa500)" stroke-linejoin="miter" stroke-linecap="round" stroke-miterlimit="4" stroke-width="1" d="M13.182 16.182l1.061 1.061"></path>
<path fill="#ffa500" style="fill: var(--color1, #ffa500); stroke: var(--color1, #ffa500)" stroke="#ffa500" stroke-linejoin="miter" stroke-linecap="butt" stroke-miterlimit="4" stroke-width="1" d="M12.5 13c0 1.381-1.119 2.5-2.5 2.5s-2.5-1.119-2.5-2.5c0-1.381 1.119-2.5 2.5-2.5s2.5 1.119 2.5 2.5z"></path>
<path fill="#57a0ee" style="fill: var(--color5, #57a0ee); stroke: var(--color3, #fff)" stroke="#fff" stroke-linejoin="round" stroke-linecap="butt" stroke-miterlimit="4" stroke-width="0.6" d="M23.85 17.2c0-2.3-1.85-4.1-4.1-4.1-0.5 0-0.95 0.1-1.4 0.25-0.15-1.7-1.55-3.1-3.3-3.1-1.85 0-3.35 1.5-3.35 3.35 0 0.4 0.1 0.8 0.2 1.15-0.15-0.050-0.35-0.050-0.5-0.050-1.85 0-3.35 1.5-3.35 3.35 0 1.8 1.45 3.3 3.25 3.35h8.6c2.2-0.25 3.95-2 3.95-4.2z"></path>
<path fill="none" stroke="#57a0ee" style="stroke: var(--color5, #57a0ee)" stroke-linejoin="miter" stroke-linecap="round" stroke-miterlimit="4" stroke-width="0.6" d="M13.5 22.25v2.5"></path>
<path fill="none" stroke="#57a0ee" style="stroke: var(--color5, #57a0ee)" stroke-linejoin="miter" stroke-linecap="round" stroke-miterlimit="4" stroke-width="0.5" d="M14.384 22.616l-1.768 1.768"></path>
<path fill="none" stroke="#57a0ee" style="stroke: var(--color5, #57a0ee)" stroke-linejoin="miter" stroke-linecap="round" stroke-miterlimit="4" stroke-width="0.5" d="M14.75 23.5h-2.5"></path>
<path fill="none" stroke="#57a0ee" style="stroke: var(--color5, #57a0ee)" stroke-linejoin="miter" stroke-linecap="round" stroke-miterlimit="4" stroke-width="0.5" d="M14.384 24.384l-1.768-1.768"></path>
<path fill="none" stroke="#57a0ee" style="stroke: var(--color5, #57a0ee)" stroke-linejoin="miter" stroke-linecap="round" stroke-miterlimit="4" stroke-width="0.6" d="M18 22.25v2.5"></path>
<path fill="none" stroke="#57a0ee" style="stroke: var(--color5, #57a0ee)" stroke-linejoin="miter" stroke-linecap="round" stroke-miterlimit="4" stroke-width="0.5" d="M18.884 22.616l-1.768 1.768"></path>
<path fill="none" stroke="#57a0ee" style="stroke: var(--color5, #57a0ee)" stroke-linejoin="miter" stroke-linecap="round" stroke-miterlimit="4" stroke-width="0.5" d="M19.25 23.5h-2.5"></path>
<path fill="none" stroke="#57a0ee" style="stroke: var(--color5, #57a0ee)" stroke-linejoin="miter" stroke-linecap="round" stroke-miterlimit="4" stroke-width="0.5" d="M18.884 24.384l-1.768-1.768"></path>
</symbol>
<symbol id="snowy" viewBox="0 0 32 32">
<path fill="#57a0ee" style="fill: var(--color5, #57a0ee); stroke: var(--color3, #fff)" stroke="#fff" stroke-linejoin="round" stroke-linecap="butt" stroke-miterlimit="4" stroke-width="0.6" d="M23.85 17.2c0-2.3-1.85-4.1-4.1-4.1-0.5 0-0.95 0.1-1.4 0.25-0.15-1.7-1.55-3.1-3.3-3.1-1.85 0-3.35 1.5-3.35 3.35 0 0.4 0.1 0.8 0.2 1.15-0.15-0.050-0.35-0.050-0.5-0.050-1.85 0-3.35 1.5-3.35 3.35 0 1.8 1.45 3.3 3.25 3.35h8.6c2.2-0.25 3.95-2 3.95-4.2z"></path>
<path fill="none" stroke="#57a0ee" style="stroke: var(--color5, #57a0ee)" stroke-linejoin="miter" stroke-linecap="round" stroke-miterlimit="4" stroke-width="0.6" d="M11.5 22.25v2.5"></path>
<path fill="none" stroke="#57a0ee" style="stroke: var(--color5, #57a0ee)" stroke-linejoin="miter" stroke-linecap="round" stroke-miterlimit="4" stroke-width="0.5" d="M12.384 22.616l-1.768 1.768"></path>
<path fill="none" stroke="#57a0ee" style="stroke: var(--color5, #57a0ee)" stroke-linejoin="miter" stroke-linecap="round" stroke-miterlimit="4" stroke-width="0.5" d="M12.75 23.5h-2.5"></path>
<path fill="none" stroke="#57a0ee" style="stroke: var(--color5, #57a0ee)" stroke-linejoin="miter" stroke-linecap="round" stroke-miterlimit="4" stroke-width="0.5" d="M12.384 24.384l-1.768-1.768"></path>
<path fill="none" stroke="#57a0ee" style="stroke: var(--color5, #57a0ee)" stroke-linejoin="miter" stroke-linecap="round" stroke-miterlimit="4" stroke-width="0.6" d="M15.5 22.25v2.5"></path>
<path fill="none" stroke="#57a0ee" style="stroke: var(--color5, #57a0ee)" stroke-linejoin="miter" stroke-linecap="round" stroke-miterlimit="4" stroke-width="0.5" d="M16.384 22.616l-1.768 1.768"></path>
<path fill="none" stroke="#57a0ee" style="stroke: var(--color5, #57a0ee)" stroke-linejoin="miter" stroke-linecap="round" stroke-miterlimit="4" stroke-width="0.5" d="M16.75 23.5h-2.5"></path>
<path fill="none" stroke="#57a0ee" style="stroke: var(--color5, #57a0ee)" stroke-linejoin="miter" stroke-linecap="round" stroke-miterlimit="4" stroke-width="0.5" d="M16.384 24.384l-1.768-1.768"></path>
<path fill="none" stroke="#57a0ee" style="stroke: var(--color5, #57a0ee)" stroke-linejoin="miter" stroke-linecap="round" stroke-miterlimit="4" stroke-width="0.6" d="M20 22.25v2.5"></path>
<path fill="none" stroke="#57a0ee" style="stroke: var(--color5, #57a0ee)" stroke-linejoin="miter" stroke-linecap="round" stroke-miterlimit="4" stroke-width="0.5" d="M20.884 22.616l-1.768 1.768"></path>
<path fill="none" stroke="#57a0ee" style="stroke: var(--color5, #57a0ee)" stroke-linejoin="miter" stroke-linecap="round" stroke-miterlimit="4" stroke-width="0.5" d="M21.25 23.5h-2.5"></path>
<path fill="none" stroke="#57a0ee" style="stroke: var(--color5, #57a0ee)" stroke-linejoin="miter" stroke-linecap="round" stroke-miterlimit="4" stroke-width="0.5" d="M20.884 24.384l-1.768-1.768"></path>
</symbol>
<symbol id="thunder" viewBox="0 0 32 32">
<path fill="#91c0f8" style="fill: var(--color4, #91c0f8); stroke: var(--color3, #fff)" stroke="#fff" stroke-linejoin="round" stroke-linecap="butt" stroke-miterlimit="4" stroke-width="0.6" d="M19.31 12.62c0-1.38-1.11-2.46-2.46-2.46-0.3 0-0.57 0.060-0.84 0.15-0.090-1.020-0.93-1.86-1.98-1.86-1.11 0-2.010 0.9-2.010 2.010 0 0.24 0.060 0.48 0.12 0.69-0.090-0.030-0.21-0.030-0.3-0.030-1.11 0-2.010 0.9-2.010 2.010 0 1.080 0.87 1.98 1.95 2.010h5.16c1.32-0.15 2.37-1.2 2.37-2.52z"></path>
<path fill="#57a0ee" style="fill: var(--color5, #57a0ee); stroke: var(--color3, #fff)" stroke="#fff" stroke-linejoin="round" stroke-linecap="butt" stroke-miterlimit="4" stroke-width="0.6" d="M23.85 17.2c0-2.3-1.85-4.1-4.1-4.1-0.5 0-0.95 0.1-1.4 0.25-0.15-1.7-1.55-3.1-3.3-3.1-1.85 0-3.35 1.5-3.35 3.35 0 0.4 0.1 0.8 0.2 1.15-0.15-0.050-0.35-0.050-0.5-0.050-1.85 0-3.35 1.5-3.35 3.35 0 1.8 1.45 3.3 3.25 3.35h8.6c2.2-0.25 3.95-2 3.95-4.2z"></path>
<path fill="#ffa500" style="fill: var(--color1, #ffa500); stroke: var(--color3, #fff)" stroke="#fff" stroke-linejoin="miter" stroke-linecap="butt" stroke-miterlimit="4" stroke-width="0.5" d="M14.080 17.26h3.72l-2.46 4.32h2.34l-5.28 6.18 2.040-4.62h-2.28z"></path>
</symbol>
<symbol id="weather" viewBox="0 0 32 32">
<path fill="#91c0f8" style="fill: var(--color4, #91c0f8); stroke: var(--color3, #fff)" stroke="#fff" stroke-linejoin="round" stroke-linecap="butt" stroke-miterlimit="4" stroke-width="0.6" d="M19.31 12.62c0-1.38-1.11-2.46-2.46-2.46-0.3 0-0.57 0.060-0.84 0.15-0.090-1.020-0.93-1.86-1.98-1.86-1.11 0-2.010 0.9-2.010 2.010 0 0.24 0.060 0.48 0.12 0.69-0.090-0.030-0.21-0.030-0.3-0.030-1.11 0-2.010 0.9-2.010 2.010 0 1.080 0.87 1.98 1.95 2.010h5.16c1.32-0.15 2.37-1.2 2.37-2.52z"></path>
<path fill="#ffa500" style="fill: var(--color1, #ffa500); stroke: var(--color3, #fff)" stroke="#fff" stroke-linejoin="miter" stroke-linecap="butt" stroke-miterlimit="4" stroke-width="0.5" d="M14.080 17.26h3.72l-2.46 4.32h2.34l-5.28 6.18 2.040-4.62h-2.28z"></path>
<path fill="none" stroke="#ffa500" style="stroke: var(--color1, #ffa500)" stroke-linejoin="miter" stroke-linecap="round" stroke-miterlimit="4" stroke-width="1" d="M16 20.5v1.5"></path>
<path fill="none" stroke="#ffa500" style="stroke: var(--color1, #ffa500)" stroke-linejoin="miter" stroke-linecap="round" stroke-miterlimit="4" stroke-width="1" d="M12.818 19.182l-1.061 1.061"></path>
<path fill="none" stroke="#ffa500" style="stroke: var(--color1, #ffa500)" stroke-linejoin="miter" stroke-linecap="round" stroke-miterlimit="4" stroke-width="1" d="M11.5 16h-1.5"></path>
<path fill="none" stroke="#ffa500" style="stroke: var(--color1, #ffa500)" stroke-linejoin="miter" stroke-linecap="round" stroke-miterlimit="4" stroke-width="1" d="M12.818 12.818l-1.061-1.061"></path>
<path fill="none" stroke="#ffa500" style="stroke: var(--color1, #ffa500)" stroke-linejoin="miter" stroke-linecap="round" stroke-miterlimit="4" stroke-width="1" d="M16 11.5v-1.5"></path>
<path fill="none" stroke="#ffa500" style="stroke: var(--color1, #ffa500)" stroke-linejoin="miter" stroke-linecap="round" stroke-miterlimit="4" stroke-width="1" d="M19.182 12.818l1.061-1.061"></path>
<path fill="none" stroke="#ffa500" style="stroke: var(--color1, #ffa500)" stroke-linejoin="miter" stroke-linecap="round" stroke-miterlimit="4" stroke-width="1" d="M20.5 16h1.5"></path>
<path fill="none" stroke="#ffa500" style="stroke: var(--color1, #ffa500)" stroke-linejoin="miter" stroke-linecap="round" stroke-miterlimit="4" stroke-width="1" d="M19.182 19.182l1.061 1.061"></path>
<path fill="#ffa500" style="fill: var(--color1, #ffa500); stroke: var(--color1, #ffa500)" stroke="#ffa500" stroke-linejoin="miter" stroke-linecap="butt" stroke-miterlimit="4" stroke-width="1" d="M18.5 16c0 1.381-1.119 2.5-2.5 2.5s-2.5-1.119-2.5-2.5c0-1.381 1.119-2.5 2.5-2.5s2.5 1.119 2.5 2.5z"></path>
<path fill="#ffa500" style="fill: var(--color1, #ffa500)" d="M11.65 10.75l0.35 0.6 0.6 0.3-0.6 0.35-0.35 0.6-0.3-0.6-0.6-0.35 0.6-0.3z"></path>
<path fill="#ffa500" style="fill: var(--color1, #ffa500)" d="M21.65 15.75l0.35 0.6 0.6 0.3-0.6 0.35-0.35 0.6-0.3-0.6-0.6-0.35 0.6-0.3z"></path>
<path fill="#ffa500" style="fill: var(--color1, #ffa500); stroke: var(--color1, #ffa500)" stroke="#ffa500" stroke-linejoin="round" stroke-linecap="butt" stroke-miterlimit="4" stroke-width="1" d="M17.25 16.6c0-1.85 1-3.45 2.5-4.35-0.75-0.45-1.6-0.65-2.5-0.65-2.75 0-5 2.25-5 5s2.25 5 5 5c0.9 0 1.75-0.25 2.5-0.65-1.5-0.85-2.5-2.5-2.5-4.35z"></path>
<path fill="none" stroke="#91c0f8" style="stroke: var(--color4, #91c0f8)" stroke-linejoin="miter" stroke-linecap="round" stroke-miterlimit="4" stroke-width="1" d="M15.587 22.508l-0.695 3.939"></path>
<path fill="none" stroke="#ffa500" style="stroke: var(--color1, #ffa500)" stroke-linejoin="miter" stroke-linecap="round" stroke-miterlimit="4" stroke-width="1" d="M10 7.6v-1.8"></path>
<path fill="none" stroke="#ffa500" style="stroke: var(--color1, #ffa500)" stroke-linejoin="miter" stroke-linecap="round" stroke-miterlimit="4" stroke-width="1" d="M13.818 9.182l1.273-1.273"></path>
<path fill="none" stroke="#ffa500" style="stroke: var(--color1, #ffa500)" stroke-linejoin="miter" stroke-linecap="round" stroke-miterlimit="4" stroke-width="1" d="M15.4 13h1.8"></path>
<path fill="none" stroke="#ffa500" style="stroke: var(--color1, #ffa500)" stroke-linejoin="miter" stroke-linecap="round" stroke-miterlimit="4" stroke-width="1" d="M13.818 16.818l1.273 1.273"></path>
<path fill="#ffa500" style="fill: var(--color1, #ffa500); stroke: var(--color1, #ffa500)" stroke="#ffa500" stroke-linejoin="miter" stroke-linecap="butt" stroke-miterlimit="4" stroke-width="1" d="M13 13c0 1.657-1.343 3-3 3s-3-1.343-3-3c0-1.657 1.343-3 3-3s3 1.343 3 3z"></path>
<path fill="#57a0ee" style="fill: var(--color5, #57a0ee); stroke: var(--color3, #fff)" stroke="#fff" stroke-linejoin="round" stroke-linecap="butt" stroke-miterlimit="4" stroke-width="0.75" d="M22.773 17.545c0-1.955-1.573-3.485-3.485-3.485-0.425 0-0.808 0.085-1.19 0.213-0.128-1.445-1.317-2.635-2.805-2.635-1.572 0-2.848 1.275-2.848 2.848 0 0.34 0.085 0.68 0.17 0.977-0.127-0.043-0.297-0.043-0.425-0.043-1.572 0-2.848 1.275-2.848 2.848 0 1.53 1.232 2.805 2.763 2.848h7.31c1.87-0.212 3.358-1.7 3.358-3.57z"></path>
<path fill="none" stroke="#57a0ee" style="stroke: var(--color5, #57a0ee)" stroke-linejoin="miter" stroke-linecap="round" stroke-miterlimit="4" stroke-width="0.6" d="M13.5 21.75v2.5"></path>
<path fill="none" stroke="#57a0ee" style="stroke: var(--color5, #57a0ee)" stroke-linejoin="miter" stroke-linecap="round" stroke-miterlimit="4" stroke-width="0.5" d="M14.384 22.116l-1.768 1.768"></path>
<path fill="none" stroke="#57a0ee" style="stroke: var(--color5, #57a0ee)" stroke-linejoin="miter" stroke-linecap="round" stroke-miterlimit="4" stroke-width="0.5" d="M14.75 23h-2.5"></path>
<path fill="none" stroke="#57a0ee" style="stroke: var(--color5, #57a0ee)" stroke-linejoin="miter" stroke-linecap="round" stroke-miterlimit="4" stroke-width="0.5" d="M14.384 23.884l-1.768-1.768"></path>
<path fill="none" stroke="#57a0ee" style="stroke: var(--color5, #57a0ee)" stroke-linejoin="miter" stroke-linecap="round" stroke-miterlimit="4" stroke-width="0.6" d="M18 21.75v2.5"></path>
<path fill="none" stroke="#57a0ee" style="stroke: var(--color5, #57a0ee)" stroke-linejoin="miter" stroke-linecap="round" stroke-miterlimit="4" stroke-width="0.5" d="M18.884 22.116l-1.768 1.768"></path>
<path fill="none" stroke="#57a0ee" style="stroke: var(--color5, #57a0ee)" stroke-linejoin="miter" stroke-linecap="round" stroke-miterlimit="4" stroke-width="0.5" d="M19.25 23h-2.5"></path>
<path fill="none" stroke="#57a0ee" style="stroke: var(--color5, #57a0ee)" stroke-linejoin="miter" stroke-linecap="round" stroke-miterlimit="4" stroke-width="0.5" d="M18.884 23.884l-1.768-1.768"></path>
<path fill="none" stroke="#ffa500" style="stroke: var(--color1, #ffa500)" stroke-linejoin="miter" stroke-linecap="round" stroke-miterlimit="4" stroke-width="1" d="M6.818 16.182l-1.061 1.061"></path>
<path fill="none" stroke="#ffa500" style="stroke: var(--color1, #ffa500)" stroke-linejoin="miter" stroke-linecap="round" stroke-miterlimit="4" stroke-width="1" d="M6.818 9.818l-1.061-1.061"></path>
<path fill="none" stroke="#ffa500" style="stroke: var(--color1, #ffa500)" stroke-linejoin="miter" stroke-linecap="round" stroke-miterlimit="4" stroke-width="1" d="M10 17.5v1.5"></path>
<path fill="none" stroke="#ffa500" style="stroke: var(--color1, #ffa500)" stroke-linejoin="miter" stroke-linecap="round" stroke-miterlimit="4" stroke-width="1" d="M10 8.5v-1.5"></path>
<path fill="none" stroke="#ffa500" style="stroke: var(--color1, #ffa500)" stroke-linejoin="miter" stroke-linecap="round" stroke-miterlimit="4" stroke-width="1" d="M13.182 9.818l1.061-1.061"></path>
<path fill="none" stroke="#ffa500" style="stroke: var(--color1, #ffa500)" stroke-linejoin="miter" stroke-linecap="round" stroke-miterlimit="4" stroke-width="1" d="M14.5 13h1.5"></path>
<path fill="none" stroke="#ffa500" style="stroke: var(--color1, #ffa500)" stroke-linejoin="miter" stroke-linecap="round" stroke-miterlimit="4" stroke-width="1" d="M13.182 16.182l1.061 1.061"></path>
<path fill="#ffa500" style="fill: var(--color1, #ffa500); stroke: var(--color1, #ffa500)" stroke="#ffa500" stroke-linejoin="miter" stroke-linecap="butt" stroke-miterlimit="4" stroke-width="1" d="M12.5 13c0 1.381-1.119 2.5-2.5 2.5s-2.5-1.119-2.5-2.5c0-1.381 1.119-2.5 2.5-2.5s2.5 1.119 2.5 2.5z"></path>
<path fill="none" stroke="#57a0ee" style="stroke: var(--color5, #57a0ee)" stroke-linejoin="miter" stroke-linecap="round" stroke-miterlimit="4" stroke-width="0.5" d="M14.384 22.616l-1.768 1.768"></path>
<path fill="none" stroke="#57a0ee" style="stroke: var(--color5, #57a0ee)" stroke-linejoin="miter" stroke-linecap="round" stroke-miterlimit="4" stroke-width="0.5" d="M18.884 22.616l-1.768 1.768"></path>
<path fill="none" stroke="#57a0ee" style="stroke: var(--color5, #57a0ee)" stroke-linejoin="miter" stroke-linecap="round" stroke-miterlimit="4" stroke-width="0.5" d="M14.384 24.384l-1.768-1.768"></path>
<path fill="none" stroke="#57a0ee" style="stroke: var(--color5, #57a0ee)" stroke-linejoin="miter" stroke-linecap="round" stroke-miterlimit="4" stroke-width="0.6" d="M18 22.25v2.5"></path>
<path fill="none" stroke="#57a0ee" style="stroke: var(--color5, #57a0ee)" stroke-linejoin="miter" stroke-linecap="round" stroke-miterlimit="4" stroke-width="0.5" d="M19.25 23.5h-2.5"></path>
<path fill="#57a0ee" style="fill: var(--color5, #57a0ee); stroke: var(--color3, #fff)" stroke="#fff" stroke-linejoin="round" stroke-linecap="butt" stroke-miterlimit="4" stroke-width="0.6" d="M23.85 17.2c0-2.3-1.85-4.1-4.1-4.1-0.5 0-0.95 0.1-1.4 0.25-0.15-1.7-1.55-3.1-3.3-3.1-1.85 0-3.35 1.5-3.35 3.35 0 0.4 0.1 0.8 0.2 1.15-0.15-0.050-0.35-0.050-0.5-0.050-1.85 0-3.35 1.5-3.35 3.35 0 1.8 1.45 3.3 3.25 3.35h8.6c2.2-0.25 3.95-2 3.95-4.2z"></path>
<path fill="none" stroke="#57a0ee" style="stroke: var(--color5, #57a0ee)" stroke-linejoin="miter" stroke-linecap="round" stroke-miterlimit="4" stroke-width="0.6" d="M11.5 22.25v2.5"></path>
<path fill="none" stroke="#57a0ee" style="stroke: var(--color5, #57a0ee)" stroke-linejoin="miter" stroke-linecap="round" stroke-miterlimit="4" stroke-width="0.5" d="M12.384 22.616l-1.768 1.768"></path>
<path fill="none" stroke="#57a0ee" style="stroke: var(--color5, #57a0ee)" stroke-linejoin="miter" stroke-linecap="round" stroke-miterlimit="4" stroke-width="0.5" d="M12.75 23.5h-2.5"></path>
<path fill="none" stroke="#57a0ee" style="stroke: var(--color5, #57a0ee)" stroke-linejoin="miter" stroke-linecap="round" stroke-miterlimit="4" stroke-width="0.5" d="M12.384 24.384l-1.768-1.768"></path>
<path fill="none" stroke="#57a0ee" style="stroke: var(--color5, #57a0ee)" stroke-linejoin="miter" stroke-linecap="round" stroke-miterlimit="4" stroke-width="0.6" d="M15.5 22.25v2.5"></path>
<path fill="none" stroke="#57a0ee" style="stroke: var(--color5, #57a0ee)" stroke-linejoin="miter" stroke-linecap="round" stroke-miterlimit="4" stroke-width="0.5" d="M16.384 22.616l-1.768 1.768"></path>
<path fill="none" stroke="#57a0ee" style="stroke: var(--color5, #57a0ee)" stroke-linejoin="miter" stroke-linecap="round" stroke-miterlimit="4" stroke-width="0.5" d="M16.75 23.5h-2.5"></path>
<path fill="none" stroke="#57a0ee" style="stroke: var(--color5, #57a0ee)" stroke-linejoin="miter" stroke-linecap="round" stroke-miterlimit="4" stroke-width="0.5" d="M16.384 24.384l-1.768-1.768"></path>
<path fill="none" stroke="#57a0ee" style="stroke: var(--color5, #57a0ee)" stroke-linejoin="miter" stroke-linecap="round" stroke-miterlimit="4" stroke-width="0.6" d="M20 22.25v2.5"></path>
<path fill="none" stroke="#57a0ee" style="stroke: var(--color5, #57a0ee)" stroke-linejoin="miter" stroke-linecap="round" stroke-miterlimit="4" stroke-width="0.5" d="M20.884 22.616l-1.768 1.768"></path>
<path fill="none" stroke="#57a0ee" style="stroke: var(--color5, #57a0ee)" stroke-linejoin="miter" stroke-linecap="round" stroke-miterlimit="4" stroke-width="0.5" d="M21.25 23.5h-2.5"></path>
<path fill="none" stroke="#57a0ee" style="stroke: var(--color5, #57a0ee)" stroke-linejoin="miter" stroke-linecap="round" stroke-miterlimit="4" stroke-width="0.5" d="M20.884 24.384l-1.768-1.768"></path>
</symbol>
<symbol id="elipse" viewBox="0 0 32 32">
<path fill="none" stroke-opacity="1" stroke="#fbfbfb" style="stroke: var(--color1, #fbfbfb)" stroke-linejoin="miter" stroke-linecap="butt" stroke-miterlimit="4" stroke-width="0.3404" d="M31.83 16c0 8.743-7.087 15.83-15.83 15.83s-15.83-7.087-15.83-15.83c0-8.743 7.087-15.83 15.83-15.83s15.83 7.087 15.83 15.83z"></path>
<path fill="none" stroke-opacity=".75" stroke="#fbfbfb" style="stroke: var(--color1, #fbfbfb)" stroke-linejoin="miter" stroke-linecap="butt" stroke-miterlimit="4" stroke-width="0.3404" d="M30.128 16c0 7.803-6.325 14.128-14.128 14.128s-14.128-6.325-14.128-14.128c0-7.803 6.325-14.128 14.128-14.128s14.128 6.325 14.128 14.128z"></path>
<path fill="none" stroke-opacity=".5" stroke="#fbfbfb" style="stroke: var(--color1, #fbfbfb)" stroke-linejoin="miter" stroke-linecap="butt" stroke-miterlimit="4" stroke-width="0.3404" d="M28.426 16c0 6.862-5.563 12.426-12.426 12.426s-12.426-5.563-12.426-12.426c0-6.862 5.563-12.426 12.426-12.426s12.426 5.563 12.426 12.426z"></path>
</symbol>
<symbol id="sun" viewBox="0 0 32 32">
<path fill="#f47c6d" style="fill: var(--color1, #f47c6d)" d="M16 6.351c5.22 0 9.463 4.247 9.463 9.467s-4.243 9.467-9.463 9.467-9.467-4.247-9.467-9.467 4.247-9.467 9.467-9.467z"></path>
<path fill="#2d213f" style="fill: var(--color2, #2d213f)" d="M31 15c0.552 0 1 0.448 1 1s-0.448 1-1 1h-1.815c-0.552 0-1-0.448-1-1s0.448-1 1-1c0 0 1.815 0 1.815 0z"></path>
<path fill="#2d213f" style="fill: var(--color2, #2d213f)" d="M16 4.351c6.321 0 11.467 5.143 11.467 11.467s-5.147 11.467-11.467 11.467c-6.324 0-11.467-5.143-11.467-11.467s5.143-11.467 11.467-11.467zM25.463 15.819c0-5.22-4.243-9.467-9.463-9.467s-9.467 4.247-9.467 9.467 4.247 9.467 9.467 9.467 9.463-4.247 9.463-9.467z"></path>
<path fill="#2d213f" style="fill: var(--color2, #2d213f)" d="M27.313 4.687c0.39 0.39 0.39 1.023 0 1.413l-1.282 1.286c-0.197 0.193-0.452 0.29-0.707 0.29-0.259 0-0.514-0.097-0.71-0.29-0.39-0.394-0.39-1.027 0-1.417l1.286-1.282c0.39-0.39 1.023-0.39 1.413 0z"></path>
<path fill="#2d213f" style="fill: var(--color2, #2d213f)" d="M27.313 25.9c0.39 0.39 0.39 1.023 0 1.413-0.193 0.197-0.452 0.293-0.707 0.293s-0.514-0.097-0.707-0.293l-1.286-1.282c-0.39-0.39-0.39-1.023 0-1.413 0.394-0.394 1.027-0.394 1.417 0l1.282 1.282z"></path>
<path fill="#2d213f" style="fill: var(--color2, #2d213f)" d="M17 29.185v1.815c0 0.552-0.448 1-1 1s-1-0.448-1-1v-1.815c0-0.552 0.448-1 1-1s1 0.448 1 1z"></path>
<path fill="#2d213f" style="fill: var(--color2, #2d213f)" d="M17 1v1.815c0 0.552-0.448 1-1 1s-1-0.448-1-1v-1.815c0-0.552 0.448-1 1-1s1 0.448 1 1z"></path>
<path fill="#2d213f" style="fill: var(--color2, #2d213f)" d="M7.382 5.969c0.394 0.39 0.394 1.023 0 1.417-0.193 0.193-0.452 0.29-0.707 0.29s-0.514-0.097-0.707-0.29l-1.282-1.286c-0.394-0.39-0.394-1.023 0-1.413 0.39-0.39 1.023-0.39 1.413 0l1.282 1.282z"></path>
<path fill="#2d213f" style="fill: var(--color2, #2d213f)" d="M7.382 24.618c0.394 0.39 0.394 1.023 0 1.413l-1.282 1.282c-0.193 0.197-0.452 0.293-0.707 0.293s-0.514-0.097-0.707-0.293c-0.394-0.39-0.394-1.023 0-1.413l1.282-1.282c0.39-0.394 1.023-0.394 1.413 0z"></path>
<path fill="#2d213f" style="fill: var(--color2, #2d213f)" d="M2.815 15c0.552 0 1 0.448 1 1s-0.448 1-1 1h-1.815c-0.552 0-1-0.448-1-1s0.448-1 1-1c0 0 1.815 0 1.815 0z"></path>
<path fill="#ef685e" style="fill: var(--color3, #ef685e)" d="M14.526 6.467c4.886 2.050 9.174 6.69 8.813 15.321 1.327-1.63 2.124-3.708 2.124-5.969 0-5.22-4.243-9.467-9.463-9.467-0.501 0-0.993 0.040-1.474 0.115z"></path>
</symbol>
<symbol id="planet-earth" viewBox="0 0 32 32">
<path fill="#94c949" style="fill: var(--color1, #94c949)" d="M30.031 16.002c0 2.119-0.476 4.133-1.322 5.938-0.46-0.307-0.906-0.648-1.322-0.977-0.955-0.745-1.632-1.752-2.201-3.272-0.577-1.543-0.887-2.741-0.655-3.942 0.146-0.764 0.76-1.348 1.471-2.022 0.348-0.329 0.704-0.666 1.045-1.060 0.445-0.517 0.738-1.179 1.011-1.835 1.25 2.1 1.973 4.553 1.973 7.17z"></path>
<path fill="#a3d661" style="fill: var(--color2, #a3d661)" d="M17.338 29.443c0.142 0.165 0.281 0.322 0.408 0.476-0.573 0.071-1.153 0.112-1.745 0.112-3.905 0-7.443-1.606-9.989-4.19 0.202-0.090 0.404-0.187 0.61-0.3 0.651-0.356 1.191-0.936 1.715-1.498 0.621-0.666 1.265-1.355 1.838-1.355l0.363-0.004c0.127 0 0.255 0 0.389 0 1.404 0 3.145 0.041 4.066 0.543 0.371 0.202 0.509 1.393 0.603 2.183 0.116 0.955 0.232 1.939 0.681 2.673 0.307 0.506 0.693 0.94 1.059 1.359z"></path>
<path fill="#a3d661" style="fill: var(--color2, #a3d661)" d="M17.136 3.036c0 0.547-0.445 0.977-1.176 1.636-0.502 0.449-1.018 0.917-1.393 1.528-0.434 0.711-0.565 1.572-0.693 2.404s-0.258 1.688-0.655 1.902c-1.007 0.554-2.621 0.547-4.040 0.547l-0.359-0.004c-1.426 0-2.931-0.374-4.13-1.033-0.363-0.195-0.689-0.46-0.988-0.764 2.389-4.336 7.005-7.282 12.299-7.282 0.258 0 0.517 0.007 0.771 0.022 0.221 0.337 0.363 0.678 0.363 1.045z"></path>
<path fill="#aae1e9" style="fill: var(--color3, #aae1e9)" d="M26.171 22.513c0.476 0.374 1.003 0.779 1.576 1.153-1.827 2.786-4.613 4.882-7.889 5.822-0.303-0.498-0.681-0.936-1.041-1.344-0.329-0.374-0.636-0.726-0.857-1.086-0.225-0.367-0.322-1.172-0.404-1.883-0.169-1.397-0.356-2.984-1.614-3.673-1.453-0.794-3.647-0.786-5.406-0.783h-0.359c-1.43 0-2.411 1.052-3.28 1.981-0.416 0.445-0.846 0.91-1.221 1.116-0.314 0.169-0.648 0.314-0.992 0.464-1.704-2.325-2.714-5.185-2.714-8.278 0-1.715 0.311-3.358 0.876-4.878 0.277 0.228 0.573 0.442 0.899 0.621 1.501 0.82 3.306 1.273 5.077 1.273l0.356 0.004c0.124 0 0.251 0 0.374 0 1.565 0 3.272-0.052 4.616-0.786 1.247-0.685 1.475-2.153 1.655-3.332 0.097-0.64 0.198-1.303 0.427-1.674 0.225-0.371 0.614-0.723 1.030-1.093 0.812-0.734 1.827-1.647 1.827-3.1 0-0.262-0.034-0.502-0.086-0.738 3.063 0.678 5.751 2.351 7.705 4.669-0.15 0.314-0.285 0.633-0.416 0.943-0.236 0.565-0.476 1.146-0.756 1.471-0.273 0.315-0.58 0.607-0.906 0.914-0.835 0.794-1.782 1.692-2.052 3.078-0.352 1.835 0.202 3.546 0.749 5.010 0.693 1.849 1.591 3.164 2.827 4.13z"></path>
<path fill="#2d213f" style="fill: var(--color4, #2d213f)" d="M16.002 0c8.821 0 15.998 7.177 15.998 16.002 0 8.821-7.177 15.998-15.998 15.998-8.825 0-16.002-7.177-16.002-15.998 0-8.825 7.177-16.002 16.002-16.002zM28.709 21.94c0.846-1.805 1.322-3.819 1.322-5.938 0-2.617-0.723-5.069-1.973-7.17-0.273 0.655-0.565 1.318-1.011 1.835-0.341 0.393-0.696 0.73-1.045 1.060-0.711 0.674-1.325 1.258-1.471 2.022-0.232 1.202 0.079 2.4 0.655 3.942 0.569 1.52 1.247 2.527 2.201 3.272 0.416 0.33 0.861 0.67 1.322 0.977zM27.747 23.666c-0.573-0.374-1.101-0.779-1.576-1.153-1.236-0.966-2.134-2.28-2.827-4.13-0.547-1.464-1.101-3.175-0.749-5.010 0.27-1.385 1.217-2.284 2.052-3.078 0.326-0.307 0.633-0.599 0.906-0.914 0.281-0.326 0.52-0.906 0.756-1.471 0.131-0.311 0.266-0.629 0.416-0.943-1.954-2.317-4.643-3.991-7.705-4.669 0.052 0.236 0.086 0.476 0.086 0.738 0 1.453-1.015 2.366-1.827 3.1-0.416 0.371-0.805 0.723-1.030 1.093-0.228 0.371-0.329 1.033-0.427 1.674-0.18 1.179-0.408 2.647-1.655 3.332-1.344 0.734-3.051 0.786-4.616 0.786-0.124 0-0.251 0-0.374 0l-0.356-0.004c-1.771 0-3.576-0.453-5.077-1.273-0.326-0.18-0.622-0.393-0.899-0.621-0.565 1.52-0.876 3.164-0.876 4.878 0 3.093 1.011 5.953 2.714 8.278 0.344-0.15 0.678-0.296 0.992-0.464 0.374-0.206 0.805-0.67 1.221-1.116 0.869-0.928 1.85-1.981 3.28-1.981h0.359c1.76-0.004 3.954-0.011 5.406 0.783 1.258 0.689 1.445 2.276 1.614 3.673 0.082 0.711 0.18 1.516 0.404 1.883 0.221 0.359 0.528 0.711 0.857 1.086 0.359 0.408 0.738 0.846 1.041 1.344 3.276-0.94 6.062-3.036 7.889-5.822zM17.747 29.918c-0.127-0.154-0.266-0.311-0.408-0.476-0.367-0.419-0.753-0.854-1.060-1.359-0.449-0.734-0.565-1.719-0.681-2.673-0.094-0.79-0.232-1.981-0.603-2.183-0.921-0.502-2.662-0.543-4.066-0.543-0.135 0-0.262 0-0.389 0l-0.363 0.004c-0.573 0-1.217 0.689-1.838 1.355-0.524 0.562-1.063 1.142-1.715 1.498-0.206 0.112-0.408 0.21-0.61 0.3 2.546 2.583 6.084 4.19 9.989 4.19 0.592-0 1.172-0.041 1.745-0.112zM15.961 4.672c0.73-0.659 1.176-1.090 1.176-1.636 0-0.367-0.142-0.708-0.363-1.045-0.255-0.015-0.513-0.022-0.771-0.022-5.294 0-9.91 2.947-12.299 7.282 0.3 0.303 0.625 0.569 0.988 0.764 1.198 0.659 2.703 1.033 4.13 1.033l0.359 0.004c1.419 0 3.033 0.007 4.040-0.547 0.397-0.213 0.528-1.071 0.655-1.902s0.258-1.692 0.693-2.404c0.374-0.61 0.891-1.078 1.393-1.528z"></path>
<path fill="#94c949" style="fill: var(--color1, #94c949)" d="M15.844 4.779c0.039-0.035 0.078-0.072 0.117-0.106 0.73-0.659 1.176-1.090 1.176-1.636 0-0.367-0.142-0.708-0.363-1.045-0.255-0.015-0.513-0.022-0.771-0.022-0.918 0-1.814 0.094-2.683 0.263 0.835 0.735 1.688 1.58 2.525 2.546z"></path>
<path fill="#92c1ca" style="fill: var(--color5, #92c1ca)" d="M27.747 23.666c-0.573-0.374-1.101-0.779-1.576-1.153-1.236-0.966-2.134-2.28-2.827-4.13-0.547-1.464-1.101-3.175-0.749-5.010 0.27-1.385 1.217-2.284 2.052-3.078 0.326-0.307 0.633-0.599 0.906-0.914 0.281-0.326 0.52-0.906 0.756-1.471 0.131-0.311 0.266-0.629 0.416-0.943-1.954-2.317-4.643-3.991-7.705-4.669 0.052 0.236 0.086 0.476 0.086 0.738 0 1.453-1.015 2.366-1.827 3.1-0.068 0.061-0.134 0.121-0.2 0.181 3.486 4.703 6.284 11.775 5.417 22.11 2.129-1.117 3.938-2.759 5.251-4.761z"></path>
</symbol>
<symbol id="temp-max" viewBox="0 0 32 32">
<path fill="#f4b2b0" style="fill: var(--color5, #f4b2b0)" d="M17.579 23.842c0 2.069-1.677 3.746-3.746 3.746s-3.746-1.677-3.746-3.746c0-2.069 1.677-3.746 3.746-3.746s3.746 1.677 3.746 3.746z"></path>
<path fill="#b3404a" style="fill: var(--color6, #b3404a)" d="M13.833 28.499c-2.568 0-4.658-2.089-4.658-4.657s2.089-4.657 4.657-4.657 4.657 2.089 4.657 4.657-2.089 4.657-4.657 4.657zM13.833 21.007c-1.563 0-2.835 1.272-2.835 2.835s1.272 2.835 2.835 2.835 2.835-1.272 2.835-2.835-1.272-2.835-2.835-2.835z"></path>
<path fill="#b3404a" style="fill: var(--color6, #b3404a)" d="M13.835 32c-0.066 0-0.133-0.001-0.199-0.002-4.396-0.104-7.967-3.767-7.961-8.167 0.004-2.912 1.526-5.55 4.009-7.013v-13.139c0-2.028 1.65-3.679 3.679-3.679h0.94c2.028 0 3.678 1.65 3.678 3.679 0 0.503-0.408 0.911-0.911 0.911s-0.911-0.408-0.911-0.911c0-1.024-0.833-1.856-1.856-1.856h-0.94c-1.024 0-1.856 0.833-1.856 1.856v13.68c0 0.345-0.195 0.66-0.503 0.815-2.159 1.080-3.503 3.249-3.506 5.66-0.005 3.417 2.769 6.262 6.182 6.343 1.722 0.039 3.35-0.599 4.58-1.801s1.909-2.812 1.909-4.533c0-1.034-0.255-2.060-0.736-2.966-0.236-0.444-0.067-0.996 0.377-1.232s0.996-0.067 1.232 0.377c0.621 1.169 0.949 2.49 0.949 3.821 0 2.216-0.873 4.288-2.458 5.837-1.537 1.501-3.554 2.321-5.698 2.321z"></path>
<path fill="#b3404a" style="fill: var(--color6, #b3404a)" d="M13.833 17.702c-0.503 0-0.911-0.408-0.911-0.911v-7.352c0-0.503 0.408-0.911 0.911-0.911s0.911 0.408 0.911 0.911v7.352c-0 0.503-0.408 0.911-0.911 0.911z"></path>
<path fill="#b3404a" style="fill: var(--color6, #b3404a)" d="M25.414 12.144h-7.433v-1.913h4.051c0.503 0 0.911-0.408 0.911-0.911s-0.408-0.911-0.911-0.911h-4.871c-0.016 0-0.031 0.002-0.046 0.002-0.015-0.001-0.030-0.002-0.045-0.002-0.503 0-0.911 0.408-0.911 0.911v7.471c0 0.503 0.408 0.911 0.911 0.911 0.015 0 0.030-0.002 0.046-0.002 0.015 0.001 0.030 0.002 0.046 0.002h4.871c0.503 0 0.911-0.408 0.911-0.911s-0.408-0.911-0.911-0.911h-4.051v-1.913h7.433c0.503 0 0.911-0.408 0.911-0.911s-0.408-0.911-0.911-0.911z"></path>
<path fill="#b3404a" style="fill: var(--color6, #b3404a)" d="M21.293 1.438c-0.549 0-0.867 0.308-0.867 0.963v2.553c0 0.655 0.318 0.963 0.877 0.963 0.771 0 0.819-0.588 0.848-0.963 0.029-0.356 0.357-0.453 0.742-0.453 0.52 0 0.761 0.135 0.761 0.713 0 1.282-1.041 2.014-2.418 2.014-1.262 0-2.312-0.617-2.312-2.274v-2.553c0-1.657 1.050-2.274 2.312-2.274 1.378 0 2.418 0.694 2.418 1.917 0 0.578-0.241 0.713-0.752 0.713-0.405 0-0.732-0.106-0.752-0.453-0.010-0.25-0.039-0.867-0.858-0.867z"></path>
</symbol>
<symbol id="temp-min" viewBox="0 0 32 32">
<path fill="#cee8fa" style="fill: var(--color3, #cee8fa)" d="M17.579 23.842c0 2.069-1.677 3.746-3.746 3.746s-3.746-1.677-3.746-3.746c0-2.069 1.677-3.746 3.746-3.746s3.746 1.677 3.746 3.746z"></path>
<path fill="#2d527c" style="fill: var(--color4, #2d527c)" d="M13.833 28.499c-2.568 0-4.658-2.089-4.658-4.657s2.089-4.657 4.657-4.657 4.657 2.089 4.657 4.657-2.089 4.657-4.657 4.657zM13.833 21.007c-1.563 0-2.835 1.272-2.835 2.835s1.272 2.835 2.835 2.835 2.835-1.272 2.835-2.835-1.272-2.835-2.835-2.835z"></path>
<path fill="#2d527c" style="fill: var(--color4, #2d527c)" d="M13.835 32c-0.066 0-0.133-0.001-0.199-0.002-4.396-0.104-7.967-3.767-7.961-8.167 0.004-2.912 1.526-5.55 4.009-7.013v-13.139c0-2.028 1.65-3.679 3.679-3.679h0.94c2.028 0 3.678 1.65 3.678 3.679 0 0.503-0.408 0.911-0.911 0.911s-0.911-0.408-0.911-0.911c0-1.024-0.833-1.856-1.856-1.856h-0.94c-1.024 0-1.856 0.833-1.856 1.856v13.68c0 0.345-0.195 0.66-0.503 0.815-2.159 1.080-3.503 3.249-3.506 5.66-0.005 3.417 2.769 6.262 6.182 6.343 1.722 0.039 3.35-0.599 4.58-1.801s1.909-2.812 1.909-4.533c0-1.034-0.255-2.060-0.736-2.966-0.236-0.444-0.067-0.996 0.377-1.232s0.996-0.067 1.232 0.377c0.621 1.169 0.949 2.49 0.949 3.821 0 2.216-0.873 4.288-2.458 5.837-1.537 1.501-3.554 2.321-5.698 2.321z"></path>
<path fill="#2d527c" style="fill: var(--color4, #2d527c)" d="M13.833 17.702c-0.503 0-0.911-0.408-0.911-0.911v-7.352c0-0.503 0.408-0.911 0.911-0.911s0.911 0.408 0.911 0.911v7.352c-0 0.503-0.408 0.911-0.911 0.911z"></path>
<path fill="#2d527c" style="fill: var(--color4, #2d527c)" d="M25.414 12.144h-7.433v-1.913h4.051c0.503 0 0.911-0.408 0.911-0.911s-0.408-0.911-0.911-0.911h-4.871c-0.016 0-0.031 0.002-0.046 0.002-0.015-0.001-0.030-0.002-0.045-0.002-0.503 0-0.911 0.408-0.911 0.911v7.471c0 0.503 0.408 0.911 0.911 0.911 0.015 0 0.030-0.002 0.046-0.002 0.015 0.001 0.030 0.002 0.046 0.002h4.871c0.503 0 0.911-0.408 0.911-0.911s-0.408-0.911-0.911-0.911h-4.051v-1.913h7.433c0.503 0 0.911-0.408 0.911-0.911s-0.408-0.911-0.911-0.911z"></path>
<path fill="#2d527c" style="fill: var(--color4, #2d527c)" d="M21.293 1.438c-0.549 0-0.867 0.308-0.867 0.963v2.553c0 0.655 0.318 0.963 0.877 0.963 0.771 0 0.819-0.588 0.848-0.963 0.029-0.356 0.357-0.453 0.742-0.453 0.52 0 0.761 0.135 0.761 0.713 0 1.282-1.041 2.014-2.418 2.014-1.262 0-2.312-0.617-2.312-2.274v-2.553c0-1.657 1.050-2.274 2.312-2.274 1.378 0 2.418 0.694 2.418 1.917 0 0.578-0.241 0.713-0.752 0.713-0.405 0-0.732-0.106-0.752-0.453-0.010-0.25-0.039-0.867-0.858-0.867z"></path>
</symbol>
<symbol id="temp-celsium" viewBox="0 0 32 32">
<path fill="#ffb44a" style="fill: var(--color1, #ffb44a)" d="M31.363 16c0 8.485-6.878 15.363-15.363 15.363s-15.363-6.878-15.363-15.363c0-8.485 6.878-15.363 15.363-15.363s15.363 6.878 15.363 15.363z"></path>
<path fill="#3d3d3d" style="fill: var(--color2, #3d3d3d)" d="M16 32c-4.274 0-8.292-1.664-11.314-4.686s-4.686-7.040-4.686-11.314 1.664-8.292 4.686-11.314 7.040-4.686 11.314-4.686 8.292 1.664 11.314 4.686 4.686 7.040 4.686 11.314-1.664 8.292-4.686 11.314-7.040 4.686-11.314 4.686zM16 1.275c-8.119 0-14.725 6.606-14.725 14.725s6.606 14.725 14.725 14.725 14.725-6.606 14.725-14.725-6.606-14.725-14.725-14.725z"></path>
<path fill="#3d3d3d" style="fill: var(--color2, #3d3d3d)" d="M18.012 10.555c-1.91 0-2.957 0.986-2.957 3.121v6.366c0 2.156 1.047 3.142 3.039 3.142 2.444 0 2.67-1.54 2.793-2.526 0.041-0.329 0.246-0.534 0.678-0.534 0.472 0 0.678 0.164 0.678 0.842 0 1.869-1.581 3.47-4.292 3.47-2.32 0-4.251-1.191-4.251-4.395v-6.366c0-3.183 1.971-4.374 4.312-4.374 2.69 0 4.23 1.581 4.23 3.429 0 0.678-0.205 0.821-0.678 0.821s-0.657-0.226-0.678-0.513c-0.041-0.883-0.431-2.485-2.875-2.485z"></path>
<path fill="#3d3d3d" style="fill: var(--color2, #3d3d3d)" d="M9.752 10.491c-0.299 0-0.565-0.211-0.625-0.515-0.068-0.345 0.158-0.68 0.503-0.748 0.166-0.032 0.335-0.049 0.505-0.049 0.352 0 0.637 0.285 0.637 0.637s-0.285 0.637-0.637 0.637c-0.088 0-0.175 0.008-0.26 0.025-0.041 0.008-0.083 0.012-0.123 0.012z"></path>
<path fill="#3d3d3d" style="fill: var(--color2, #3d3d3d)" d="M10.135 14.406c-1.441 0-2.614-1.172-2.614-2.614 0-0.319 0.057-0.631 0.17-0.927 0.125-0.329 0.493-0.495 0.822-0.37s0.495 0.493 0.37 0.822c-0.057 0.151-0.086 0.311-0.086 0.475 0 0.738 0.601 1.339 1.339 1.339s1.339-0.601 1.339-1.339c0-0.352 0.285-0.637 0.637-0.637s0.637 0.285 0.637 0.637c0 1.441-1.172 2.614-2.614 2.614z"></path>
</symbol>
<symbol id="umbrella" viewBox="0 0 32 32">
<path fill="#324d5b" style="fill: var(--color1, #324d5b)" d="M15.021 10l-0.006 18.913c0 0.697-0.705 1.264-1.494 1.264s-1.432-0.564-1.432-1.264c0-0.502-0.463-0.912-1.035-0.912-0.57 0-1.033 0.41-1.033 0.912 0 0.826 0.363 1.602 1.025 2.186 0.662 0.581 1.54 0.901 2.475 0.901s1.813-0.32 2.475-0.904c0.654-0.576 1.016-1.342 1.021-2.156l0.004-0.002v-18.938h-2z"></path>
<path fill="#3db39e" style="fill: var(--color2, #3db39e)" d="M15.945 0c-8.133 0-14.853 6.169-15.924 13.972 0.905-0.27 2.871-1.018 3.963-1.018 2.93 0 5.159 1.533 5.992 3.043l0.003 0.001 0.001-0.003c0.833-1.508 3.16-3.010 6.089-3.010 2.93 0 5.158 1.502 5.992 3.010l0.006 0.005 0.004-0.004c0 0 3.002-3.010 5.931-3.010 1.253 0 2.983 0.641 3.978 0.988-1.014-7.864-7.855-13.974-16.035-13.974z"></path>
<path fill="#318f7e" style="fill: var(--color3, #318f7e)" d="M16.222 0.013l-0.039-0.001c-4.009 2.263-6.182 7.241-6.202 15.987l0.001-0.003c0.833-1.508 3.16-3.010 6.089-3.010 2.93 0 5.159 1.502 5.993 3.010-0.017-8.744-1.818-13.517-5.842-15.983z"></path>
</symbol>
<symbol id="svg-repo" viewBox="0 0 106 32">
<path fill="#6b9bd2" style="fill: var(--color1, #6b9bd2)" d="M80.18 0h21.36c1.66 0 3.005 1.345 3.005 3.005v0 25.99c0 1.66-1.345 3.005-3.005 3.005v0h-21.36c-1.66 0-3.005-1.345-3.005-3.005v0-25.99c0-1.66 1.345-3.005 3.005-3.005v0z"></path>
<path fill="#575880" style="fill: var(--color2, #575880)" d="M1.446 26.511c0.184-0.202 0.357-0.422 0.515-0.654l0.013-0.021q0.528-0.708 1.184-1.548 0.765-0.983 1.745-2.224c0.568 0.407 1.223 0.817 1.903 1.189l0.101 0.051c0.527 0.292 1.151 0.575 1.798 0.809l0.093 0.029c0.573 0.221 1.236 0.355 1.929 0.365l0.005 0c0.397-0.002 0.779-0.062 1.14-0.172l-0.028 0.007c0.387-0.112 0.725-0.267 1.034-0.465l-0.016 0.009c0.294-0.187 0.542-0.417 0.742-0.685l0.005-0.007c0.182-0.24 0.291-0.544 0.291-0.873v0c-0.053-0.861-0.55-1.595-1.263-1.981l-0.013-0.006c-0.9-0.594-1.933-1.128-3.022-1.549l-0.112-0.038c-0.962-0.397-1.759-0.794-2.526-1.238l0.101 0.054c-0.868-0.499-1.617-1.067-2.286-1.717l0.003 0.003c-0.678-0.655-1.244-1.42-1.672-2.267l-0.022-0.048c-0.414-0.831-0.657-1.811-0.657-2.847 0-0.037 0-0.073 0.001-0.11l-0 0.005c-0-0.011-0-0.024-0-0.038 0-1.060 0.194-2.074 0.549-3.010l-0.019 0.058c0.368-0.98 0.908-1.817 1.59-2.516l-0.001 0.002c0.724-0.735 1.596-1.322 2.567-1.714l0.051-0.018c1.030-0.405 2.224-0.639 3.472-0.639 0.074 0 0.148 0.001 0.222 0.002l-0.011-0c0.034-0 0.074-0.001 0.114-0.001 1.024 0 2.014 0.147 2.949 0.421l-0.074-0.019c0.947 0.279 1.757 0.601 2.529 0.988l-0.087-0.040c0.724 0.359 1.344 0.741 1.924 1.173l-0.033-0.024q0.801 0.602 1.35 1.002l-3.351 4.554c-0.073-0.048-0.291-0.201-0.637-0.457-0.368-0.265-0.791-0.53-1.231-0.77l-0.064-0.032c-0.476-0.264-1.041-0.521-1.626-0.737l-0.087-0.028c-0.582-0.219-1.255-0.346-1.958-0.346-0.004 0-0.007 0-0.010 0h0.001c-0.018-0-0.040-0.001-0.062-0.001-0.619 0-1.192 0.198-1.658 0.534l0.008-0.006c-0.427 0.266-0.71 0.727-0.727 1.254l-0 0.002c0.026 0.753 0.397 1.415 0.96 1.834l0.006 0.005c0.905 0.688 1.948 1.262 3.069 1.672l0.083 0.026q1.057 0.436 2.351 1.094c0.917 0.471 1.707 1.017 2.417 1.651l-0.011-0.010c0.74 0.662 1.36 1.438 1.836 2.306l0.023 0.045c0.472 0.888 0.75 1.941 0.75 3.060 0 0.058-0.001 0.116-0.002 0.174l0-0.009c-0.008 1.034-0.221 2.016-0.601 2.911l0.019-0.050c-0.421 1.013-0.993 1.881-1.698 2.622l0.003-0.003c-0.757 0.795-1.658 1.445-2.662 1.909l-0.054 0.022c-1.021 0.473-2.215 0.749-3.474 0.749-0.047 0-0.094-0-0.141-0.001l0.007 0c-0.017 0-0.037 0-0.057 0-1.194 0-2.347-0.173-3.436-0.496l0.085 0.022c-1.13-0.321-2.098-0.699-3.021-1.157l0.102 0.046c-0.832-0.401-1.536-0.814-2.205-1.275l0.055 0.036c-0.404-0.26-0.755-0.54-1.077-0.851l0.002 0.002z"></path>
<path fill="#575880" style="fill: var(--color2, #575880)" d="M22.804 3.697h6.305l6.051 13.85 6.049-13.85h6.305l-12.355 26.529z"></path>
<path fill="#575880" style="fill: var(--color2, #575880)" d="M72.374 20.716c-0.119 2.544-1.205 4.813-2.896 6.467l-0.002 0.002c-0.609 0.595-1.304 1.105-2.065 1.508l-0.048 0.023c-0.85 0.451-1.835 0.821-2.87 1.059l-0.082 0.016c-1.108 0.256-2.381 0.403-3.688 0.403-0.081 0-0.162-0.001-0.243-0.002l0.012 0c-0.026 0-0.058 0-0.089 0-1.897 0-3.701-0.396-5.335-1.11l0.086 0.033c-3.301-1.432-5.876-4.018-7.259-7.237l-0.034-0.090c-0.675-1.548-1.068-3.352-1.068-5.248 0-0.032 0-0.063 0-0.095l-0 0.005c-0-0.027-0-0.060-0-0.093 0-1.896 0.393-3.7 1.102-5.335l-0.034 0.087c1.418-3.309 3.994-5.896 7.207-7.292l0.089-0.034c1.572-0.68 3.402-1.075 5.324-1.075 1.934 0 3.775 0.4 5.444 1.122l-0.089-0.034c1.653 0.896 3.078 1.868 4.394 2.966l-0.042-0.034-4.009 4c-0.721-0.692-1.565-1.262-2.496-1.673l-0.055-0.022c-0.907-0.404-1.966-0.639-3.079-0.639-0.020 0-0.040 0-0.060 0l0.003-0c-0.018-0-0.039-0-0.060-0-1.11 0-2.167 0.229-3.126 0.642l0.051-0.020c-2.916 1.261-4.919 4.113-4.919 7.432s2.003 6.171 4.866 7.412l0.052 0.020c0.907 0.394 1.964 0.623 3.073 0.623 0.021 0 0.043-0 0.064-0l-0.003 0c0.124 0.006 0.27 0.010 0.417 0.010 1.142 0 2.234-0.22 3.233-0.62l-0.059 0.021c0.729-0.31 1.344-0.759 1.837-1.32l0.005-0.006c0.416-0.527 0.693-1.182 0.764-1.897l0.001-0.015h-6.199v-5.686h11.882v5.724z"></path>
<path fill="#f7f7f7" style="fill: var(--color3, #f7f7f7)" d="M84.937 11.401h-1.046v2.868h-2.208v-9.891h4.308c0.006-0 0.012-0 0.019-0 0.486 0 0.948 0.101 1.366 0.284l-0.022-0.009c0.845 0.359 1.505 1.018 1.856 1.841l0.009 0.023c0.174 0.397 0.275 0.859 0.275 1.346 0 0.007-0 0.013-0 0.020v-0.001c0 0.003 0 0.007 0 0.011 0 0.38-0.063 0.745-0.179 1.086l0.007-0.024c-0.12 0.358-0.278 0.669-0.475 0.952l0.008-0.012c-0.203 0.292-0.436 0.543-0.7 0.757l-0.007 0.005c-0.258 0.211-0.557 0.385-0.881 0.508l-0.022 0.007 2.246 3.094h-2.708zM83.889 9.324h2.105c0.004 0 0.008 0 0.012 0 0.198 0 0.386-0.042 0.555-0.117l-0.009 0.003c0.348-0.15 0.619-0.422 0.766-0.76l0.004-0.009c0.072-0.161 0.114-0.349 0.114-0.547 0-0.004-0-0.008-0-0.013v0.001c0-0.006 0-0.014 0-0.021 0-0.363-0.142-0.692-0.374-0.935l0.001 0.001c-0.228-0.251-0.539-0.423-0.89-0.472l-0.008-0.001h-2.279v2.87z"></path>
<path fill="#f7f7f7" style="fill: var(--color3, #f7f7f7)" d="M94.951 12.065h4.617v2.204h-7.049v-9.891h7.049v2.208h-4.617v1.542h3.853v2.201h-3.853z"></path>
<path fill="#f7f7f7" style="fill: var(--color3, #f7f7f7)" d="M89.2 21.071c0 0.007 0 0.015 0 0.023 0 0.484-0.101 0.945-0.284 1.362l0.009-0.022c-0.187 0.435-0.439 0.807-0.748 1.124l0.001-0.001c-0.312 0.314-0.683 0.57-1.094 0.748l-0.023 0.009c-0.395 0.173-0.856 0.274-1.34 0.274-0.008 0-0.016-0-0.024-0h-2.105v2.868h-2.202v-9.891h4.307c0.006-0 0.012-0 0.019-0 0.486 0 0.948 0.101 1.366 0.284l-0.022-0.009c0.846 0.358 1.506 1.017 1.856 1.841l0.009 0.023c0.175 0.397 0.276 0.86 0.276 1.347 0 0.008-0 0.015-0 0.023v-0.001zM83.59 22.512h2.105c0.003 0 0.007 0 0.011 0 0.198 0 0.387-0.042 0.558-0.117l-0.009 0.003c0.347-0.151 0.618-0.422 0.766-0.76l0.004-0.009c0.071-0.163 0.113-0.354 0.113-0.554 0-0.371-0.142-0.708-0.375-0.96l0.001 0.001c-0.228-0.251-0.539-0.423-0.89-0.472l-0.008-0.001h-2.275v2.87z"></path>
<path fill="#f7f7f7" style="fill: var(--color3, #f7f7f7)" d="M91.421 22.378c-0-0.014-0-0.030-0-0.046 0-0.72 0.138-1.409 0.389-2.040l-0.013 0.037c0.251-0.641 0.599-1.192 1.031-1.664l-0.004 0.004c0.422-0.459 0.928-0.833 1.493-1.102l0.029-0.013c0.541-0.258 1.176-0.409 1.846-0.409 0.007 0 0.015 0 0.022 0h-0.001c0.010-0 0.021-0 0.032-0 0.674 0 1.314 0.151 1.886 0.42l-0.027-0.011c0.599 0.279 1.107 0.654 1.529 1.111l0.003 0.003c0.428 0.468 0.775 1.019 1.014 1.624l0.013 0.036c0.238 0.594 0.375 1.282 0.375 2.002 0 0.016-0 0.032-0 0.048l0-0.002c0 0.013 0 0.027 0 0.042 0 0.715-0.138 1.397-0.388 2.022l0.013-0.037c-0.252 0.639-0.599 1.187-1.031 1.658l0.004-0.004c-0.424 0.46-0.933 0.834-1.502 1.1l-0.029 0.012c-0.545 0.258-1.184 0.409-1.859 0.409-0.011 0-0.022-0-0.034-0h0.002c-0.007 0-0.015 0-0.024 0-0.669 0-1.304-0.151-1.871-0.42l0.026 0.011c-0.595-0.28-1.101-0.654-1.52-1.109l-0.003-0.003c-0.427-0.467-0.774-1.015-1.014-1.618l-0.013-0.036c-0.238-0.588-0.375-1.27-0.375-1.984 0-0.015 0-0.030 0-0.046v0.002zM93.412 22.378c-0 0.008-0 0.017-0 0.026 0 0.421 0.082 0.823 0.23 1.191l-0.008-0.021c0.149 0.373 0.352 0.693 0.604 0.968l-0.002-0.002c0.246 0.267 0.541 0.485 0.872 0.64l0.017 0.007c0.316 0.149 0.686 0.236 1.076 0.236 0.004 0 0.008 0 0.012-0h-0.001c0.004 0 0.009 0 0.014 0 0.396 0 0.773-0.087 1.111-0.242l-0.016 0.007c0.352-0.161 0.651-0.379 0.899-0.646l0.002-0.002c0.254-0.271 0.458-0.592 0.595-0.946l0.007-0.020c0.138-0.345 0.218-0.745 0.218-1.163 0-0.011-0-0.023-0-0.034v0.002c0-0.008 0-0.017 0-0.026 0-0.421-0.080-0.824-0.226-1.193l0.008 0.022c-0.146-0.376-0.35-0.698-0.604-0.974l0.002 0.002c-0.249-0.273-0.548-0.495-0.883-0.654l-0.017-0.007c-0.322-0.153-0.699-0.243-1.097-0.243-0.004 0-0.008 0-0.012 0h0.001c-0.002 0-0.004 0-0.006 0-0.393 0-0.765 0.090-1.097 0.25l0.015-0.007c-0.348 0.168-0.643 0.39-0.887 0.659l-0.002 0.002c-0.248 0.275-0.451 0.597-0.594 0.95l-0.008 0.022c-0.141 0.348-0.223 0.751-0.223 1.173 0 0.009 0 0.017 0 0.026v-0.001z"></path>
</symbol>
<symbol id="flaticon" viewBox="0 0 165 32">
<path fill="#fff" style="fill: var(--color4, #fff)" d="M65.506 29.030h-4.727v-26.060h4.727zM86.254 29.030h-4.601v-1.924c-1.19 1.463-2.991 2.39-5.008 2.39-0.092 0-0.184-0.002-0.276-0.006l0.013 0c-4.852 0-8.492-3.974-8.492-9.244s3.681-9.244 8.492-9.244c0.069-0.003 0.149-0.004 0.23-0.004 2.035 0 3.85 0.944 5.030 2.418l0.010 0.013v-1.924h4.601zM72.701 20.246c0 2.677 1.757 4.852 4.518 4.852s4.518-2.050 4.518-4.852-1.841-4.852-4.518-4.852-4.476 2.175-4.476 4.852zM109.804 5.731c0 1.663-1.348 3.012-3.012 3.012s-3.012-1.348-3.012-3.012v0c0-1.663 1.348-3.012 3.012-3.012s3.012 1.348 3.012 3.012v0zM109.176 29.030h-4.769v-17.569h4.769z"></path>
<path fill="#fff" style="fill: var(--color4, #fff)" d="M58.395 7.446c-0.833-0.382-1.807-0.605-2.834-0.605-0.18 0-0.359 0.007-0.536 0.020l0.023-0.001c-1.339 0.167-2.050 0.837-2.050 2.468v2.133h5.438v4.225h-5.438v13.386h-4.727v-13.386h-3.263v-4.183h3.263v-2.217c0-4.141 2.175-6.818 6.274-6.818 0.037-0.001 0.080-0.001 0.124-0.001 1.359 0 2.654 0.277 3.831 0.778l-0.064-0.024z"></path>
<path fill="#fff" style="fill: var(--color4, #fff)" d="M98.342 25.098c-1.464 0-2.635-0.795-2.635-2.97v-6.442h6.358v-4.183h-6.358v-5.229h-4.727v5.229h-2.384v4.183h2.384v6.776c0 4.559 2.217 7.027 6.567 7.027 0.048 0.001 0.106 0.001 0.163 0.001 1.59 0 3.089-0.387 4.408-1.072l-0.053 0.025-1.799-3.807c-0.564 0.264-1.221 0.43-1.914 0.46l-0.011 0zM145.945 20.246c0 5.271-4.058 9.244-9.495 9.244s-9.495-3.932-9.495-9.244 4.016-9.244 9.495-9.244 9.495 3.974 9.495 9.244zM131.765 20.246c0 2.844 2.008 4.852 4.643 4.852s4.685-2.008 4.685-4.852-2.008-4.852-4.685-4.852-4.601 2.008-4.601 4.852zM164.936 17.861v11.169h-4.769v-9.663c0-2.552-1.255-3.932-3.43-3.932s-3.723 1.339-3.723 3.974v9.621h-4.685v-17.569h4.601v2.050c1.255-1.882 3.179-2.552 5.145-2.552 4.016 0.042 6.86 2.844 6.86 6.902z"></path>
<path fill="#fff" style="fill: var(--color4, #fff)" d="M124.654 23.299c-0.853 0.975-2.055 1.625-3.409 1.755l-0.021 0.002h-0.376l-0.753-0.084c-1.378-0.236-2.509-1.118-3.085-2.317l-0.011-0.025c-0.318-0.676-0.503-1.468-0.503-2.303 0-0.043 0.001-0.086 0.001-0.129l-0 0.006c-0.001-0.029-0.001-0.062-0.001-0.096 0-0.863 0.201-1.679 0.559-2.404l-0.014 0.032c0.61-1.213 1.753-2.080 3.113-2.297l0.024-0.003h1.004c1.399 0.086 2.629 0.748 3.466 1.749l0.006 0.008 2.301-4.016c-0.938-0.826-2.075-1.449-3.33-1.785l-0.058-0.013c-0.761-0.213-1.635-0.335-2.538-0.335-0.005 0-0.010 0-0.015 0h0.001c-0.017-0-0.037-0-0.056-0-1.099 0-2.159 0.168-3.156 0.48l0.075-0.020c-1.301 0.409-2.42 1.069-3.352 1.93l0.006-0.005c-1.755 1.672-2.847 4.027-2.847 6.638 0 0.078 0.001 0.156 0.003 0.234l-0-0.012c-0.002 0.066-0.003 0.143-0.003 0.221 0 2.59 1.075 4.929 2.802 6.595l0.003 0.003c0.926 0.855 2.046 1.515 3.284 1.907l0.062 0.017c0.96 0.318 2.066 0.502 3.214 0.502 0.002 0 0.005 0 0.007 0h-0c0.013 0 0.029 0 0.045 0 0.906 0 1.784-0.122 2.618-0.351l-0.069 0.016c1.315-0.364 2.452-1 3.396-1.847l-0.008 0.007z"></path>
<path fill="#4ad295" style="fill: var(--color5, #4ad295)" d="M19.367 11.085h-8.115l-2.552-4.392h13.218l3.848-6.693h-21.835c-0.002 0-0.005 0-0.007 0-1.441 0-2.699 0.783-3.371 1.947l-0.010 0.019c-0.335 0.563-0.533 1.241-0.533 1.966s0.198 1.403 0.543 1.984l-0.010-0.018 13.929 24.136c0.696 1.167 1.952 1.937 3.388 1.937s2.692-0.77 3.378-1.919l0.010-0.018 0.46-0.795-6.4-11.127z"></path>
<path fill="#4ad295" style="fill: var(--color5, #4ad295)" d="M35.221 1.966c-0.682-1.183-1.94-1.966-3.381-1.966-0.003 0-0.005 0-0.008 0h-0.962l-10.458 18.112 3.848 6.693 10.959-18.949c0.328-0.558 0.521-1.229 0.521-1.945s-0.194-1.387-0.531-1.963l0.010 0.018z"></path>
</symbol>
<symbol id="balloon" viewBox="0 0 32 32">
<path d="M24.438 19.204c2.047-2.897 2.912-6.352 2.438-9.73v0c-0.846-6-6.414-10.196-12.414-9.349s-10.196 6.408-9.353 12.408c0.473 3.368 2.258 6.447 5.023 8.671 1.682 1.352 3.599 2.256 5.378 2.583l-0.523 2.827c-0.005 0.027-0.008 0.059-0.008 0.091 0 0.276 0.224 0.5 0.5 0.5 0.025 0 0.050-0.002 0.074-0.005l-0.003 0 1.888-0.263c0.994 2.242 2.603 3.78 4.901 4.688l0.93 0.367 0.736-1.859-0.93-0.368c-1.647-0.651-2.78-1.635-3.563-3.12l1.365-0.192c0.245-0.035 0.431-0.244 0.431-0.495 0-0.081-0.019-0.158-0.054-0.226l0.001 0.003-1.281-2.572c1.624-0.804 3.218-2.199 4.464-3.958zM14.386 20.183c-2.579-1.020-4.769-3.294-5.716-5.934l-0.338-0.941 1.883-0.675 0.338 0.941c0.906 2.527 2.954 4.111 4.569 4.75l0.93 0.367-0.736 1.86z"></path>
</symbol>
</defs>
</svg>
